<?xml version="1.0" encoding="UTF-8"?>
<svg width="140px" height="129px" viewBox="0 0 140 129" version="1.1" xmlns="http://www.w3.org/2000/svg" xmlns:xlink="http://www.w3.org/1999/xlink">
    <title>421E76D4-9278-4DD0-85AA-D486F5851284</title>
    <defs>
        <polygon id="path-1" points="0 0 130 0 130 58 0 58"></polygon>
        <polygon id="path-3" points="0 0 130 0 130 58 0 58"></polygon>
        <polygon id="path-5" points="0 0 12 0 12 2 0 2"></polygon>
    </defs>
    <g id="Page-1" stroke="none" stroke-width="1" fill="none" fill-rule="evenodd">
        <g id="commercial---6g-Congrats" transform="translate(-110.000000, -94.000000)">
            <rect fill="#FFFFFF" x="0" y="0" width="360" height="640"></rect>
            <g id="bravo" transform="translate(110.000000, 94.000000)">
                <g id="Group-3" transform="translate(0.000000, 24.000000)">
                    <mask id="mask-2" fill="white">
                        <use xlink:href="#path-1"></use>
                    </mask>
                    <g id="Clip-2"></g>
                    <path d="M129.864778,1.83890372 C127.570217,-3.76124857 96.6690722,3.85941237 60.8451524,18.8599789 C25.0212326,33.8605455 -2.15934225,50.5609097 0.135218871,56.161062 C2.42977999,61.7612143 33.3309244,54.1408495 69.1548441,39.1399868 C104.978471,24.1394203 132.159339,7.43905601 129.864778,1.83890372" id="Fill-1" fill="#05BF95" mask="url(#mask-2)"></path>
                </g>
                <g id="Group-6" transform="translate(0.000000, 24.000000)">
                    <mask id="mask-4" fill="white">
                        <use xlink:href="#path-3"></use>
                    </mask>
                    <g id="Clip-5"></g>
                    <path d="M129.864778,1.83890372 C127.570217,-3.76124857 96.6690722,3.85941237 60.8451524,18.8599789 C25.0212326,33.8605455 -2.15934225,50.5609097 0.135218871,56.161062 C2.42977999,61.7612143 33.3309244,54.1408495 69.1548441,39.1399868 C104.978471,24.1394203 132.159339,7.43905601 129.864778,1.83890372" id="Fill-4" fill-opacity="0.2" fill="#000000" mask="url(#mask-4)"></path>
                </g>
                <path d="M88.8252192,3 C87.8935164,2.79974779 86.942778,2.61008827 86,2.43631778 L86.1519382,2 C87.1019843,2.17503153 88.0603369,2.36620429 89,2.56822194 L88.8252192,3 Z" id="Fill-7" fill="#05BF95"></path>
                <g id="Group-11" transform="translate(71.000000, 0.000000)">
                    <mask id="mask-6" fill="white">
                        <use xlink:href="#path-5"></use>
                    </mask>
                    <g id="Clip-10"></g>
                    <path d="M11.904062,2 C8.00220217,1.08767876 3.99693611,0.62486653 0,0.62486653 L0,-3.50084896e-05 C4.02939416,-3.50084896e-05 8.06654379,0.466628157 12,1.38630118 L11.904062,2 Z" id="Fill-9" fill="#05BF95" mask="url(#mask-6)"></path>
                </g>
                <path d="M71,129 L71,128.418819 C79.1766877,128.418819 87.1856411,126.595832 94.8048339,123 L95,123.5369 C87.3185141,127.16171 79.2438386,129 71,129" id="Fill-12" fill="#05BF95"></path>
                <path d="M128.227308,40.5885047 C141.43332,72.470525 126.293522,109.021327 94.4112178,122.227343 C62.5294994,135.433358 25.9784151,120.293263 12.7726959,88.4115351 C-0.433315999,56.5295149 14.7064825,19.9784203 46.5884937,6.77269729 C78.470505,-6.4333184 115.021296,8.70648444 128.227308,40.5885047" id="Fill-14" fill="#90DDC9"></path>
                <path d="M117.155418,34.0163528 L127,37.1279052 C117.411464,17.1124978 98.4007924,4.34227235 77.6238733,2 L74.630129,10.0271166 L66.3150842,12.7251883 C66.3150842,12.7251883 57.0341547,21.3276463 57.074583,21.8794443 C57.1109099,22.4327138 56.9190219,31.0392919 56.9190219,31.0392919 L50.5202195,39.3863042 L45.0310536,42.9949163 L45,51.1535815 L48.2691254,59.0815216 L53.1755965,58.1768671 L57.4524996,52.9867282 L56.7605313,49.4831785 L66.8520773,43.7662564 L74.6066923,47.9293152 L85.6195932,43.5402399 L92.731457,47.9708104 L83.5143925,56.7286547 L69.0551262,60.4714641 L58.7236471,64.7701916 L48.6069067,73.6239752 L51.0695169,84.6331555 L59.1291019,89.9939839 L74.9318764,90.8082907 L84.013887,100.482561 L89.7300958,110.609748 L93.1436498,115 L98.672951,111.94142 L104.282523,97.859534 L108.132292,79.8358969 L106.056094,69.3761602 L101.700678,72.4677008 L98.566314,65.7852057 L92.3169205,59.3207812 L90.1935563,55.0865037 L103.86535,61.7157319 L118.24083,59.5256086 L123.22347,48.7324388 L118.041032,40.2815414 L109.685559,42.4281093 L103.665845,42.4716646 L101.675777,38.5646401 L109.010289,37.5931813 L117.155418,34.0163528 Z" id="Fill-16" fill="#FBCC47"></path>
                <path d="M40.742953,118.438767 L37.595278,108.997867 L22.8581836,100.219352 L18,99 C29.2561465,116.100504 48.0977601,126.337614 68,127 L67.5746385,125.971867 C67.5746385,125.971867 51.2667762,120.673367 50.71863,120.713778 C50.1687296,120.749796 40.742953,118.438767 40.742953,118.438767" id="Fill-18" fill="#FBCC47"></path>
                <path d="M14.7456432,59.5743887 L15.3499262,42.3820427 L25.8830205,35.7947039 L33,18.7503157 L28.4619823,18 C10.4776368,34.3133714 3.16640245,60.1241134 11.3142003,84 L21.4791241,77.5135415 L14.7456432,59.5743887 Z" id="Fill-20" fill="#FBCC47"></path>
                <path d="M127.049631,38 C117.767136,45.6534871 96.7907911,56.9372318 71.4978494,67.3814321 C46.6382623,77.6464791 24.1567189,84.3974998 12,85.704008 C12.3077022,86.5671482 12.6396581,87.4200926 12.9946991,88.2750763 C16.1438977,95.853989 20.6253034,102.482952 26.0561149,108 C38.8165495,105.769177 58.9913495,99.4303549 81.0325252,90.3290761 C103.468775,81.0643745 122.503353,71.1395731 133,63.6768915 C132.908829,56.0000999 131.371779,48.2114467 128.244497,40.6855516 C127.867248,39.7778416 127.471004,38.8779968 127.049631,38" id="Fill-22" fill-opacity="0.2" fill="#000000"></path>
                <path d="M130.26637,26 L139.864211,49.1842552 C142.168293,54.7500186 114.875821,71.3484196 78.9059058,86.2559893 C42.9312841,101.165325 11.9022168,108.738012 9.59813497,103.172249 L0,79.9879938 C2.30437602,85.5537572 33.3331491,77.9807754 69.308065,63.0714398 C105.277686,48.1638701 132.570452,31.5657635 130.26637,26" id="Fill-24" fill="#05BF95"></path>
                <path d="M130.26637,26 L139.864211,49.1842552 C142.168293,54.7500186 114.875821,71.3484196 78.9059058,86.2559893 C42.9312841,101.165325 11.9022168,108.738012 9.59813497,103.172249 L0,79.9879938 C2.30437602,85.5537572 33.3331491,77.9807754 69.308065,63.0714398 C105.277686,48.1638701 132.570452,31.5657635 130.26637,26" id="Fill-26" fill="#05BF95"></path>
                <path d="M35.5772406,89.157866 L36.7089977,92.9464606 L39.2402361,92.210503 C39.9371972,92.0078982 40.425538,91.695044 40.7058439,91.2713633 C40.9861498,90.8476826 41.0405725,90.3501175 40.8696971,89.7783794 C40.4764495,88.4614481 39.614465,87.9921668 38.2846212,88.3708243 L35.5772406,89.157866 Z M34.8311236,86.6610936 L36.8453469,86.0757908 C37.6865572,85.8235449 38.2427801,85.4959716 38.5134304,85.0939367 C38.7840807,84.6919018 38.8326514,84.2003975 38.6591427,83.6197125 C38.4598855,82.951867 38.1213532,82.527609 37.6447162,82.34665 C37.1680791,82.1659797 36.4968664,82.2011902 35.6313707,82.4528588 L33.7385743,83.0029511 L34.8311236,86.6610936 Z M33.7218964,97 L29,81.1948042 L34.7556342,79.5220157 C36.8169652,78.9225709 38.4967525,78.839451 39.7944108,79.2723673 C41.091484,79.7055722 41.9525908,80.6311472 42.3762682,82.0493809 C42.6205849,82.867304 42.6384332,83.6211555 42.4298131,84.3109355 C42.2214855,85.0007154 41.7875673,85.5909246 41.1289362,86.0812744 C42.0301284,86.0552994 42.7932159,86.2740665 43.417906,86.7372869 C44.0425961,87.2005073 44.4829514,87.8591172 44.7378016,88.7131167 C45.2003941,90.2618025 45.0508781,91.5697869 44.2892536,92.6364926 C43.5273365,93.7034869 42.1729147,94.5277595 40.2256957,95.1093103 L33.7218964,97 Z" id="Fill-28" fill="#FFFFFF"></path>
                <path d="M51.2691574,83.4454852 L53.6362049,82.6212957 C54.3467805,82.3739535 54.8156912,82.0035089 55.0426486,81.5096775 C55.2693177,81.0158461 55.2644151,80.4387144 55.0282295,79.7782824 C54.7914671,79.1178504 54.4246439,78.6629683 53.9274717,78.4133517 C53.4305878,78.1637352 52.8298861,78.1611764 52.1262316,78.4062442 L49.7591842,79.2304337 L51.2691574,83.4454852 Z M54.3115978,85.5783138 L52.2857074,86.2836654 L54.2250829,91.697047 L50.4821603,93 L45,77.6952066 L51.1096817,75.568064 C52.9504302,74.9272488 54.5339411,74.8285963 55.8602144,75.2721063 C57.1864877,75.716185 58.1127738,76.672859 58.6396495,78.1429812 C59.0206034,79.207121 59.1180768,80.1652165 58.9317814,81.0172676 C58.7451976,81.869603 58.2641748,82.6747443 57.488713,83.432976 L62.9434769,88.4841577 L63,88.6419449 L58.9911883,90.0375802 L54.3115978,85.5783138 Z" id="Fill-30" fill="#FFFFFF"></path>
                <path d="M67.8632918,79.9849952 L71.1042606,78.6678967 L67.3933513,73.9995273 L67.8632918,79.9849952 Z M73.0931921,81.1740344 L68.1123346,83.1980665 L68.3659262,86.4218576 L64.4830181,88 L64,70.388661 L67.4172321,69 L79,82.1000015 L75.0963383,83.686546 L73.0931921,81.1740344 Z" id="Fill-32" fill="#FFFFFF"></path>
                <polygon id="Fill-34" fill="#FFFFFF" points="84.1209796 74.0400394 82.2511065 61.7809264 86.4018885 60 88 77.2553134 83.9336087 79 72 66.1791705 76.1195043 64.411762"></polygon>
                <path d="M100.794341,61.7578211 C100.04416,60.2680453 99.2193208,59.2591539 98.320423,58.7314397 C97.4212253,58.2037254 96.4971416,58.1677249 95.5475721,58.6237309 C93.6907094,59.5149622 93.3941751,61.3451327 94.6582689,64.1148278 L95.2030645,65.2217692 C95.9427513,66.6910569 96.761294,67.7008263 97.6586926,68.2507848 C98.5557915,68.8007433 99.496366,68.8390852 100.481316,68.3666888 C101.416793,67.9177072 101.942399,67.1836488 102.057835,66.164806 C102.17357,65.1459633 101.868341,63.9070202 101.142147,62.4479765 L100.794341,61.7578211 Z M104.87746,60.5782933 C105.614148,62.0408492 105.988039,63.4682827 105.999733,64.8608864 C106.011126,66.2537828 105.658224,67.4994578 104.941024,68.598204 C104.223825,69.6972429 103.210991,70.5603762 101.902522,71.1884821 C100.594353,71.8162953 99.2861834,72.0800061 97.9774146,71.9790291 C96.6692454,71.8780522 95.4567228,71.4176559 94.3404464,70.5978402 C93.2241701,69.7777318 92.2961885,68.6675708 91.5559021,67.2664791 L91.13014,66.4220777 C90.3901534,64.9527901 90.0132639,63.5241858 90.0003711,62.1365578 C89.9868787,60.7492224 90.3412807,59.5026693 91.063877,58.3968987 C91.7867731,57.2914207 92.8056039,56.4227263 94.1209691,55.7914009 C95.4222421,55.1668073 96.7349087,54.9121697 98.058969,55.0266103 C99.3830293,55.1413435 100.609344,55.6207645 101.737614,56.4645805 C102.865584,57.3086892 103.796564,58.449875 104.529954,59.8881378 L104.87746,60.5782933 Z" id="Fill-36" fill="#FFFFFF"></path>
                <path d="M117.847134,61.0689588 C117.546475,60.5805668 117.484323,60.0757681 117.660064,59.5542697 C117.836112,59.0330643 118.200148,58.6170376 118.751866,58.3058964 C119.303278,57.9950482 119.860201,57.8925064 120.422023,57.997978 C120.983845,58.1034496 121.415238,58.4002349 121.715591,58.8886269 C122.01625,59.3770189 122.078402,59.8821105 121.902661,60.4033159 C121.726307,60.9245213 121.362577,61.3408411 120.811165,61.6516892 C120.259141,61.9628304 119.702218,62.0653722 119.140702,61.9599006 C118.57888,61.8544291 118.147487,61.5573508 117.847134,61.0689588 L117.847134,61.0689588 Z M119.330833,56.0997826 L116.506416,57.6912315 L110,48.0927319 L113.713535,46 L119.330833,56.0997826 Z" id="Fill-38" fill="#FFFFFF"></path>
                <path d="M124.135584,57.1406372 C123.824273,56.6589754 123.737813,56.1476958 123.875626,55.6064993 C124.013729,55.065602 124.335195,54.6213362 124.840024,54.2745995 C125.345143,53.9278628 125.86651,53.7932368 126.403834,53.8701232 C126.941158,53.9476079 127.365331,54.2267325 127.676642,54.7083943 C127.987953,55.1903554 128.074413,55.701635 127.93631,56.2425323 C127.798207,56.7837288 127.477031,57.2276954 126.971912,57.5744321 C126.466793,57.921468 125.945716,58.056094 125.408102,57.9789084 C124.871068,57.9017228 124.446895,57.6222991 124.135584,57.1406372 L124.135584,57.1406372 Z M125.267098,51.9940352 L122.682314,53.7693033 L116,44.3347138 L119.399183,42 L125.267098,51.9940352 Z" id="Fill-40" fill="#FFFFFF"></path>
            </g>
        </g>
    </g>
</svg>