<svg width="18" height="18" viewBox="0 0 18 18" xmlns="http://www.w3.org/2000/svg">
    <g fill="none" fill-rule="evenodd">
        <path d="M0 0h18v18H0z"/>
        <path d="M9 11.8c.918 0 1.699.59 1.984 1.41l.035-.005.081-.005h4.2a.7.7 0 0 1 .081 1.395l-.081.005h-4.2a.677.677 0 0 1-.116-.01 2.101 2.101 0 0 1-3.968 0l-.035.005-.081.005H2.7a.7.7 0 0 1-.081-1.395L2.7 13.2h4.2c.04 0 .078.003.116.01A2.101 2.101 0 0 1 9 11.8zm0 1.4a.7.7 0 1 0 0 1.4.7.7 0 0 0 0-1.4zM4.1 6.9c.918 0 1.699.59 1.984 1.41l.035-.005L6.2 8.3h9.1a.7.7 0 0 1 .081 1.395L15.3 9.7H6.2a.677.677 0 0 1-.116-.01A2.101 2.101 0 0 1 2 9c0-1.16.94-2.1 2.1-2.1zm0 1.4a.7.7 0 1 0 0 1.4.7.7 0 0 0 0-1.4zM11.8 2c.918 0 1.699.59 1.984 1.41l.035-.005.081-.005h1.4a.7.7 0 0 1 .081 1.395L15.3 4.8h-1.4a.677.677 0 0 1-.116-.01 2.101 2.101 0 0 1-3.968 0l-.035.005L9.7 4.8h-7a.7.7 0 0 1-.081-1.395L2.7 3.4h7c.04 0 .078.003.116.01A2.101 2.101 0 0 1 11.8 2zm0 1.4a.7.7 0 1 0 0 1.4.7.7 0 0 0 0-1.4z" fill="#9E9E9E"/>
    </g>
</svg>
