<?xml version="1.0" encoding="UTF-8"?>
<svg width="24px" height="24px" viewBox="0 0 24 24" version="1.1" xmlns="http://www.w3.org/2000/svg" xmlns:xlink="http://www.w3.org/1999/xlink">
    <title>4696976E-DEBF-4D24-B1E5-D0E8C8481B79</title>
    <g id="Page-1" stroke="none" stroke-width="1" fill="none" fill-rule="evenodd">
        <g id="user---6-fiche-établissement" transform="translate(-16.000000, -400.000000)">
            <rect fill="#FFFFFF" x="0" y="0" width="360" height="1330"></rect>
            <g id="icon-hours" transform="translate(16.000000, 400.000000)" fill="#FBCC47">
                <path d="M12,4 C9.87817891,4 7.84372364,4.84272873 6.34263273,6.34263273 C4.84263564,7.84353745 4,9.87799273 4,12 C4,14.1220073 4.84272873,16.1562764 6.34263273,17.6573673 C7.84353745,19.1573644 9.87799273,20 12,20 C14.1220073,20 16.1562764,19.1572713 17.6573673,17.6573673 C19.1573644,16.1564625 20,14.1220073 20,12 C19.9972724,9.87908655 19.1536407,7.84535273 17.6536436,6.34635636 C16.1545542,4.84635927 14.1208436,4.00279273 12,4 Z M14.6963782,14.6963782 C14.4118225,14.9800262 13.9518371,14.9800262 13.6672815,14.6963782 L11.4854633,12.51456 C11.3490991,12.3781958 11.2727366,12.1927447 11.2727366,12.0000233 L11.2727366,7.63638691 C11.2727366,7.23456 11.5981824,6.90911418 12.0000093,6.90911418 C12.4018362,6.90911418 12.727282,7.23456 12.727282,7.63638691 L12.727282,11.6991069 L14.6963642,13.6681891 L14.6963642,13.6672791 C14.9800122,13.9518348 14.9800122,14.4118202 14.6963642,14.6963759 L14.6963782,14.6963782 Z" id="Fill-1"></path>
            </g>
        </g>
    </g>
</svg>