<svg width="16" height="16" viewBox="0 0 16 16" xmlns="http://www.w3.org/2000/svg">
    <path d="M8 0a8 8 0 1 1 0 16.001A8 8 0 0 1 8 0zm0 1.28a6.722 6.722 0 0 0-4.752 11.472A6.721 6.721 0 0 0 14.72 8 6.722 6.722 0 0 0 8 1.28zm-.13 9.186a.886.886 0 0 1 .127 1.758l-.078.016h-.164c-.048-.01-.096-.018-.142-.03a.886.886 0 0 1 .258-1.744zm-.145-6.71.349.004.172.016c.428.027.847.136 1.234.32.346.159.64.41.851.728.16.25.26.533.29.829.033.255.013.515-.061.761-.091.295-.25.564-.464.786a5.305 5.305 0 0 1-.8.658l-.23.168-.223.172a.959.959 0 0 0-.295.428l-.103.259a.597.597 0 0 1-.557.395.784.784 0 0 1-.405-.064.66.66 0 0 1-.363-.494 1.135 1.135 0 0 1 .192-.848c.139-.203.308-.382.502-.531.21-.172.426-.335.64-.506.179-.136.327-.306.439-.5a.938.938 0 0 0-.112-1.04.858.858 0 0 0-.48-.266 1.528 1.528 0 0 0-.746.012.91.91 0 0 0-.578.48c-.075.14-.14.285-.21.428a1.027 1.027 0 0 1-.207.289.716.716 0 0 1-.543.174.754.754 0 0 1-.342-.092.594.594 0 0 1-.32-.528 1.551 1.551 0 0 1 .32-.98c.25-.336.58-.603.96-.777.288-.136.595-.225.91-.263l.18-.017z" fill="#FFF" fill-rule="evenodd"/>
</svg>
