<?xml version="1.0" encoding="UTF-8"?>
<svg width="24px" height="24px" viewBox="0 0 24 24" version="1.1" xmlns="http://www.w3.org/2000/svg" xmlns:xlink="http://www.w3.org/1999/xlink">
    <title>6536C01F-BE36-4C39-8885-1EF7166C629D</title>
    <defs>
        <path d="M7,0 C3.13,0 0,3.13 0,7 C0,11.17 4.42,16.92 6.24,19.11 C6.64,19.59 7.37,19.59 7.77,19.11 C9.58,16.92 14,11.17 14,7 C14,3.13 10.87,0 7,0 Z M7,9.5 C5.62,9.5 4.5,8.38 4.5,7 C4.5,5.62 5.62,4.5 7,4.5 C8.38,4.5 9.5,5.62 9.5,7 C9.5,8.38 8.38,9.5 7,9.5 Z" id="path-1"></path>
    </defs>
    <g id="Page-1" stroke="none" stroke-width="1" fill="none" fill-rule="evenodd">
        <g id="user---6-fiche-établissement" transform="translate(-16.000000, -430.000000)">
            <rect fill="#FFFFFF" x="0" y="0" width="360" height="1330"></rect>
            <g id="icon-location" transform="translate(21.000000, 432.265000)">
                <mask id="mask-2" fill="white">
                    <use xlink:href="#path-1"></use>
                </mask>
                <use id="icon/maps/place_24px" fill="#FBCC47" fill-rule="nonzero" xlink:href="#path-1"></use>
            </g>
        </g>
    </g>
</svg>