<?xml version="1.0" encoding="UTF-8"?>
<svg width="36px" height="37px" viewBox="0 0 36 37" version="1.1" xmlns="http://www.w3.org/2000/svg" xmlns:xlink="http://www.w3.org/1999/xlink">
    <title>EEDC99D9-B0EA-4511-AAC9-A3A77DF39A15</title>
    <g id="Page-1" stroke="none" stroke-width="1" fill="none" fill-rule="evenodd">
        <g id="commercial---6f-Photos-et-vidéos" transform="translate(-72.000000, -121.000000)">
            <rect fill="#FFFFFF" x="0" y="0" width="360" height="640"></rect>
            <g id="Group" transform="translate(10.000000, 94.000000)">
                <rect id="Rectangle" stroke="#E0E0E0" x="0.5" y="0.5" width="159" height="119" rx="10"></rect>
                <g id="icon-medias" transform="translate(62.000000, 27.298696)">
                    <rect id="Rectangle" x="0" y="0" width="36" height="36"></rect>
                    <path d="M18.0332931,14.0815085 C19.4091847,14.0815085 20.6612394,14.639407 21.5695655,15.5361128 C22.4708218,16.4258393 23.0349607,17.6513106 23.0349607,19 C23.0349607,20.3486708 22.4708121,21.5741454 21.5695488,22.4638787 C20.6612247,23.3605826 19.4091776,23.9184915 18.0332931,23.9184915 C16.6574016,23.9184915 15.4053469,23.360593 14.4970208,22.4638872 C13.5957645,21.5741607 13.0316256,20.3486894 13.0316256,19 C13.0316256,17.6513223 13.5957636,16.4258402 14.4970289,15.5361049 C15.405346,14.6394079 16.6573897,14.0815085 18.0332931,14.0815085 Z" id="Path" stroke="#9E9E9E" stroke-width="3"></path>
                    <path d="M22.3125836,5.20130382 C22.4675726,5.20130382 22.6164143,5.24562847 22.7430098,5.3234783 C22.8616626,5.39644382 22.962098,5.49946714 23.0221975,5.62799469 L23.0221975,5.62799469 L25.0961344,9.72447642 L27.8362219,9.72447642 C29.1405759,9.72447642 30.3190079,10.2390468 31.1661634,11.0799382 C32.0034281,11.9110119 32.5146476,13.0604843 32.5,14.3346587 L32.5,14.3346587 L32.5,25.5831023 C32.5,26.8609137 31.9796214,28.0134372 31.1356927,28.8465273 C30.2847046,29.686586 29.1065227,30.2013038 27.8021994,30.2013038 L27.8021994,30.2013038 L8.19748716,30.2013038 C6.89322322,30.2013038 5.71512818,29.6866181 4.86421243,28.8465883 C4.02032303,28.0134949 3.5,26.8609512 3.5,25.5831023 L3.5,25.5831023 L3.5,14.3426779 C3.5,13.0648405 4.02032195,11.9122864 4.86422011,11.0791844 C5.71512705,10.2391633 6.89321145,9.72447642 8.19748716,9.72447642 L8.19748716,9.72447642 L10.9378442,9.72447642 L13.0117811,5.62799469 C13.0718806,5.49946714 13.1723159,5.39644382 13.2909688,5.3234783 L13.2909688,5.3234783 Z" id="Path" stroke="#9E9E9E" stroke-width="3"></path>
                </g>
            </g>
        </g>
    </g>
</svg>