<?xml version="1.0" encoding="UTF-8"?>
<svg width="439px" height="128px" viewBox="0 0 439 128" version="1.1" xmlns="http://www.w3.org/2000/svg" xmlns:xlink="http://www.w3.org/1999/xlink">
    <title>welcome-large</title>
    <defs>
        <polygon id="path-1" points="0 0 12.9289052 0 12.9289052 24.0442603 0 24.0442603"></polygon>
        <polygon id="path-3" points="0 0 25.5639684 0 25.5639684 35.4059493 0 35.4059493"></polygon>
        <polygon id="path-5" points="0 0 31.7280694 0 31.7280694 28.8865239 0 28.8865239"></polygon>
    </defs>
    <g id="welcome-large" stroke="none" stroke-width="1" fill="none" fill-rule="evenodd">
        <path d="M64.4015358,73.2732182 C66.5896626,73.0560977 69.1865384,72.6699231 70.2203364,72.0304412 C71.7952487,71.0649131 74.5221231,67.0109014 76.2051855,64.0541887 C76.2532522,63.9818152 76.3621305,62.4844517 76.3981805,62.4118955 C77.2757618,60.8430723 77.6741327,61.8087831 77.7221994,60.5658233 C77.7584315,59.8055362 77.6741327,59.1538094 77.5179159,58.586701 C77.3134504,57.8384761 76.9768015,57.2472432 76.628318,56.8005746 C76.5800693,56.7282011 76.5320026,56.6558276 76.4599025,56.5953336 C75.8829202,55.9077855 75.3177724,55.6181088 75.3177724,55.6181088 C75.0291902,55.4973036 74.7167567,55.6422333 74.3921245,55.9922212 L74.3921245,56.0042835 C74.1275756,56.2818979 73.8389934,56.7040766 73.56261,57.2349982 L73.5383945,57.2713677 C73.4783112,57.379928 73.4182278,57.5007332 73.3461278,57.6332351 C73.3220944,57.6575424 73.3100778,57.6937291 73.2980611,57.7178536 C73.1658777,57.9954681 73.0335122,58.2851448 72.9013288,58.586701 C71.4225498,61.8208454 70.309551,67.1686244 68.9990055,68.6287047 C68.4340398,69.2564898 65.3872671,70.0390738 63.3315057,70.9563529 C61.8529088,71.607897 62.9469722,73.4302102 64.4015358,73.2732182" id="Fill-1" fill="#EEA073"></path>
        <path d="M74.2836103,55.9103441 C73.7162777,56.4045308 73.0704726,58.0347618 72.888948,58.5815837 C72.888948,58.5815837 74.4620397,58.5207241 75.0974675,59.7355387 C75.0974675,59.7355387 75.1025648,55.1970267 74.2836103,55.9103441" id="Fill-2" fill="#004542"></path>
        <path d="M18.362386,127.137549 L0,59.5513152 L16.0497227,58.4302573 L21.9961549,91.5100569 C22.6625341,95.1307415 23.1992788,98.1643967 23.6067532,100.610109 C24.0138635,103.056552 24.3579773,105.238722 24.6398229,107.156437 C24.6487444,104.293846 24.7026373,101.532871 24.8007735,98.8722313 C24.8981814,96.2121402 25.0549443,93.6520196 25.2706982,91.1920522 L28.0647567,57.5912 L44.1144794,56.4701421 L51.337592,89.3267901 C51.6365523,90.6476062 52.2204533,93.707579 53.0876565,98.5063431 C53.6078328,101.302774 54.0280522,103.509434 54.3484968,105.126141 C54.3874599,100.980018 54.4368011,97.7263178 54.4961562,95.3668691 C54.5553292,93.0079687 54.619236,91.035974 54.6875126,89.4505195 L55.9967837,55.6402229 L72.0909317,54.516058 L63.3191249,123.997527 L46.0724687,125.202107 L40.3829384,97.1131535 C39.8847927,94.6434998 39.4150501,92.0455475 38.9738925,89.3182003 C38.5321888,86.5919496 38.1059611,83.7662768 37.6957556,80.8435577 C37.6933886,84.2425528 37.658431,87.2712735 37.5905186,89.9293542 C37.52206,92.5878004 37.4204645,95.0837718 37.2857321,97.4189132 L35.6977106,125.926756 L18.362386,127.137549" id="Fill-3" fill="#FBCC47"></path>
        <path d="M79.0021571,38.6145435 C79.0101682,38.3970575 79.1776733,36.0555195 82.730967,35.9332521 C82.730967,35.9332521 80.9836335,36.1423311 80.6817602,36.9134011 C80.6817602,36.9134011 81.8714107,35.9606663 82.8403915,36.2669743 C83.8091902,36.5734651 84.3783435,38.2773489 84.3840317,38.8378779 C84.3896319,39.3982241 83.8514306,41.2050025 83.2365776,41.358522 C83.0035269,41.4168229 82.7353367,41.4011054 82.4917259,41.3594358 C82.6554076,41.61585 82.8156299,41.8987645 82.9689335,42.2145761 C84.3867188,45.1361986 82.9246903,47.991296 81.7242975,47.6758499 C80.9545022,47.4735332 80.7367455,48.7921561 80.7367455,48.7921561 L73.2576414,42.7144283 C73.2576414,42.7144283 76.0047255,37.0086198 79.0021571,38.6145435" id="Fill-4" fill="#273759"></path>
        <path d="M76.3981805,124.68343 L77.9869303,125.277222 C77.9869303,125.277222 84.8870493,115.670921 85.7365917,107.218941 C85.8882566,105.709881 85.837641,104.248156 85.5095494,102.897915 C85.5095494,102.897915 85.5769156,102.511375 85.6948975,101.827847 C85.7495187,101.508929 85.8168849,101.124765 85.8933546,100.684858 C86.1178479,99.3945631 86.4264579,97.6292715 86.7793111,95.6190797 C87.5911648,90.9933906 88.6431699,85.080148 89.4601215,80.7331699 L89.0322551,80.5951851 L84.4005562,79.0954457 L83.44341,76.0436971 L79.994807,75.1322664 C79.994807,75.1322664 79.2242834,76.6451646 78.5356917,83.7913151 C78.4084242,84.728698 78.2931734,85.762396 78.2061435,86.8832712 C77.9377712,90.3047459 77.9182896,94.5488294 78.5342351,99.4011425 C78.6924546,100.643006 78.8921863,101.925625 79.1399847,103.243151 C79.3215092,104.209045 79.3488199,105.525292 79.2723501,107.036728 C78.924777,113.945837 76.3981805,124.68343 76.3981805,124.68343" id="Fill-5" fill="#00A793"></path>
        <path d="M78.2061435,86.8832712 C78.2061435,84.0329256 78.7259557,74.7970821 78.7259557,74.7970821 L79.994807,75.1322664 C79.9886166,75.1445114 79.2215524,76.6738581 78.5356917,83.7913151 C78.4084242,84.728698 78.2931734,85.762396 78.2061435,86.8832712" id="Fill-6" fill="#C8C8C3"></path>
        <path d="M85.6948975,101.827847 L78.2061435,86.8832712 C78.2931734,85.762396 78.4084242,84.728698 78.5356917,83.7913151 C79.2215524,76.6738581 79.9886166,75.1445114 79.994807,75.1322664 L83.44341,76.0436971 L84.4005562,79.0954457 L89.0322551,80.5951851 L89.4601215,80.7331699 C88.6431699,85.080148 87.5911648,90.9933906 86.7793111,95.6190797 C86.4264579,97.6292715 86.1178479,99.3945631 85.8933546,100.684858 C85.8168849,101.124765 85.7495187,101.508929 85.6948975,101.827847" id="Fill-7" fill="#00907F"></path>
        <path d="M81.5007146,77.0501637 L81.674046,75.5577347 C84.5784393,76.3322772 92.3386608,73.3940234 92.3386608,73.3940234 C92.3386608,73.3940234 95.1523829,75.8766532 94.7829612,81.8279102 C94.6027112,84.7325359 94.2733451,97.0756875 93.9294134,100.728173 C93.8048769,102.051913 93.6959986,102.993865 93.6515733,103.37017 L93.650663,103.374008 C93.6371897,103.4886 93.6770632,103.596977 93.7351438,103.697313 C94.2414827,104.560129 94.6609738,105.458401 95.0049055,106.377691 C98.3812264,115.409207 94.4847293,126.531696 94.4847293,126.531696 L93.4736901,126.122493 C93.4736901,126.122493 91.2562499,113.744617 89.4546594,108.276398 C89.1487805,107.348884 88.8556465,106.620032 88.58691,106.184329 C87.8036414,104.915417 87.0766327,102.841807 86.4168082,100.375443 C85.1698053,95.7128363 84.166049,89.6468052 83.4980312,84.9648256 C83.4057213,84.9690291 81.5007146,77.0501637 81.5007146,77.0501637" id="Fill-8" fill="#00A793"></path>
        <path d="M75.9521071,58.949665 C76.8639176,59.3742195 77.9648997,59.6631652 79.2969297,59.7360869 C84.2904033,60.0107772 85.4239761,55.6168295 85.6300803,52.700507 C84.9103544,52.4387928 84.2800253,52.4636483 83.9167941,52.483021 C83.7816975,52.4905143 83.6442341,52.5003834 83.5089555,52.5120801 C83.0129946,52.554298 82.5297787,52.3422948 82.2237177,51.9484442 C81.6536541,51.2148402 80.987457,49.9102899 80.5459353,48.0983941 L80.3307277,48.1985473 L76.7277287,49.8987759 C76.7277287,49.8987759 77.1102594,51.0757589 77.3930154,52.2019341 C77.5148207,52.6888103 77.6176907,53.1667312 77.6628443,53.5370056 C77.705813,53.8873591 77.5089945,54.2230916 77.1854547,54.3618075 L77.1841802,54.3656454 C77.1479481,54.4581227 76.3644974,56.4617351 75.9521071,58.949665" id="Fill-9" fill="#EEA073"></path>
        <path d="M74.7029194,62.2382722 C74.740608,62.3384254 74.7821202,62.4362027 74.8274558,62.5363559 C76.0921195,65.2704653 78.4331858,76.5956363 78.4331858,76.5956363 C79.1520013,78.7852997 93.6779736,76.1959373 93.7180292,74.3420064 C94.2667905,72.3762256 91.7713282,69.2177444 90.364103,67.6333865 C90.1876764,67.4341767 90.0294569,67.2207114 89.8919934,66.9955495 C89.5444203,66.4304515 89.3239326,65.7924317 89.2538353,65.1259011 C88.9776339,62.4977933 89.0826888,60.0349017 89.0593837,58.5369899 L89.0593837,58.5368071 C88.7844568,58.33248 88.5184514,58.1438703 88.2708351,57.9642159 C87.8921278,57.6867842 87.5574817,57.4278114 87.3109578,57.1648179 C87.0400365,56.8782481 86.8701644,56.5854645 86.8506829,56.2546665 C86.8362993,56.0048318 86.8441283,55.7484176 86.8701644,55.4918207 C86.881817,55.37065 86.897293,55.249662 86.9155001,55.1284912 C87.1099517,53.8566552 87.6392315,52.7032484 87.6392315,52.7032484 C86.2993725,52.1589852 83.9167941,52.483021 83.9167941,52.483021 C83.9167941,52.483021 83.9195251,52.6158885 83.9206175,52.8331917 C83.9284466,53.7069736 83.2110877,55.3885606 82.3801165,56.6397446 C81.4885159,57.9823093 78.323033,59.0786945 77.2976103,57.0648474 C76.9438467,56.3699889 77.1504971,54.4906542 77.1841802,54.3656454 L77.1854547,54.3618075 C75.0479435,55.2041544 74.2841565,55.9108924 74.2841565,55.9108924 C75.5719433,56.7494014 73.7069921,59.5864054 74.7029194,62.2382722" id="Fill-10" fill="#004542"></path>
        <path d="M76.7275466,49.8996897 C76.7275466,49.8996897 77.1106236,51.0753933 77.3928333,52.2026652 C79.4988462,51.6127116 80.1384609,49.3906994 80.3309097,48.1992784 L76.7275466,49.8996897" id="Fill-11" fill="#EA8B5A"></path>
        <path d="M76.2840221,51.1446599 C76.2840221,51.1446599 81.3226494,49.9740736 80.5481202,46.8355134 C79.773591,43.6971359 79.9024971,41.4323576 76.6525334,42.0469839 C73.4029339,42.6616103 73.0757526,44.0140441 73.0804368,45.1246846 C73.0850383,46.2353252 74.9534488,51.368177 76.2840221,51.1446599" id="Fill-12" fill="#EEA073"></path>
        <path d="M72.7971843,43.3429445 C73.3388449,42.2052552 73.9762748,42.265932 74.3750099,42.4677005 C76.7426585,40.268899 79.0647894,42.0652601 79.0647894,42.0652601 C79.958575,44.2326266 81.8956262,45.118288 81.8956262,45.118288 C81.8956262,45.118288 81.1216432,45.913848 78.8781668,45.8963029 C78.1928524,45.8910029 77.5038965,45.5751913 76.8770267,45.1400366 C78.0861589,46.3625271 79.5043083,47.1067312 79.5043083,47.1067312 C76.6958663,46.5674025 74.812526,43.3038336 74.619713,42.9571353 C74.3817465,43.3098647 73.9267516,44.0606482 73.8883346,44.6944645 C73.8364444,45.5560014 74.1315812,47.2288157 73.6401721,47.2922339 C73.6401721,47.2922339 71.9847844,45.0488387 72.7971843,43.3429445" id="Fill-13" fill="#273759"></path>
        <path d="M88.6063916,127.360884 L96.6074927,127.360884 C96.6074927,127.360884 96.7993953,126.136566 96.3813608,125.207955 C95.9809871,124.316811 95.3537532,123.911995 95.5037795,122.833703 C94.9954379,123.359142 94.1668337,123.947633 93.0101379,123.791372 C92.8683048,124.022017 92.0952322,125.256387 91.6218481,125.597785 C91.0989408,125.975187 88.7673421,125.840492 88.6063916,127.360884" id="Fill-14" fill="#2B4A6E"></path>
        <path d="M71.4265554,127.360884 L79.4278386,127.360884 C79.4278386,127.360884 79.7269809,126.079727 79.2017067,125.207955 C78.7366978,124.436885 78.9149452,123.997344 79.259241,123.359324 C78.8969201,123.508275 78.4279058,123.643701 77.911553,123.614094 C77.513,123.591066 77.0915061,123.409584 76.7217203,123.193925 C76.3774245,123.587959 74.9028331,125.265525 74.4420119,125.597785 C73.9191046,125.975187 71.587688,125.840492 71.4265554,127.360884" id="Fill-15" fill="#2B4A6E"></path>
        <path d="M89.3843801,57.295675 C89.3594364,57.9117634 89.2399979,58.6598055 89.0597478,59.4798556 C88.7709836,60.8545862 88.2894063,62.4478995 87.6883906,64.0660682 C87.5207034,64.4992126 87.3513776,64.946795 87.1711275,65.3925499 C85.8729627,68.6272426 84.2019169,71.6437182 82.7948738,72.6695575 C82.7360649,72.7176238 82.6878162,72.7536277 82.6271866,72.7912766 C82.0387338,73.1652062 81.1720768,73.5393187 80.1750571,73.8885756 C78.7554511,74.3717965 77.0738453,74.8049408 75.5704867,75.1684531 L75.5579238,75.1684531 C74.6805246,75.3618146 70.6840707,76.2014201 70.6840707,76.2014201 L70.3628978,74.9553534 C70.3628978,74.9553534 77.7586135,70.6304894 79.0320167,69.7013309 C79.7666723,69.1696782 80.3196213,68.698885 80.5122522,68.3624214 C80.8117587,67.8431965 81.1487717,67.0215016 81.5214707,66.0082728 C81.7141016,65.4766201 81.9174746,64.898546 82.1224864,64.2826404 C82.4828045,63.2694116 82.8429405,62.170285 83.2156394,61.072986 C83.8898476,59.0697392 84.6103017,57.0540645 85.2968907,55.4967553 L85.2988935,55.4921862 C85.4135981,55.2383308 85.6901636,55.0999804 85.9619953,55.1571847 L89.355795,55.8725126 C89.3789179,56.1216162 89.3933015,56.3899099 89.3951222,56.6799521 C89.4075031,56.8733136 89.3951222,57.077458 89.3843801,57.295675" id="Fill-16" fill="#EEA073"></path>
        <path d="M83.9331414,57.199177 C86.8466773,55.8343154 89.4002202,56.6757486 89.4002202,56.6757486 C89.371271,53.1819003 87.6385032,52.703614 87.6385032,52.703614 C86.9415362,52.4139373 83.9206175,52.8331917 83.9331414,57.199177" id="Fill-17" fill="#004542"></path>
        <path d="M71.1345138,74.5028364 C71.1345138,74.5028364 69.1002368,75.2989447 68.7062356,75.6087251 C68.3122344,75.9185056 67.5555482,76.9308206 67.4199054,77.4646664 C67.4199054,77.4646664 67.4268241,77.6832489 67.6294689,77.6830662 C67.8322958,77.6828834 68.2882011,76.9008477 68.6215727,77.0260392 C68.6215727,77.0260392 68.923264,77.8601619 68.923264,78.382311 C68.923264,78.7379645 68.7197089,80.0712084 68.7705066,80.3574126 C68.8213044,80.6436168 70.1054497,79.4613338 70.3628978,78.5464307 C70.5706406,77.808806 70.4597595,77.3595786 70.5781055,76.4538135 C70.6818858,75.65935 72.8669174,75.1997053 72.8669174,75.1997053 L71.1345138,74.5028364" id="Fill-18" fill="#EEA073"></path>
        <polyline id="Fill-19" fill="#FBCC47" points="102.285917 127.169898 102.285917 58.4673578 139.52959 58.4673578 139.52959 71.806193 118.196719 71.806193 118.196719 84.4313453 137.885491 84.4313453 137.885491 98.2166664 118.196719 98.2166664 118.196719 113.206202 139.52959 113.206202 139.52959 127.169898 102.285917 127.169898"></polyline>
        <polyline id="Fill-20" fill="#FBCC47" points="182.901039 127.169898 147.657595 127.169898 147.657595 58.4673578 163.657248 58.4673578 163.657248 113.295389 182.901039 113.295389 182.901039 127.169898"></polyline>
        <path d="M217.117604,98.9301666 L232.852162,98.9301666 C232.879472,99.347228 232.903142,99.7931656 232.917707,100.268528 C232.932273,100.744804 232.939556,101.458487 232.939556,102.410125 C232.939556,110.797225 231.109744,117.020613 227.451942,121.080291 C223.792319,125.139785 218.184538,127.169715 210.6286,127.169715 C206.186073,127.169715 202.377152,126.426059 199.207299,124.939296 C196.035626,123.45235 193.47389,121.207127 191.51845,118.202714 C190.154739,116.061299 189.177019,113.08759 188.585289,109.280306 C187.991738,105.47357 187.696784,99.4364155 187.696784,91.1681104 C187.696784,82.8999881 187.991738,76.8626506 188.585289,73.0553667 C189.177019,69.2484483 190.154739,66.2741905 191.51845,64.1327761 C193.444759,61.1590666 195.977363,58.9207887 199.118085,57.4188561 C202.258806,55.9172891 206.007644,55.1657745 210.362777,55.1657745 C217.858632,55.1657745 223.480978,57.2554675 227.229816,61.4339396 C230.976833,65.6125945 232.852162,71.865956 232.852162,80.1931102 L232.852162,80.8623822 L217.296033,80.8177884 C217.23595,76.1489676 216.702482,72.8698639 215.695631,70.9810257 C214.688779,69.0923701 212.999162,68.1476769 210.6286,68.1476769 C208.052299,68.1476769 206.288033,69.3009008 205.341265,71.6053383 C204.392676,73.9106897 203.919292,80.0001142 203.919292,89.8739775 L203.919292,91.1681104 C203.919292,101.78563 204.392676,108.29175 205.341265,110.685558 C206.288033,113.080097 208.052299,114.276818 210.6286,114.276818 C213.030114,114.276818 214.710628,113.407057 215.673782,111.666986 C216.636937,109.927098 217.117604,106.692771 217.117604,101.964187 L217.117604,98.9301666" id="Fill-21" fill="#FBCC47"></path>
        <path d="M270.264069,97.3690194 L270.264069,84.9666532 C270.264069,77.3533647 269.781581,72.6465296 268.820248,70.8468789 C267.855272,69.0477764 266.114676,68.1476769 263.596636,68.1476769 C261.13686,68.1476769 259.434498,69.0700733 258.485909,70.9137695 C257.53732,72.7583795 257.063936,77.4425523 257.063936,84.9666532 L257.063936,97.3690194 C257.063936,104.804298 257.53732,109.46654 258.485909,111.35483 C259.434498,113.243851 261.167812,114.18763 263.685851,114.18763 C266.174759,114.18763 267.893507,113.265965 268.842096,111.421903 C269.788864,109.577841 270.264069,104.893669 270.264069,97.3690194 M240.754034,91.1681104 C240.754034,82.8999881 241.048989,76.8626506 241.64254,73.0553667 C242.23427,69.2484483 243.21199,66.2741905 244.5757,64.1327761 C246.531141,61.0991209 249.092877,58.8464048 252.26455,57.3740796 C255.434403,55.9019371 259.241503,55.1657745 263.685851,55.1657745 C268.159331,55.1657745 271.959148,55.9019371 275.085304,57.3740796 C278.211459,58.8464048 280.753168,61.0991209 282.708608,64.1327761 C284.130581,66.3041634 285.137432,69.2932248 285.730983,73.0999604 C286.322713,76.9072443 286.619489,82.929961 286.619489,91.1681104 C286.619489,99.3764698 286.322713,105.392059 285.730983,109.213598 C285.137432,113.03532 284.130581,116.031875 282.708608,118.202714 C280.782299,121.207127 278.240591,123.45235 275.085304,124.939296 C271.930017,126.426059 268.130199,127.169715 263.685851,127.169715 C259.241503,127.169715 255.434403,126.426059 252.26455,124.939296 C249.092877,123.45235 246.531141,121.207127 244.5757,118.202714 C243.21199,116.061299 242.23427,113.08759 241.64254,109.280306 C241.048989,105.47357 240.754034,99.4364155 240.754034,91.1681104" id="Fill-22" fill="#FBCC47"></path>
        <path d="M295.901458,127.169898 L295.901458,58.4673578 L318.301628,58.4673578 L324.390075,87.6879693 C324.419207,87.8374681 324.663181,89.6734883 325.123821,93.1978577 C325.582639,96.7222271 326.063306,100.25409 326.567642,103.793263 C326.951811,101.14633 327.434299,97.8674095 328.011463,93.9561344 C328.590449,90.0457731 328.923638,87.8818791 329.012853,87.465366 L335.057603,58.4673578 L357.233826,58.4673578 L357.233826,127.169898 L342.123771,127.169898 L343.500226,74.0815715 L332.656089,127.169898 L320.479195,127.169898 L309.635058,74.0815715 L311.013334,127.169898 L295.901458,127.169898" id="Fill-23" fill="#FBCC47"></path>
        <path d="M419.704137,63.5545193 C418.664513,65.4906927 417.368169,67.4464217 416.040873,69.0375417 L416.040873,69.0386383 C414.649852,70.7050561 413.226058,71.9717748 412.024391,72.4007156 L412.015287,72.4038226 C411.953383,72.4255712 411.891479,72.4460404 411.829575,72.4626717 L411.820472,72.4648648 L411.818651,72.4655959 C411.574676,72.5348624 411.343446,72.5659319 411.12132,72.5555145 C407.179487,72.3778705 403.024631,63.8891553 403.024631,63.8891553 C403.024631,63.8891553 403.132053,62.8826886 403.898571,62.1721126 C404.568592,61.5520034 405.082031,61.3900769 405.082031,61.3900769 C405.082031,61.3900769 409.327922,65.7664796 410.365726,66.0817429 C411.01936,66.2791251 411.876914,63.2228075 413.105891,59.3844542 C414.334869,55.5462836 418.653589,54.5997627 418.653589,54.5997627 C418.653589,54.5997627 423.023288,57.37609 419.704137,63.5545193" id="Fill-24" fill="#00A793"></path>
        <polyline id="Fill-25" fill="#C8C8C3" points="411.818651 72.4655959 411.820472 72.4648648 411.829575 72.4626717 411.818651 72.4655959"></polyline>
        <path d="M411.820472,72.4648648 C411.864169,72.435623 413.149588,71.7665338 413.351687,70.5243051 C413.535578,69.3867986 412.481389,68.4346121 414.678983,66.8359988 C414.648031,68.0774965 414.615258,69.3712639 414.584306,70.6176962 C413.684877,71.4867262 412.807295,72.1214563 412.024391,72.4007156 L412.015287,72.4038226 L411.829575,72.4626717 L411.820472,72.4648648" id="Fill-26" fill="#00907F"></path>
        <path d="M412.962055,127.259451 L422.202148,127.259451 C422.864886,126.808762 422.023719,122.402752 422.023719,122.402752 C422.023719,122.402752 419.502038,121.442341 419.066889,123.395511 C418.629919,125.347402 415.85516,125.96806 414.385849,126.206015 C413.380818,126.370317 413.064015,126.92445 412.962055,127.259451" id="Fill-27" fill="#213F64"></path>
        <path d="M427.052514,81.5908688 C427.052514,81.5908688 426.761201,87.0017005 426.397059,93.2709622 C426.134878,97.7663425 425.836281,102.704188 425.579562,106.401815 C425.546789,106.892529 425.512195,107.361678 425.479423,107.804874 C425.470319,107.94231 425.461216,108.07865 425.450291,108.21499 C424.787554,116.506323 422.577214,123.77072 422.577214,123.77072 C419.979064,124.320284 418.804707,123.315096 418.804707,123.315096 C418.804707,123.315096 417.014951,102.257702 416.352214,93.7647833 C415.864264,87.5130667 415.449143,78.410639 415.449143,78.410639 L427.052514,81.5908688" id="Fill-28" fill="#004542"></path>
        <path d="M425.579562,106.401815 C423.880841,102.3807 420.412392,86.7070893 420.412392,86.7070893 L426.397059,93.2709622 C426.134878,97.7663425 425.836281,102.704188 425.579562,106.401815" id="Fill-29" fill="#073F3B"></path>
        <path d="M426.666524,127.259451 L435.906617,127.259451 C436.567534,126.808762 435.728188,122.402752 435.728188,122.402752 C435.728188,122.402752 433.206507,121.442341 432.769537,123.395511 C432.332567,125.347402 429.557809,125.96806 428.090318,126.206015 C427.083466,126.370317 426.766663,126.92445 426.666524,127.259451" id="Fill-30" fill="#213F64"></path>
        <path d="M417.958078,80.5145874 C417.958078,80.5145874 424.556324,97.0011208 426.666524,103.250644 C428.168608,107.702162 432.405396,123.318569 432.405396,123.318569 C432.405396,123.318569 434.247952,123.881656 435.797375,122.793313 C435.797375,122.793313 437.374108,106.838797 434.18969,102.339945 C432.500073,99.9532645 433.769106,77.5288156 426.919603,77.337099 C420.070099,77.1450168 417.958078,80.5145874 417.958078,80.5145874" id="Fill-31" fill="#004542"></path>
        <path d="M431.469552,75.2119503 C431.442241,77.5562298 431.416751,79.277476 431.422213,79.7126307 C431.440421,81.1312241 430.537349,81.4512391 429.605147,81.667263 C429.605147,81.667263 428.745773,81.853314 427.65881,82.0382685 C426.595517,82.2170091 425.313738,82.3935565 424.407026,82.387502 C419.775145,82.3502421 415.897037,80.981177 415.897037,80.981177 C415.024918,80.981177 414.628003,79.6278294 414.485988,77.7380773 C414.38767,76.4589308 414.780943,63.703287 414.831923,60.5179399 C414.864695,58.2337889 416.113701,56.1228956 416.463277,55.8138462 C419.698675,52.9426658 429.244647,53.3043504 430.963395,55.2847521 C431.38762,55.7745525 431.511428,60.4972879 431.525994,65.6705299 C431.535097,69.0002584 431.500504,72.5175001 431.469552,75.2119503" id="Fill-32" fill="#00A793"></path>
        <path d="M425.737963,54.1483422 C424.518089,55.4739101 420.425137,55.2776244 420.547125,54.1203797 C420.563511,53.9778259 420.589001,53.1305444 420.603567,52.9995045 C420.614491,52.8940513 420.623595,52.7907911 420.632698,52.6937449 C420.660009,52.4084544 420.681857,52.1562438 420.701885,51.9383923 C420.754686,51.3040277 420.772893,50.9598882 420.772893,50.9598882 L420.776534,50.9598882 C420.89488,50.9268084 423.525803,50.1767559 424.834892,49.8658789 C425.275503,49.7615222 425.566817,49.7066938 425.561355,49.7448909 C425.160799,52.696669 426.136698,53.7133703 425.737963,54.1483422" id="Fill-33" fill="#EEA073"></path>
        <path d="M424.975087,50.7367366 C424.975087,50.7367366 423.875379,51.8577946 420.701885,51.9383923 C420.754686,51.3040277 420.772893,50.9598882 420.772893,50.9598882 L420.776534,50.9598882 C420.89488,50.9268084 423.525803,50.1767559 424.834892,49.8658789 C425.066122,49.9609148 424.760243,50.5777342 424.975087,50.7367366" id="Fill-34" fill="#EA8A59"></path>
        <path d="M419.96814,50.8028962 C419.96814,50.8028962 420.772893,51.0925729 421.79613,51.2307405 C423.294573,51.4337883 425.2664,51.3140796 425.88362,49.4943251 C426.926886,46.4312453 428.259644,44.5946768 425.191751,43.3438583 C423.547652,42.6742208 422.497103,42.6387651 421.783386,42.8942654 C421.164345,43.1148584 420.798383,43.5554959 420.521635,43.9913817 C419.926263,44.9287645 418.728238,50.2666745 419.96814,50.8028962" id="Fill-35" fill="#EEA073"></path>
        <path d="M420.752865,41.6207845 C419.656799,42.34324 420.015478,44.0365237 421.30636,44.2644271 C422.080161,44.4009498 422.728333,44.4281812 423.10522,44.5959561 C423.868096,44.9362577 424.523551,45.2970286 424.343301,46.4851599 C424.281397,46.889428 424.086581,47.3816042 425.122564,47.1370696 C425.29189,47.0974104 425.413877,47.1091071 425.49763,47.159732 C425.927317,47.4157806 425.379284,48.6565472 425.213599,48.9252064 C425.213599,48.9252064 424.975087,49.8137919 425.503092,50.2465707 C425.568637,50.2982922 426.606441,50.7542817 429.111735,46.9066075 C429.505008,46.3025814 429.881895,44.9419233 429.273778,43.6318901 C428.665662,42.321857 426.972403,40.6649428 423.780702,40.6649428 C422.950459,40.6649428 421.701454,40.9950098 420.752865,41.6207845" id="Fill-36" fill="#1F3556"></path>
        <path d="M419.94447,48.8254187 C419.94447,48.8254187 419.880746,49.2220107 420.800203,49.5383706 C420.800203,49.5383706 421.570363,49.8041056 421.710557,49.3974616 C421.710557,49.3974616 421.098799,48.8120771 419.94447,48.8254187" id="Fill-37" fill="#FFFFFE"></path>
        <path d="M430.211443,77.6468794 C430.065786,77.6468794 429.931054,77.5417917 429.81999,77.3288747 C428.32701,74.4876672 428.345217,73.2966116 428.991568,71.281668 C429.63974,69.2669072 427.367497,66.1157365 428.991568,64.7726235 C429.366634,64.4633913 429.703465,64.3444137 429.99842,64.3444137 C430.959754,64.3444137 431.496862,65.5985219 431.525994,65.6705299 C431.527815,66.0607253 431.527815,66.4534794 431.527815,66.8471473 C431.527815,69.8133636 431.496862,72.8331289 431.469552,75.2119503 C431.125438,76.8160464 430.622923,77.6468794 430.211443,77.6468794" id="Fill-38" fill="#00907F"></path>
        <g id="Group-42" transform="translate(426.071095, 55.285118)">
            <mask id="mask-2" fill="white">
                <use xlink:href="#path-1"></use>
            </mask>
            <g id="Clip-40"></g>
            <path d="M5.32744945,19.6470251 C5.32744945,19.6470251 4.22956255,21.4499655 3.50856219,21.3863646 C2.78756184,21.3227636 1.8171245,21.0531907 1.25634645,21.590509 C0.693747687,22.12801 -0.209323462,23.5142547 0.0437549449,23.8832498 C0.296833351,24.2524277 1.31278839,23.9251021 2.04107158,23.5210168 C2.77117547,23.1167488 3.9218629,23.7200439 4.53362078,23.2609475 C5.14719936,22.801851 6.61286927,20.9788068 6.61286927,20.9788068 L5.32744945,19.6470251" id="Fill-39" fill="#EEA073" mask="url(#mask-2)"></path>
            <path d="M4.89230024,0 C4.89230024,0 14.0067643,8.60933768 12.8233041,14.3365293 C12.2843746,16.9461782 10.611144,19.1477211 6.15040945,22.712298 C6.15040945,22.712298 4.04020892,21.2485625 3.5777491,20.0604312 C3.5777491,20.0604312 7.62518289,14.3365293 7.46860201,13.3620459 C7.27742767,12.16898 4.51359299,9.17754263 3.52312786,8.71259782 C2.53084202,8.24765302 2.62187742,0.998973395 4.89230024,0" id="Fill-41" fill="#00A793" mask="url(#mask-2)"></path>
        </g>
        <path d="M429.579657,76.6714822 C429.579657,76.6714822 428.618323,76.2494863 428.310624,76.0687354 C428.001103,75.8879844 428.07029,76.1807681 428.164967,76.3269771 C428.259644,76.4735517 428.516364,76.8006945 428.89325,76.8352364 C429.270137,76.8694128 429.579657,76.6714822 429.579657,76.6714822" id="Fill-43" fill="#EEA073"></path>
        <path d="M272.359704,78.3230963 C274.53545,77.8563239 276.805873,78.5171888 278.415379,80.0584151 C279.125455,80.7382872 279.904718,81.5875791 280.622077,82.591487 C282.395446,85.0790514 278.998005,87.5410292 279.449541,88.3839244 C279.901076,89.2266369 280.947983,89.8922536 280.490986,91.6516969 C280.032167,93.4111402 277.009792,95.6947429 276.024789,95.7963582 C266.040027,96.8254872 261.706742,91.3000641 265.04592,88.3212373 C268.383278,85.3425932 267.021388,81.0215673 269.730602,79.3429045 C270.568127,78.8245934 271.487585,78.5102439 272.359704,78.3230963" id="Fill-44" fill="#1F3556"></path>
        <path d="M277.508666,93.9022198 C277.508666,93.9022198 286.841615,97.843285 288.547618,97.7685356 C290.255442,97.6936035 300.773672,94.5526674 300.773672,94.5526674 L300.506028,96.3687667 C300.506028,96.3687667 292.387491,101.054767 289.550828,101.320685 C286.756042,101.582399 277.204608,98.8038785 276.281509,98.2172147 C275.35841,97.6303681 274.828584,94.4960114 277.508666,93.9022198" id="Fill-45" fill="#EB9163"></path>
        <path d="M278.581063,98.2221492 C277.754462,98.7971164 276.720299,99.271382 275.420314,99.5725727 C270.546279,100.702586 268.680053,96.5685248 267.97726,93.7309725 C268.641818,93.3491841 269.268142,93.2649311 269.628642,93.2217994 C269.981859,93.1799471 270.351463,93.1523501 270.659163,93.1371809 C271.205375,92.7164644 272.021052,90.9946699 272.201302,88.3212373 L272.430711,88.3830106 L276.270585,89.4382745 C276.270585,89.4382745 276.093976,90.6636892 276.008403,91.8218477 C275.941036,92.7279783 275.931933,93.594267 276.103079,93.8062701 C276.401676,93.8715159 276.581926,93.9140993 276.581926,93.9140993 L276.583746,93.9177545 C276.634726,94.0025558 277.748999,95.841683 278.581063,98.2221492" id="Fill-46" fill="#EEA073"></path>
        <path d="M276.270585,89.4388228 C276.270585,89.4388228 276.093976,90.6633237 276.008403,91.822396 C273.832657,91.6038134 272.823984,89.5243551 272.430711,88.3839244 L276.270585,89.4388228" id="Fill-47" fill="#EA8B5A"></path>
        <path d="M276.920577,90.5891226 C276.920577,90.5891226 271.75705,90.3031011 271.982817,87.0777292 C272.210406,83.8519919 271.696966,81.642773 275.003372,81.6890116 C278.309777,81.7352502 278.863273,83.0114726 279.048985,84.1065784 C279.234697,85.2016843 278.269722,90.5805328 276.920577,90.5891226" id="Fill-48" fill="#EEA073"></path>
        <path d="M279.023495,82.3023586 C278.295212,81.2746917 277.677992,81.4441114 277.319312,81.7114913 C274.61192,79.9525963 272.629169,82.122156 272.629169,82.122156 C272.11937,84.4116071 270.362387,85.6174663 270.362387,85.6174663 C270.362387,85.6174663 271.278203,86.3521668 273.468515,85.8647423 C276.270585,85.2411607 277.233739,82.8016626 277.36483,82.4268191 C277.657964,82.7333098 278.038492,82.9283162 278.331626,83.5932018 C278.677561,84.3830963 278.896045,84.8414617 278.901508,86.1387016 C278.901508,86.1387016 280.11592,83.8432193 279.023495,82.3023586" id="Fill-49" fill="#1F3556"></path>
        <g id="Group-53" transform="translate(263.650667, 92.594051)">
            <mask id="mask-4" fill="white">
                <use xlink:href="#path-3"></use>
            </mask>
            <g id="Clip-51"></g>
            <path d="M2.85728168,16.1677613 C2.38935974,13.7745018 0.869068588,4.21334311 2.38935974,1.13673899 C2.93557212,0.0313985052 5.07854539,-0.0683891775 7.43090008,0.028474324 C8.16100397,0.502739959 10.9503286,2.29434922 12.0955539,2.07064936 C12.1064781,2.06845622 12.1301473,2.06297338 12.1592787,2.05566293 C12.6982082,1.92023679 12.9021275,1.53991047 12.4524126,1.21221942 C12.4505919,1.21148837 13.615845,1.09945568 15.0633079,1.37286662 C15.878985,1.52711718 18.0820417,2.67138583 18.0820417,2.67138583 C18.0820417,2.67138583 16.9732305,4.68322248 15.336414,5.37771551 C15.6149824,7.87551452 15.2016817,8.97738254 12.6199178,14.746792 C10.4387096,19.6235952 12.9148725,24.0140704 12.9148725,24.0140704 C12.9148725,24.0140704 0.0734192092,34.3779168 0.000590890757,29.1010491 C-0.0522096401,25.128549 3.45265318,19.2264548 2.85728168,16.1677613" id="Fill-50" fill="#00A793" mask="url(#mask-4)"></path>
            <path d="M13.5502995,35.2833164 C14.2494514,35.2041808 14.8775956,34.820382 15.2690479,34.2337181 C15.3309519,34.1408754 15.3964974,34.0407222 15.467505,33.9338068 C16.9277128,31.7127084 17.4975944,24.910332 20.785793,17.6636627 C21.5869045,15.8994677 24.4599816,15.582194 25.2447068,13.5877197 C25.2447068,13.5877197 27.1728365,7.12363443 21.552311,6.93283161 C15.9299648,6.74221155 6.49505619,24.9191045 6.34575813,26.8253051 C6.20192221,28.6721083 2.62969319,36.5206106 13.5502995,35.2833164" id="Fill-52" fill="#042524" mask="url(#mask-4)"></path>
        </g>
        <path d="M299.546515,127.728782 L291.544504,127.728782 C291.544504,127.728782 291.245908,126.447808 291.770271,125.575854 C292.236373,124.804601 292.057943,124.36506 291.71383,123.72704 C292.07615,123.875991 292.544072,124.011417 293.061153,123.98181 C293.459888,123.958782 293.880472,123.777117 294.251896,123.561824 C294.59601,123.955857 296.070784,125.633424 296.531423,125.965866 C297.053966,126.342903 299.386293,126.208574 299.546515,127.728782" id="Fill-54" fill="#15253B"></path>
        <path d="M274.377048,103.796187 C267.716899,101.885783 266.82111,98.2172147 266.82111,98.2172147 L269.324584,97.7875428 L277.887373,100.087594 C277.887373,100.087594 277.962022,100.156861 278.08401,100.278031 C276.90237,101.115992 275.64062,102.349631 274.377048,103.796187" id="Fill-55" fill="#00907F"></path>
        <g id="Group-59" transform="translate(263.223356, 99.113476)">
            <mask id="mask-6" fill="white">
                <use xlink:href="#path-5"></use>
            </mask>
            <g id="Clip-57"></g>
            <path d="M25.8540884,2.28195805 C26.336576,5.90794271 28.2173673,17.3524568 31.536518,22.9361808 C32.6070942,24.7363798 28.8418702,25.7454051 28.8218424,25.7401258 C28.3156856,25.6074203 27.4745185,24.7990669 27.0867077,24.448348 C24.3920599,22.0104947 18.9207315,15.1075995 18.9207315,9.57358658 C18.9207315,6.87511563 18.8734941,1.72161183 20.8289344,0.411944182 C22.0324224,-0.394764301 25.6629141,0.841798815 25.8540884,2.28195805" id="Fill-56" fill="#042524" mask="url(#mask-6)"></path>
            <path d="M20.3810403,7.10484662 C19.5981359,9.10078303 17.3950792,8.85551734 16.5939677,10.6204434 C16.1460736,11.6104615 15.7236693,12.6006624 15.3285757,13.5797148 C15.2866994,13.6782231 15.2484645,13.7728935 15.2138711,13.8644569 C14.7259214,15.0743369 14.2780272,16.2648442 13.8610851,17.4105749 C13.2183752,19.1703837 12.652135,20.8225461 12.1423368,22.2778745 C11.3175561,24.6373232 10.6366113,26.4793745 10.021212,27.4138332 C9.50413092,28.2015345 9.20735552,28.6149406 9.20735552,28.6149406 C-3.05147118,30.5141963 0.227623861,22.2868298 0.901285807,20.304966 C1.51304368,18.4952634 12.196958,-0.190071618 17.8193042,0.00146224896 C23.4398297,0.191351264 20.3810403,7.10484662 20.3810403,7.10484662" id="Fill-58" fill="#004542" mask="url(#mask-6)"></path>
        </g>
        <path d="M293.672911,127.728782 L285.6709,127.728782 C285.6709,127.728782 285.372304,126.447808 285.896668,125.575854 C286.362769,124.804601 286.184339,124.36506 285.840226,123.72704 C286.202547,123.875991 286.670468,124.011417 287.18755,123.98181 C287.586285,123.958782 288.006868,123.777117 288.376472,123.561824 C288.720586,123.955857 290.195359,125.633424 290.657819,125.965866 C291.180362,126.342903 293.510868,126.208574 293.672911,127.728782" id="Fill-60" fill="#1F3556"></path>
        <path d="M277.084441,116.524051 C275.391183,111.894707 276.270585,107.340477 276.270585,107.340477 C277.490459,108.187393 278.21328,110.290793 278.551932,112.693191 C278.510055,112.791699 278.471821,112.88637 278.437227,112.977933 C277.949277,114.187813 277.501383,115.37832 277.084441,116.524051" id="Fill-61" fill="#133A49"></path>
        <path d="M284.407328,101.138472 C284.889816,104.764456 285.567119,116.465933 288.88627,122.049657 C289.956846,123.849856 286.189802,124.858881 286.169774,124.853602 C285.665438,124.720896 284.824271,123.912543 284.43646,123.561824 C281.741812,121.123971 276.270585,114.221076 276.270585,108.687063 C276.270585,105.988592 279.425871,101.05166 281.379491,99.7418097 C282.5848,98.9351012 284.216154,99.6983125 284.407328,101.138472" id="Fill-62" fill="#004542"></path>
        <path d="M301.727723,89.8800086 L293.534537,89.0062267 C293.294204,88.9808229 293.068436,89.120087 292.982863,89.3454318 L290.051523,97.0787944 C289.922253,97.4178167 290.164407,97.7835221 290.524907,97.798143 L298.656189,98.1274789 C298.876495,98.1362514 299.080414,98.0064909 299.165987,97.8017982 L302.161052,90.6126988 C302.297605,90.284825 302.080941,89.9174747 301.727723,89.8800086" id="Fill-63" fill="#1F3556"></path>
        <path d="M302.43962,89.954758 L294.244614,89.0809761 C294.006101,89.0555723 293.780333,89.1948364 293.69476,89.4201811 L290.76342,97.1535438 C290.63415,97.492566 290.874483,97.8582714 291.236804,97.8728924 L299.368086,98.2022283 C299.588391,98.2111836 299.792311,98.081423 299.877884,97.8765476 L302.872949,90.6874482 C303.009502,90.3597571 302.792837,89.9922241 302.43962,89.954758" id="Fill-64" fill="#004542"></path>
        <path d="M297.898774,93.5655735 C297.998913,93.2896039 297.856898,93.0657213 297.581971,93.0657213 C297.307044,93.0657213 297.002986,93.2896039 296.902847,93.5655735 C296.802708,93.8415431 296.944723,94.0654257 297.21965,94.0654257 C297.494577,94.0654257 297.798636,93.8415431 297.898774,93.5655735" id="Fill-65" fill="#E0EEF2"></path>
        <path d="M302.195645,90.6854378 C302.244804,90.5500116 302.173797,90.4399893 302.039064,90.4399893 C301.904332,90.4399893 301.755034,90.5500116 301.705875,90.6854378 C301.656716,90.8210467 301.725903,90.931069 301.860635,90.931069 C301.997188,90.931069 302.146486,90.8210467 302.195645,90.6854378" id="Fill-66" fill="#E0EEF2"></path>
        <path d="M267.97726,93.7309725 C267.97726,93.7309725 279.334836,97.9293656 281.040839,97.843285 C282.144188,97.7875428 291.313274,94.5526674 291.313274,94.5526674 L292.136234,96.1156422 C292.136234,96.1156422 283.212944,101.872624 280.75863,101.844113 C275.915547,101.788005 267.744209,98.8038785 266.82111,98.2172147 C265.899832,97.6303681 265.297178,94.3245813 267.97726,93.7309725" id="Fill-67" fill="#EEA073"></path>
        <path d="M291.313274,94.5526674 C291.313274,94.5526674 292.136234,93.2811969 292.955552,93.2439135 C293.774871,93.2066302 295.191382,93.8048081 295.67569,93.8981991 C296.158178,93.9917729 297.538274,94.4404519 297.128615,95.1133791 C296.717135,95.7866718 294.818137,95.9361706 293.998818,95.7866718 C293.179499,95.6371731 292.136234,96.1156422 292.136234,96.1156422 L291.313274,94.5526674" id="Fill-68" fill="#EEA073"></path>
        <path d="M292.731605,93.2830245 C292.731605,93.2830245 294.035232,92.6828363 294.408477,92.5708036 C294.779902,92.4585881 294.707073,92.5726312 294.594189,92.9268227 C294.483126,93.2811969 293.813106,93.6194881 293.813106,93.7309725 C293.813106,93.8420914 292.731605,93.2830245 292.731605,93.2830245" id="Fill-69" fill="#EEA073"></path>
        <path d="M301.596632,93.8795574 C301.596632,93.8795574 300.773672,92.5748243 300.506028,92.521458 C299.684889,92.3589832 299.684889,93.4425751 299.859677,94.1412716 C300.045389,94.8911414 300.677175,95.5987932 300.851963,95.5368371 C301.026751,95.4750638 301.789627,94.5691159 301.596632,93.8795574" id="Fill-70" fill="#EEA073"></path>
        <path d="M301.627584,94.1412716 C301.627584,94.1412716 301.889766,95.6050071 300.506028,96.3687667 L300.915688,95.361569 L301.627584,94.1412716" id="Fill-71" fill="#EEA073"></path>
        <path d="M277.887373,88.7340951 C277.887373,88.7340951 277.399424,88.5403681 276.024789,88.6522181 C276.024789,88.6522181 276.097617,89.1900846 277.111752,89.2432682 C277.685275,89.2734238 277.887373,88.7340951 277.887373,88.7340951" id="Fill-72" fill="#FFFFFE"></path>
        <path d="M273.829015,95.8012928 C273.829015,95.8012928 272.81306,99.0292233 269.324584,99.763741 C269.324584,99.763741 263.563864,97.9821836 266.433299,94.0425805 C266.433299,94.0425805 269.268142,91.927301 273.829015,95.8012928" id="Fill-73" fill="#00A793"></path>
        <path d="M272.206764,39.9624083 C272.206764,39.9624083 271.16714,41.8993128 269.284528,42.6480859 C267.888045,43.2038631 265.943529,42.6500963 265.850673,42.5945369 L265.745072,44.9914516 C265.745072,44.9914516 268.924028,45.2060134 270.790254,43.7245501 C271.361956,43.2703882 272.06657,42.1008985 272.286876,41.3841086 C272.52903,40.5942142 272.206764,39.9624083 272.206764,39.9624083" id="Fill-74" fill="#4CB5B2"></path>
        <path d="M270.178496,36.1386759 L272.266848,33.6509287 C272.266848,33.6509287 274.763038,39.3874412 271.072463,43.4560737 C271.072463,43.4560737 271.997383,38.1594678 270.178496,36.1386759" id="Fill-75" fill="#6BC1B8"></path>
        <path d="M50.7132713,36.7808992 C50.7132713,36.7808992 48.7228733,35.2720217 48.2092516,33.018209 C47.8279954,31.3453946 48.7844132,29.2460153 48.8625216,29.1507967 L46.1955486,28.6176819 C46.1955486,28.6176819 45.4055434,32.1700137 46.7430355,34.5322038 C47.1528768,35.2561214 48.3416171,36.2525362 49.1066786,36.6250037 C49.9496663,37.0356684 50.7132713,36.7808992 50.7132713,36.7808992" id="Fill-76" fill="#4CB5B2"></path>
        <path d="M55.3475192,35.1519475 L57.7737947,37.9386921 C57.7737947,37.9386921 50.9155519,39.7668537 46.9952035,34.8964471 C46.9952035,34.8964471 52.7690326,36.8563796 55.3475192,35.1519475" id="Fill-77" fill="#6BC1B8"></path>
        <path d="M360.738689,46.8314926 C360.738689,46.8314926 356.452742,46.4228383 356.789573,41.8960231 L353.754453,40.9685094 C353.754453,40.9685094 353.38667,43.6434041 358.351741,46.5323123 C361.599884,48.4226127 360.738689,46.8314926 360.738689,46.8314926" id="Fill-78" fill="#4F75AC"></path>
        <path d="M364.948166,47.2465436 C364.948166,47.2465436 361.647222,49.6684967 356.110449,44.9691547 C356.110449,44.9691547 358.351741,46.5323123 362.249877,45.2049169 L364.948166,47.2465436" id="Fill-79" fill="#00A793"></path>
        <path d="M149.047705,46.8314926 C149.047705,46.8314926 144.762123,46.4228383 145.099318,41.8960231 L142.063652,40.9685094 C142.063652,40.9685094 141.695687,43.6434041 146.660939,46.5323123 C149.909447,48.4226127 149.047705,46.8314926 149.047705,46.8314926" id="Fill-80" fill="#4F75AC"></path>
        <path d="M153.257546,47.2465436 C153.257546,47.2465436 149.957331,49.6684967 144.419648,44.9691547 C144.419648,44.9691547 146.660939,46.5323123 150.559075,45.2049169 L153.257546,47.2465436" id="Fill-81" fill="#00A793"></path>
        <g id="Group-85" transform="translate(183.744027, 0.000000)" fill="#EA8847">
            <path d="M64.2200112,27.869457 C64.2200112,27.869457 61.8093939,26.3410241 61.5544947,24.4944036 C61.5544947,24.4944036 59.2076022,24.6217883 58.7014454,25.3859134 C58.7014454,25.3859134 59.7793045,28.4424138 61.0483379,29.0155533 C61.0483379,29.0155533 63.903208,29.2065389 64.2200112,27.869457" id="Fill-82"></path>
            <path d="M0,3.3748706 C0,3.3748706 2.41061734,1.84662041 2.66369575,0 C2.66369575,0 5.01058831,0.127384643 5.51856583,0.891509737 C5.51856583,0.891509737 4.44070672,3.94801011 3.17167327,4.52114963 C3.17167327,4.52114963 0.316803185,4.71213521 0,3.3748706" id="Fill-84"></path>
        </g>
        <path d="M203.47686,41.9320271 C203.47686,41.9320271 205.581598,40.5971384 205.803724,38.9840869 C205.803724,38.9840869 207.853842,39.0953886 208.298094,39.7628329 C208.298094,39.7628329 207.354968,42.4324276 206.247977,42.9331936 C206.247977,42.9331936 203.753607,43.1000547 203.47686,41.9320271" id="Fill-86" fill="#6BC1B8"></path>
        <path d="M179.575334,72.7872558 C175.448517,71.7330885 170.912223,65.3070176 170.912223,65.3070176 L172.074199,64.2950682 C173.277323,65.7189616 178.279172,68.1708875 178.279172,68.1708875 C178.252407,66.8677993 178.286273,65.6794852 178.368204,64.5979037 C178.923338,57.2468777 181.684078,54.7976932 182.436758,54.2603749 C182.558746,54.173015 182.629753,54.1366455 182.629753,54.1366455 C182.629753,54.1366455 182.631574,54.1900118 182.635216,54.2912616 C182.64614,54.5096614 182.666168,54.9497506 182.688016,55.5537768 C182.840956,60.0529951 183.023026,73.6690792 179.575334,72.7872558" id="Fill-87" fill="#EEA073"></path>
        <path d="M182.882832,62.7534764 C182.873728,63.1560996 182.859163,63.5603676 182.842776,63.9650012 C182.709865,67.2362461 182.356647,70.486839 181.556628,72.3895672 C181.359445,72.8563396 181.137137,73.2425143 180.882602,73.5268909 C180.513727,73.9423074 180.08058,74.1429793 179.572785,74.0678644 C176.784917,73.6593929 176.058636,71.047368 175.910977,69.105529 C175.818667,67.8969283 175.951761,66.947666 175.951761,66.947666 C175.951761,66.947666 177.323846,66.9418176 177.545244,66.7362112 C178.001696,66.3131187 178.20161,64.279899 178.324143,62.0262691 C178.485276,59.0730289 178.527152,55.7528039 178.808634,55.1809437 C179.612476,53.547423 182.715327,53.547423 182.715327,53.547423 C182.715327,53.547423 183.004819,57.9967474 182.882832,62.7534764" id="Fill-88" fill="#00A793"></path>
        <path d="M186.16921,46.0671848 C186.16921,46.0671848 183.871476,47.4260152 185.282525,50.0592404 C185.282525,50.0592404 183.270643,49.6895142 182.835493,49.0864018 C182.835493,49.0864018 182.886473,49.3376987 182.961122,49.4641695 C182.961122,49.4641695 181.110737,49.0434529 180.505533,48.2687277 C179.90033,47.4940024 182.868266,38.2119203 187.676756,40.6155973 C187.676756,40.6155973 192.073766,41.4345507 190.351376,46.3349301 C188.628986,51.2351267 190.256699,51.6679055 190.256699,51.6679055 C190.256699,51.6679055 189.74508,51.7715312 189.526595,51.7135959 C189.526595,51.7135959 189.240744,51.5061618 189.224358,51.312252 C189.224358,51.312252 189.213433,51.6074115 189.271696,51.7177994 C189.271696,51.7177994 187.471016,51.4178881 186.770043,50.5190679 C186.06725,49.6202477 185.646667,47.0336267 186.16921,46.0671848" id="Fill-89" fill="#1F3556"></path>
        <path d="M182.85188,53.9560773 L182.842776,53.9591843 C182.830031,53.9571739 182.831852,53.9560773 182.85188,53.9560773" id="Fill-90" fill="#EEA073"></path>
        <path d="M188.437812,52.3417465 C188.505178,52.9492452 188.585289,53.4942394 188.621703,53.7539433 C188.701814,54.3356726 183.201456,53.9571739 182.85188,53.9560773 C183.095855,53.8493447 183.842345,51.4736303 184.079037,50.5674996 C184.364888,49.468373 184.588835,48.2811555 184.588835,48.2811555 L188.474226,48.527335 L188.705456,48.5417731 C188.56162,49.0734258 188.45966,49.5751056 188.388653,50.041147 C188.379549,50.1036514 188.370446,50.1672523 188.361342,50.2288429 C188.292155,50.7460574 188.354059,51.5916941 188.437812,52.3417465" id="Fill-91" fill="#EEA073"></path>
        <path d="M184.053547,47.8880358 C184.053547,47.8880358 183.423582,45.8835096 183.551032,44.3464869 C183.642067,43.2491879 185.198772,39.5056877 188.940327,41.0986354 C188.940327,41.0986354 190.040035,41.5105795 190.912154,42.512477 C191.605844,43.3094992 192.497991,44.8691843 190.242133,47.8969911 L189.586679,48.9482343 L184.053547,47.8880358" id="Fill-92" fill="#1F3556"></path>
        <path d="M178.269704,73.6553721 C176.544401,72.7490587 176.032418,70.7010353 175.910977,69.105529 C175.887308,68.7941037 175.878386,68.4996752 175.878386,68.2343057 C175.878568,67.4705462 175.951761,66.947666 175.951761,66.947666 C175.951761,66.947666 177.323846,66.9418176 177.545244,66.7362112 C177.99769,66.3167739 178.198332,64.3142581 178.321048,62.0834734 C178.328695,64.9972372 178.575401,67.6768837 178.759475,69.2753142 C178.870174,70.2366388 178.957568,70.8077679 178.957568,70.8077679 C178.957568,70.8077679 178.655512,71.8317796 178.269704,73.6553721" id="Fill-93" fill="#00907F"></path>
        <path d="M188.437812,52.3417465 C185.721316,51.5428968 184.568807,48.3928226 184.568807,48.3928226 C185.717674,48.4266335 187.214296,49.2273108 188.388653,50.041147 C188.379549,50.1036514 188.370446,50.1672523 188.361342,50.2288429 C188.292155,50.7460574 188.354059,51.5916941 188.437812,52.3417465" id="Fill-94" fill="#EA8A59"></path>
        <path d="M188.628986,51.2351267 C188.628986,51.2351267 183.722178,50.017388 184.52329,46.9608876 C185.326222,43.9042045 185.233366,41.6884062 188.401398,42.3366606 C191.56943,42.9850978 191.869846,44.3117623 191.847998,45.3973645 C191.82797,46.4829668 189.927151,51.473082 188.628986,51.2351267" id="Fill-95" fill="#EEA073"></path>
        <path d="M192.152056,43.6598526 C190.690028,41.3396976 188.94761,41.0986354 188.940327,41.0986354 C187.693142,40.2593954 186.043581,42.3192983 186.043581,42.3192983 C185.138689,44.4250743 183.232408,45.2624867 183.232408,45.2624867 C183.232408,45.2624867 183.977077,46.0514673 186.16921,46.0671848 C186.83923,46.0717538 187.518354,45.7731218 188.137395,45.3569743 C186.937548,46.5343227 185.541065,47.2412435 185.541065,47.2412435 C188.171988,46.7762987 190.014545,43.8654591 190.340452,43.3164441 C190.693669,43.8881215 191.046886,44.5528244 191.065093,44.965134 C191.103328,45.8080292 190.790167,47.4388085 191.270833,47.5080751 C191.270833,47.5080751 193.135238,45.2222792 192.152056,43.6598526" id="Fill-96" fill="#1F3556"></path>
        <path d="M187.864289,49.2755598 C187.864289,49.2755598 187.924372,49.7410529 188.221148,49.8510752 C188.516102,49.9609148 189.300827,50.1603074 189.380939,50.1109618 C189.46105,50.0616163 189.754184,49.698835 189.754184,49.698835 C189.754184,49.698835 188.517923,49.2227418 187.864289,49.2755598" id="Fill-97" fill="#FFFFFE"></path>
        <path d="M186.030836,96.0317548 C185.968932,96.293469 185.907028,96.5520763 185.845124,96.8086732 C185.47552,98.3520925 185.129585,99.783662 184.912913,100.981297 C184.630711,102.540068 184.565166,103.699689 184.93477,104.187113 C186.458702,106.193284 184.93477,122.113989 184.93477,122.113989 L183.199635,123.907791 C183.199635,123.907791 180.184361,108.189221 179.366499,105.726512 C178.994346,104.606916 178.452503,99.8247833 177.974021,94.9430456 C177.949624,94.6986937 177.925954,94.4545246 177.902467,94.2103554 C177.819625,93.3564945 177.739878,92.5057406 177.663226,91.6756386 C177.233903,87.0565289 176.912913,83.1015739 176.912913,83.1015739 C176.912913,83.1015739 180.111714,80.8437405 183.017564,80.5924437 C184.73085,80.4425794 186.340356,80.989584 187.136006,83.1015739 C188.293976,86.1739745 187.12144,91.479353 186.030836,96.0317548" id="Fill-98" fill="#EEA073"></path>
        <path d="M185.542886,97.0886635 C183.303415,94.6381997 181.829552,91.1291823 179.09667,86.2161924 C178.864529,83.7172968 180.827435,81.3426789 183.017564,80.5924437 C184.73085,80.4425794 186.340356,80.989584 187.136006,83.1015739 C188.293976,86.1739745 186.63349,92.5364445 185.542886,97.0886635" id="Fill-99" fill="#EA8A59"></path>
        <path d="M194.699227,65.6725403 L206.380889,68.7012609 L206.380889,70.070326 C206.380889,70.070326 194.755668,69.9334378 194.005537,68.6336392 C193.257226,67.3336579 194.699227,65.6725403 194.699227,65.6725403" id="Fill-100" fill="#EEA073"></path>
        <path d="M206.379068,110.799966 L205.832856,113.062734 C205.832856,113.062734 190.032752,104.870458 187.988097,103.297431 C187.168778,102.66526 186.083636,99.2326366 185.078606,95.3495068 C183.581984,89.5614556 182.26197,82.7731518 182.26197,82.7731518 C182.26197,82.7731518 184.477772,74.2217495 190.407818,79.4554855 C193.956378,82.5872835 193.404703,88.6226107 193.015072,93.3164698 C192.756531,96.4658129 192.570819,99.0118609 193.746996,99.6716293 C196.042909,100.957538 202.777708,106.880832 204.909757,110.956044 L206.379068,110.799966" id="Fill-101" fill="#EEA073"></path>
        <path d="M199.185451,70.5213809 C198.202269,71.5647653 196.86769,72.1824986 194.699227,71.862118 C193.754279,71.7224884 192.086511,70.6608278 191.216212,68.904857 C191.086942,68.6433256 190.753752,67.8737176 190.753752,67.8737176 C190.753752,67.8737176 189.552085,69.0821355 189.508388,69.3111354 L189.506567,69.323746 C189.48654,69.4365097 189.422815,69.9789453 189.388221,70.2742876 C189.382759,70.3208918 189.377297,70.3620131 189.373656,70.3925342 L189.366373,70.4533937 C189.348166,70.6036235 189.455588,71.1586697 189.455588,71.1586697 C189.455588,71.1586697 184.262928,73.4375206 179.670921,71.1943081 L179.644157,71.1818804 C179.412198,71.0691166 179.183882,70.94557 178.957568,70.8077679 C178.957568,70.8077679 178.870174,70.2366388 178.759475,69.2753142 C178.47417,66.7996293 178.03902,61.7318406 178.574126,57.21526 C178.716688,56.0141526 181.769833,54.3762456 182.715327,53.547423 C182.926529,53.3611892 183.143193,52.7990154 183.08493,52.4373307 C183.035771,52.1313883 183.387168,51.6158186 183.680302,51.7088441 C184.248363,51.8914226 185.856048,52.6897241 186.986708,52.3854265 C187.549306,52.2351967 188.263024,51.581825 188.809236,51.7302272 C189.475615,51.9146333 188.771001,53.5258572 189.149709,53.547423 C189.670431,53.5722785 192.011862,53.6099274 192.721938,54.5944626 C193.304564,55.4000745 193.612264,56.9020071 194.626398,59.7483319 L194.628219,59.7554596 C196.530859,65.0935524 199.322004,64.0911065 200.430815,65.6718092 C201.186409,66.7495527 200.771288,68.8386974 199.185451,70.5213809" id="Fill-102" fill="#00A793"></path>
        <path d="M189.515671,69.2848178 C189.632196,69.002086 190.753752,67.8737176 190.753752,67.8737176 C190.753752,67.8737176 190.753752,67.8739004 190.755573,67.8742659 C190.737366,67.8961973 190.220285,68.5678451 189.515671,69.2848178" id="Fill-103" fill="#CF903F"></path>
        <path d="M186.547917,70.9872395 C186.322149,70.9272938 186.123692,70.7799882 185.96347,70.5206499 C184.810962,68.6453359 189.067777,64.1947322 189.683176,64.1947322 C189.723232,64.1947322 189.746901,64.2130083 189.754184,64.251571 C190.176588,66.5176286 190.755573,67.8737176 190.755573,67.8737176 C190.755573,67.8737176 190.755573,67.8739004 190.755573,67.8742659 C190.753752,67.8739004 190.753752,67.8737176 190.753752,67.8737176 C190.753752,67.8737176 189.632196,69.002086 189.515671,69.2848178 C188.933044,69.8787921 188.224789,70.5038358 187.567513,70.8161749 C187.542024,70.821475 187.514713,70.8265923 187.489223,70.8309786 C187.174241,70.8916554 186.859258,70.9433768 186.547917,70.9872395" id="Fill-104" fill="#00907F"></path>
        <path d="M197.814458,88.3418893 L197.808996,88.3437169 C197.71796,88.368938 196.204952,88.8004375 193.96366,89.2747031 C193.417448,89.3911221 192.825718,89.5091859 192.201215,89.6256049 C187.37816,90.5205871 180.576905,91.2598566 176.480494,89.4267605 C176.480494,89.4267605 176.776359,82.5956905 177.580748,77.4312211 C178.22273,73.2995358 178.957568,70.8077679 178.957568,70.8077679 C178.957568,70.8077679 183.121345,71.6705841 187.489223,70.8309786 C187.531099,70.8238509 187.572976,70.8148956 187.613031,70.8059403 C188.186554,70.6931766 188.803774,70.6412724 189.366373,70.4533937 C189.366373,70.4533937 192.619978,75.1002831 194.320519,78.4015009 C195.498517,80.685652 197.814458,88.3418893 197.814458,88.3418893" id="Fill-105" fill="#004542"></path>
        <path d="M192.201215,89.6256049 C184.709002,79.7941422 187.521996,70.8561997 187.521996,70.8561997 C187.551127,70.8381063 187.5839,70.8220233 187.613031,70.8059403 C188.186554,70.6931766 188.803774,70.6412724 189.366373,70.4533937 C189.366373,70.4533937 192.619978,75.1002831 194.320519,78.4015009 C195.498517,80.685652 197.814458,88.3418893 197.814458,88.3418893 L197.808996,88.3437169 C197.71796,88.368938 196.204952,88.8004375 193.96366,89.2747031 C193.417448,89.3911221 192.825718,89.5091859 192.201215,89.6256049" id="Fill-106" fill="#064044"></path>
        <path d="M206.380889,68.7012609 C206.380889,68.7012609 208.523862,67.6416108 209.375953,67.5388989 C210.226224,67.4363698 211.659121,67.4021934 211.659121,67.5388989 C211.659121,67.6757871 210.124264,68.6319944 209.716426,68.7012609 C209.306766,68.7705275 208.523862,69.3518912 208.762375,69.4204267 C209.000888,69.4887795 210.260817,69.1980062 210.279025,69.4204267 C210.295411,69.6426645 209.510686,69.7795527 209.375953,69.9506173 C209.2394,70.1216819 208.762375,70.3269229 207.995857,70.2243938 C207.227518,70.1216819 206.380889,70.070326 206.380889,70.070326 L206.380889,68.7012609" id="Fill-107" fill="#EEA073"></path>
        <path d="M209.503403,111.678317 L209.488837,111.675028 C209.41783,111.6573 209.093744,111.549836 208.877079,111.030794 C208.735064,110.689213 208.693188,110.408674 208.563918,110.070749 L208.03045,109.146525 C207.471493,108.408717 207.276677,108.581609 207.276677,108.581609 C207.276677,108.581609 207.1292,108.769305 206.914356,109.01713 C206.557497,109.425601 206.013106,109.995634 205.625295,110.142026 C205.352189,110.245103 205.179222,110.416533 205.07362,110.575535 C204.938888,110.775294 204.909757,110.955496 204.909757,110.955496 C204.909757,110.955496 206.054982,111.156168 205.954843,111.722728 C205.761848,112.819662 205.807366,113.019237 205.827394,113.055058 L205.832856,113.062551 C205.832856,113.062551 207.788296,114.089122 208.412799,114.29089 C209.525251,114.648371 210.106057,115.407014 210.466557,115.753529 C210.612214,115.89389 210.814313,115.958587 211.01277,115.926421 C211.305904,115.88 211.686432,115.785695 211.770184,115.605127 L209.503403,111.678317" id="Fill-108" fill="#004542"></path>
        <path d="M186.679008,124.705727 L185.743164,125.214352 C185.402692,125.335157 185.122303,125.369882 184.778189,125.502567 C184.253825,125.703421 183.886042,126.098734 183.869656,126.170011 C183.605653,127.247572 183.217842,127.214492 183.217842,127.214492 L179.469915,127.214492 C179.292578,127.12567 179.593177,126.363738 179.737195,126.221184 C180.092779,125.869551 181.156619,126.046464 181.544794,124.941124 C181.763643,124.320101 182.842776,122.389227 182.842776,122.389227 L182.850059,122.382282 C182.886473,122.363458 183.086751,122.323251 184.173714,122.550057 C184.734492,122.666659 184.967542,121.522756 184.967542,121.522756 C184.967542,121.522756 185.145972,121.558212 185.340788,121.698938 C185.495548,121.809508 185.661232,121.98697 185.75773,122.265315 C185.890641,122.657155 186.444137,123.221522 186.83923,123.590518 C187.079564,123.813852 187.263455,123.965727 187.263455,123.965727 C187.263455,123.965727 187.42914,124.16713 186.679008,124.705727" id="Fill-109" fill="#004542"></path>
        <path d="M172.074199,64.2950682 C172.074199,64.2950682 172.247895,63.1038298 171.941105,62.3185044 C171.617565,61.4900474 171.546012,60.5899478 171.287107,60.947429 C171.028202,61.3047274 171.246323,62.3137526 171.019827,62.2814039 C170.91987,62.2669657 170.613445,62.092977 170.492732,61.6077457 C170.339428,60.9916572 170.711763,60.1820246 170.201419,60.2617085 C169.714197,60.3377372 169.060381,62.6107398 169.384103,63.2281075 C169.707825,63.8454753 170.912223,65.3068348 170.912223,65.3068348 L172.074199,64.2950682" id="Fill-110" fill="#EEA073"></path>
        <path d="M189.508388,69.3113182 L189.506567,69.323746 L189.388221,70.2742876 C189.382759,70.3208918 189.377297,70.3620131 189.373656,70.3925342 L189.366373,70.4533937 C186.822844,71.401925 185.042191,71.862118 183.387168,71.862118 C181.595045,71.862118 180.394834,71.5128611 179.670921,71.1943081 L179.644157,71.1818804 C179.321345,71.0404231 179.09667,70.9026211 178.957568,70.8077679 C178.957568,70.8077679 178.870174,70.2366388 178.759475,69.2753142 C179.629773,69.7281968 183.651171,71.4951333 189.508388,69.3113182" id="Fill-111" fill="#1F3556"></path>
        <polyline id="Fill-112" fill="#FBCC47" points="368.181743 127.169898 368.181743 58.4673578 405.426145 58.4673578 405.426145 71.806193 384.09291 71.806193 384.09291 84.4313453 403.780225 84.4313453 403.780225 98.2166664 384.09291 98.2166664 384.09291 113.206202 405.426145 113.206202 405.426145 127.169898 368.181743 127.169898"></polyline>
        <path d="M401.892151,58.4673578 C401.892151,58.4673578 401.2986,57.6615632 400.257155,57.7213261 C399.217531,57.7809063 398.653112,58.437385 399.099185,58.8549946 C399.543438,59.272787 400.524799,59.2428141 401.209386,58.8549946 C401.892151,58.4673578 401.892151,58.4673578 401.892151,58.4673578" id="Fill-113" fill="#EEA073"></path>
    </g>
</svg>