<?xml version="1.0" encoding="UTF-8"?>
<svg width="34px" height="40px" viewBox="0 0 34 40" version="1.1" xmlns="http://www.w3.org/2000/svg" xmlns:xlink="http://www.w3.org/1999/xlink">
    <title>pin-sécurité</title>
    <defs>
        <path d="M13,0 C20.1797017,0 26,5.73710364 26,12.8141796 C26,18.145349 22.6971985,22.7161341 17.9984951,24.6468924 L14.7836515,30.9834021 C14.5914674,31.362276 14.2836322,31.6701113 13.9047582,31.8622953 C12.9196747,32.3619795 11.7160327,31.9684856 11.2163485,30.9834021 L11.2163485,30.9834021 L8.00250937,24.6473051 C3.30327221,22.7167855 0,18.1457288 0,12.8141796 C0,5.73710364 5.82029825,0 13,0 Z" id="path-1"></path>
        <filter x="-26.9%" y="-15.6%" width="153.8%" height="143.7%" filterUnits="objectBoundingBox" id="filter-2">
            <feOffset dx="0" dy="2" in="SourceAlpha" result="shadowOffsetOuter1"></feOffset>
            <feGaussianBlur stdDeviation="2" in="shadowOffsetOuter1" result="shadowBlurOuter1"></feGaussianBlur>
            <feComposite in="shadowBlurOuter1" in2="SourceAlpha" operator="out" result="shadowBlurOuter1"></feComposite>
            <feColorMatrix values="0 0 0 0 0   0 0 0 0 0   0 0 0 0 0  0 0 0 0.5 0" type="matrix" in="shadowBlurOuter1"></feColorMatrix>
        </filter>
    </defs>
    <g id="Page-1" stroke="none" stroke-width="1" fill="none" fill-rule="evenodd">
        <g id="pin-sécurité" transform="translate(4.000000, 2.482707)">
            <g id="Combined-Shape">
                <use fill="black" fill-opacity="1" filter="url(#filter-2)" xlink:href="#path-1"></use>
                <path stroke="#FFFFFF" stroke-width="1" d="M13,0.5 C16.4526124,0.5 19.5786801,1.87890964 21.8413889,4.1092755 C24.1014735,6.33705474 25.5,9.4145267 25.5,12.8141796 C25.5,15.3358399 24.730691,17.6803845 23.4108171,19.6322284 C22.015301,21.6959329 20.0047956,23.3208964 17.637583,24.253165 L17.637583,24.253165 L14.3377386,30.7572125 C14.1936006,31.0413679 13.9627241,31.2722444 13.6785687,31.4163824 C13.3281521,31.5941314 12.9408543,31.6212185 12.5905073,31.521677 C12.2429355,31.422924 11.9315585,31.1997487 11.7288797,30.8752804 L11.7288797,30.8752804 L8.36321863,24.2534806 C5.99582246,23.3213279 3.98513542,21.6963912 2.58947326,19.6326578 C1.26942187,17.6807284 0.5,15.3360249 0.5,12.8141796 C0.5,9.4145267 1.89852652,6.33705474 4.15861113,4.1092755 C6.42131986,1.87890964 9.54738765,0.5 13,0.5 Z" stroke-linejoin="square" fill="#0D3C61" fill-rule="evenodd"></path>
            </g>
            <g id="icon-sécurité" transform="translate(4.000000, 3.942825)" fill="#FFFFFF">
                <path d="M8.94876659,0.873798324 C9.13446171,0.857346033 9.31948593,0.924507117 9.45447226,1.05949345 C9.55595053,1.16012888 11.9159103,3.55370125 16.028646,4.07653349 L16.028646,4.07653349 C16.3656297,4.11011235 16.6013594,4.41367061 16.5671197,4.75080772 C15.9272352,13.6513961 9.52156255,16.7027866 9.25158314,16.8206531 C9.16729886,16.8542353 9.08301459,16.8713551 8.99873031,16.8713551 C8.91444603,16.8713551 8.83016175,16.8542353 8.74587747,16.8206531 C8.47667348,16.7019817 2.07103407,13.6513961 1.4303387,4.75080772 C1.41388641,4.43079717 1.66673924,4.11011572 1.98674979,4.07653349 C5.8682631,3.57985511 8.16221843,1.45316442 8.51360646,1.10708998 L8.56092405,1.05949345 C8.66233489,0.958082603 8.79731785,0.890918147 8.94876659,0.873798324 Z M9.01589227,4.58222399 C7.98735436,4.58222399 7.16163814,5.42506678 7.16163814,6.43647813 L7.16160274,7.53218892 L7.09443828,7.53218892 C6.67301689,7.53218892 6.31875321,7.88645261 6.31875321,8.307874 L6.31875321,10.8028572 C6.31875321,11.2242786 6.67301689,11.5785423 7.09443828,11.5785423 L10.93797,11.5785423 C11.3593914,11.5785423 11.713655,11.2242786 11.713655,10.8028572 L11.7129959,8.30719973 C11.7129959,7.88577833 11.3587323,7.53151465 10.9373109,7.53151465 L10.8701464,7.53217375 L10.8701464,6.43647813 C10.8701464,5.42506678 10.0444302,4.58222399 9.01589227,4.58222399 Z M9.01595801,5.57652395 C9.48808483,5.57652395 9.87592737,5.96436648 9.87592737,6.4364933 L9.87589365,7.53218892 L8.15598866,7.53218892 L8.15598866,6.4364933 C8.15598866,5.96436648 8.5438312,5.57652395 9.01595801,5.57652395 Z" id="Combined-Shape"></path>
            </g>
        </g>
    </g>
</svg>