<?xml version="1.0" encoding="UTF-8"?>
<svg width="34px" height="40px" viewBox="0 0 34 40" version="1.1" xmlns="http://www.w3.org/2000/svg" xmlns:xlink="http://www.w3.org/1999/xlink">
    <title>pin-agriculture</title>
    <defs>
        <path d="M13,0 C20.1797017,0 26,5.73710364 26,12.8141796 C26,18.145349 22.6971985,22.7161341 17.9984951,24.6468924 L14.7836515,30.9834021 C14.5914674,31.362276 14.2836322,31.6701113 13.9047582,31.8622953 C12.9196747,32.3619795 11.7160327,31.9684856 11.2163485,30.9834021 L11.2163485,30.9834021 L8.00250937,24.6473051 C3.30327221,22.7167855 0,18.1457288 0,12.8141796 C0,5.73710364 5.82029825,0 13,0 Z" id="path-1"></path>
        <filter x="-26.9%" y="-15.6%" width="153.8%" height="143.7%" filterUnits="objectBoundingBox" id="filter-2">
            <feOffset dx="0" dy="2" in="SourceAlpha" result="shadowOffsetOuter1"></feOffset>
            <feGaussianBlur stdDeviation="2" in="shadowOffsetOuter1" result="shadowBlurOuter1"></feGaussianBlur>
            <feComposite in="shadowBlurOuter1" in2="SourceAlpha" operator="out" result="shadowBlurOuter1"></feComposite>
            <feColorMatrix values="0 0 0 0 0   0 0 0 0 0   0 0 0 0 0  0 0 0 0.5 0" type="matrix" in="shadowBlurOuter1"></feColorMatrix>
        </filter>
    </defs>
    <g id="Page-1" stroke="none" stroke-width="1" fill="none" fill-rule="evenodd">
        <g id="pin-agriculture" transform="translate(4.000000, 1.954405)">
            <g id="Combined-Shape">
                <use fill="black" fill-opacity="1" filter="url(#filter-2)" xlink:href="#path-1"></use>
                <path stroke="#FFFFFF" stroke-width="1" d="M13,0.5 C16.4526124,0.5 19.5786801,1.87890964 21.8413889,4.1092755 C24.1014735,6.33705474 25.5,9.4145267 25.5,12.8141796 C25.5,15.3358399 24.730691,17.6803845 23.4108171,19.6322284 C22.015301,21.6959329 20.0047956,23.3208964 17.637583,24.253165 L17.637583,24.253165 L14.3377386,30.7572125 C14.1936006,31.0413679 13.9627241,31.2722444 13.6785687,31.4163824 C13.3281521,31.5941314 12.9408543,31.6212185 12.5905073,31.521677 C12.2429355,31.422924 11.9315585,31.1997487 11.7288797,30.8752804 L11.7288797,30.8752804 L8.36321863,24.2534806 C5.99582246,23.3213279 3.98513542,21.6963912 2.58947326,19.6326578 C1.26942187,17.6807284 0.5,15.3360249 0.5,12.8141796 C0.5,9.4145267 1.89852652,6.33705474 4.15861113,4.1092755 C6.42131986,1.87890964 9.54738765,0.5 13,0.5 Z" stroke-linejoin="square" fill="#FFB74D" fill-rule="evenodd"></path>
            </g>
            <g id="icon-agriculture" transform="translate(4.000000, 3.942825)" fill="#FFFFFF">
                <path d="M10.9722768,6.74445336 C14.197198,5.22232941 17,6.69288723 17,6.69288723 C13.7864146,9.62611336 11.7595987,7.99782715 11.1547609,7.34809057 C10.3012323,7.91529774 9.54290606,8.5959712 8.8725449,9.32699474 C11.7174549,7.8534695 14.092937,10.0595031 14.410552,10.3744941 L14.4465272,10.4110792 C10.5711861,12.9614925 8.71604498,10.8915482 8.19796097,10.1138087 C7.33710194,11.1869705 6.65156741,12.3135885 6.12680526,13.3182295 C8.99431641,11.6688128 11.4273576,13.8448718 11.8372414,14.2447591 L11.8940978,14.3018162 L11.8940978,14.3018162 C8.19671853,16.7416312 6.33856292,14.9629005 5.72704705,14.1208489 C5.53084947,14.5348813 5.36615718,14.9140286 5.23172479,15.241959 L5.10733291,15.5522122 C4.87853792,16.1361544 4.76912201,16.493453 4.76912201,16.493453 C4.22738495,16.8544143 4.04719938,16.493453 4.04719938,16.493453 C5.89626961,10.6149799 8.87145776,7.81460224 10.9722768,6.74445336 Z M4.01442989,6.56309833 C7.50668718,10.2659725 5.0994454,12.5387919 4.64219941,12.9151334 L4.59787568,12.9506311 C4.58068546,12.963977 4.57130777,12.9706975 4.5713403,12.9706975 C1.39675387,10.0549898 4.01442989,6.56309833 4.01442989,6.56309833 Z M8.84521111,3.06024226 C10.7702242,7.87344288 7.14416266,8.77797386 7.14476991,8.77797386 C5.39820294,5.18171699 8.84521111,3.06024226 8.84521111,3.06024226 Z" id="Combined-Shape"></path>
            </g>
        </g>
    </g>
</svg>