<?xml version="1.0" encoding="UTF-8"?>
<svg width="34px" height="39px" viewBox="0 0 34 39" version="1.1" xmlns="http://www.w3.org/2000/svg" xmlns:xlink="http://www.w3.org/1999/xlink">
    <title>pin-textile</title>
    <defs>
        <path d="M13,0 C20.1797017,0 26,5.73710364 26,12.8141796 C26,18.145349 22.6971985,22.7161341 17.9984951,24.6468924 L14.7836515,30.9834021 C14.5914674,31.362276 14.2836322,31.6701113 13.9047582,31.8622953 C12.9196747,32.3619795 11.7160327,31.9684856 11.2163485,30.9834021 L11.2163485,30.9834021 L8.00250937,24.6473051 C3.30327221,22.7167855 0,18.1457288 0,12.8141796 C0,5.73710364 5.82029825,0 13,0 Z" id="path-1"></path>
        <filter x="-26.9%" y="-15.6%" width="153.8%" height="143.7%" filterUnits="objectBoundingBox" id="filter-2">
            <feOffset dx="0" dy="2" in="SourceAlpha" result="shadowOffsetOuter1"></feOffset>
            <feGaussianBlur stdDeviation="2" in="shadowOffsetOuter1" result="shadowBlurOuter1"></feGaussianBlur>
            <feComposite in="shadowBlurOuter1" in2="SourceAlpha" operator="out" result="shadowBlurOuter1"></feComposite>
            <feColorMatrix values="0 0 0 0 0   0 0 0 0 0   0 0 0 0 0  0 0 0 0.5 0" type="matrix" in="shadowBlurOuter1"></feColorMatrix>
        </filter>
    </defs>
    <g id="Page-1" stroke="none" stroke-width="1" fill="none" fill-rule="evenodd">
        <g id="pin-textile" transform="translate(4.000000, 1.539311)">
            <g id="Combined-Shape">
                <use fill="black" fill-opacity="1" filter="url(#filter-2)" xlink:href="#path-1"></use>
                <path stroke="#FFFFFF" stroke-width="1" d="M13,0.5 C16.4526124,0.5 19.5786801,1.87890964 21.8413889,4.1092755 C24.1014735,6.33705474 25.5,9.4145267 25.5,12.8141796 C25.5,15.3358399 24.730691,17.6803845 23.4108171,19.6322284 C22.015301,21.6959329 20.0047956,23.3208964 17.637583,24.253165 L17.637583,24.253165 L14.3377386,30.7572125 C14.1936006,31.0413679 13.9627241,31.2722444 13.6785687,31.4163824 C13.3281521,31.5941314 12.9408543,31.6212185 12.5905073,31.521677 C12.2429355,31.422924 11.9315585,31.1997487 11.7288797,30.8752804 L11.7288797,30.8752804 L8.36321863,24.2534806 C5.99582246,23.3213279 3.98513542,21.6963912 2.58947326,19.6326578 C1.26942187,17.6807284 0.5,15.3360249 0.5,12.8141796 C0.5,9.4145267 1.89852652,6.33705474 4.15861113,4.1092755 C6.42131986,1.87890964 9.54738765,0.5 13,0.5 Z" stroke-linejoin="square" fill="#9E6648" fill-rule="evenodd"></path>
            </g>
            <g id="icon-textile" transform="translate(4.000000, 3.942825)" fill="#FFFFFF">
                <path d="M15.9485985,4.817915 C15.6735146,4.84258603 15.4638148,5.0744937 15.4668937,5.35080923 L15.4668937,6.03975069 C15.4668937,6.042217 15.4650432,6.04406752 15.4631942,6.04468489 L14.4338005,6.04468489 C14.4313326,6.04468489 14.4288663,6.042217 14.4288663,6.03975069 L14.4288663,5.74616149 C14.4288663,5.30825664 14.2549296,4.88884125 13.9453141,4.57922575 C13.6356986,4.26961025 13.2162832,4.09567358 12.7783783,4.09567358 L6.23191085,4.09567358 C6.22882717,4.09567358 6.22697664,4.09320568 6.22635927,4.09073937 L6.22635927,2.95464044 C6.22697664,2.86274106 6.18935194,2.77516166 6.12274095,2.71287225 C6.05612838,2.64996073 5.96669689,2.61788918 5.87541487,2.62343918 C5.69470451,2.64255863 5.5590099,2.79737585 5.56332043,2.978702 L5.56332043,4.09075358 C5.56332043,4.09321989 5.56085411,4.09568779 5.55777043,4.09568779 L2.61082521,4.09568779 C2.31662023,4.09568779 2.03353102,4.21287557 1.82504701,4.42134537 C1.61657878,4.6298136 1.5,4.9123028 1.5,5.20712358 L1.5,7.14133228 C1.5,7.40901097 1.59745617,7.66805283 1.77324179,7.87036317 L3.26090944,9.57262472 C3.26090944,9.57385787 3.2621426,9.57385787 3.2621426,9.57509103 L3.39783405,11.3507736 C3.40215089,11.4118346 3.45272768,11.4587087 3.51378868,11.4587087 C3.5742323,11.4587087 3.62480752,11.411833 3.62912594,11.3507736 L3.7598816,9.57256472 C3.7598816,9.57133156 5.43324844,7.73277698 5.43324844,7.73277698 C5.5306994,7.62114077 5.67193769,7.55699294 5.82057966,7.55637715 L8.12489327,7.55637715 L8.1242759,7.55637715 C9.20610646,7.55699452 10.0824846,8.43343421 10.0831162,9.5152174 L10.0831162,12.7403723 C10.0831162,12.8846974 10.026372,13.0228615 9.92460578,13.1246245 C9.82283956,13.2263876 9.68468495,13.2837507 9.5409693,13.2837507 L1.93297696,13.2837507 C1.81825707,13.2837507 1.70785086,13.3293917 1.6270562,13.4108069 C1.54564101,13.4916047 1.5,13.6020014 1.5,13.7167276 L1.5,14.6869109 C1.5,14.8016308 1.54564101,14.912037 1.6270562,14.9928317 C1.70785401,15.0742453 1.81825075,15.1198879 1.93297696,15.1198879 L13.5110724,15.1198879 C13.7547037,15.1198879 13.9878351,15.0236701 14.1599244,14.8515934 C14.3319979,14.6795199 14.4288347,14.445757 14.4288347,14.2027414 L14.4288347,7.86359107 C14.4288347,7.86112318 14.431301,7.85927265 14.4343847,7.85927265 L15.4631627,7.85927265 C15.4650132,7.85927265 15.4668637,7.86112318 15.4668637,7.86359107 L15.4668637,8.56980619 C15.4662463,8.71228079 15.5254568,8.84920066 15.6296846,8.9466532 C15.7339203,9.04471995 15.8745475,9.09467938 16.0170158,9.08481097 C16.2927156,9.0613731 16.5036469,8.82884805 16.5,8.55191673 L16.5,5.33355135 C16.5,5.19045938 16.4401244,5.05415688 16.3358839,4.95608855 C16.2310325,4.85863759 16.091021,4.80867974 15.9485527,4.81793079 L15.9485985,4.817915 Z M3.51076815,7.51191372 C3.13823166,7.51252982 2.80270566,7.28801793 2.65962159,6.94447088 C2.51714699,6.60030805 2.59609428,6.20372422 2.85945298,5.94035604 C3.12281168,5.67698787 3.5187892,5.59865637 3.86295203,5.74114044 C4.20711486,5.88361504 4.43100939,6.21975052 4.43100939,6.59228701 C4.43039202,7.09988653 4.01899925,7.51191372 3.51078394,7.51191372 L3.51076815,7.51191372 Z" id="Fill-1"></path>
            </g>
        </g>
    </g>
</svg>