<?xml version="1.0" encoding="UTF-8"?>
<svg width="34px" height="40px" viewBox="0 0 34 40" version="1.1" xmlns="http://www.w3.org/2000/svg" xmlns:xlink="http://www.w3.org/1999/xlink">
    <title>pin-batiments&amp;constructions</title>
    <defs>
        <path d="M13,0 C20.1797017,0 26,5.73710364 26,12.8141796 C26,18.145349 22.6971985,22.7161341 17.9984951,24.6468924 L14.7836515,30.9834021 C14.5914674,31.362276 14.2836322,31.6701113 13.9047582,31.8622953 C12.9196747,32.3619795 11.7160327,31.9684856 11.2163485,30.9834021 L11.2163485,30.9834021 L8.00250937,24.6473051 C3.30327221,22.7167855 0,18.1457288 0,12.8141796 C0,5.73710364 5.82029825,0 13,0 Z" id="path-1"></path>
        <filter x="-26.9%" y="-15.6%" width="153.8%" height="143.7%" filterUnits="objectBoundingBox" id="filter-2">
            <feOffset dx="0" dy="2" in="SourceAlpha" result="shadowOffsetOuter1"></feOffset>
            <feGaussianBlur stdDeviation="2" in="shadowOffsetOuter1" result="shadowBlurOuter1"></feGaussianBlur>
            <feComposite in="shadowBlurOuter1" in2="SourceAlpha" operator="out" result="shadowBlurOuter1"></feComposite>
            <feColorMatrix values="0 0 0 0 0   0 0 0 0 0   0 0 0 0 0  0 0 0 0.5 0" type="matrix" in="shadowBlurOuter1"></feColorMatrix>
        </filter>
    </defs>
    <g id="Page-1" stroke="none" stroke-width="1" fill="none" fill-rule="evenodd">
        <g id="pin-batiments&amp;constructions" transform="translate(4.000000, 2.067613)">
            <g id="Combined-Shape">
                <use fill="black" fill-opacity="1" filter="url(#filter-2)" xlink:href="#path-1"></use>
                <path stroke="#FFFFFF" stroke-width="1" d="M13,0.5 C16.4526124,0.5 19.5786801,1.87890964 21.8413889,4.1092755 C24.1014735,6.33705474 25.5,9.4145267 25.5,12.8141796 C25.5,15.3358399 24.730691,17.6803845 23.4108171,19.6322284 C22.015301,21.6959329 20.0047956,23.3208964 17.637583,24.253165 L17.637583,24.253165 L14.3377386,30.7572125 C14.1936006,31.0413679 13.9627241,31.2722444 13.6785687,31.4163824 C13.3281521,31.5941314 12.9408543,31.6212185 12.5905073,31.521677 C12.2429355,31.422924 11.9315585,31.1997487 11.7288797,30.8752804 L11.7288797,30.8752804 L8.36321863,24.2534806 C5.99582246,23.3213279 3.98513542,21.6963912 2.58947326,19.6326578 C1.26942187,17.6807284 0.5,15.3360249 0.5,12.8141796 C0.5,9.4145267 1.89852652,6.33705474 4.15861113,4.1092755 C6.42131986,1.87890964 9.54738765,0.5 13,0.5 Z" stroke-linejoin="square" fill="#03B38B" fill-rule="evenodd"></path>
            </g>
            <g id="icon-batiments" transform="translate(4.000000, 3.942825)" fill="#FFFFFF">
                <path d="M15.9088139,11.3911276 C15.8493479,11.3112 15.7777326,11.2402232 15.6971601,11.1820437 C15.4599376,11.0145213 15.1990453,10.8827983 14.9228149,10.7919984 C15.0922689,8.13527667 13.4726017,5.69004508 10.9590124,4.81085517 L10.9596524,8.07962138 C10.9161725,8.26569011 10.7710301,8.41083584 10.584945,8.45432881 C10.3144766,8.51763179 10.0433535,8.35010282 9.9800538,8.07962138 L9.9800538,4.55958789 C9.33104762,4.45088656 8.66924073,4.45088656 8.02082385,4.55958789 L8.02082385,8.07962138 C7.97734397,8.26569011 7.83220152,8.41083584 7.64611642,8.45432881 C7.37564807,8.51827019 7.10452496,8.35010282 7.04122525,8.07962138 L7.04122525,4.81085517 C4.52822516,5.69006144 2.90800141,8.1346219 3.07742267,10.7919984 C2.80119236,10.8827967 2.54031637,11.0145213 2.30307718,11.1820437 C2.22250959,11.2402313 2.15089433,11.3112066 2.09142338,11.3911276 C2.04474496,11.4537905 2.0140527,11.5273243 2.00254351,11.605335 C1.99423107,11.6782287 2.00638013,11.7530408 2.03771111,11.8195424 C2.07671565,11.8994699 2.13042791,11.9717252 2.19628777,12.0311962 C2.39514118,12.2044806 2.62342609,12.3400339 2.87087933,12.4308339 C3.69765505,12.7447952 4.56149065,12.9500487 5.44133533,13.0408486 C6.62170221,13.1898346 7.81045013,13.2646484 8.99967275,13.2646484 C10.189632,13.2646484 11.3776269,13.1898362 12.5586649,13.0408486 C13.4385096,12.9500503 14.3023125,12.7447952 15.1291209,12.4308339 C15.3765742,12.3393972 15.6048427,12.2038422 15.8037122,12.0311962 C15.869572,11.9717301 15.9232843,11.8994748 15.9622888,11.818904 C15.9936211,11.7524041 16.0057687,11.6775919 15.9974564,11.6040582 C15.9865856,11.5279676 15.9558934,11.4537938 15.9085766,11.3911276 L15.9088139,11.3911276 Z" id="Fill-1"></path>
            </g>
        </g>
    </g>
</svg>