<?xml version="1.0" encoding="UTF-8"?>
<svg width="34px" height="40px" viewBox="0 0 34 40" version="1.1" xmlns="http://www.w3.org/2000/svg" xmlns:xlink="http://www.w3.org/1999/xlink">
    <title>pin-tourism</title>
    <defs>
        <path d="M13,0 C20.1797017,0 26,5.73710364 26,12.8141796 C26,18.145349 22.6971985,22.7161341 17.9984951,24.6468924 L14.7836515,30.9834021 C14.5914674,31.362276 14.2836322,31.6701113 13.9047582,31.8622953 C12.9196747,32.3619795 11.7160327,31.9684856 11.2163485,30.9834021 L11.2163485,30.9834021 L8.00250937,24.6473051 C3.30327221,22.7167855 0,18.1457288 0,12.8141796 C0,5.73710364 5.82029825,0 13,0 Z" id="path-1"></path>
        <filter x="-26.9%" y="-15.6%" width="153.8%" height="143.7%" filterUnits="objectBoundingBox" id="filter-2">
            <feOffset dx="0" dy="2" in="SourceAlpha" result="shadowOffsetOuter1"></feOffset>
            <feGaussianBlur stdDeviation="2" in="shadowOffsetOuter1" result="shadowBlurOuter1"></feGaussianBlur>
            <feComposite in="shadowBlurOuter1" in2="SourceAlpha" operator="out" result="shadowBlurOuter1"></feComposite>
            <feColorMatrix values="0 0 0 0 0   0 0 0 0 0   0 0 0 0 0  0 0 0 0.5 0" type="matrix" in="shadowBlurOuter1"></feColorMatrix>
        </filter>
    </defs>
    <g id="Page-1" stroke="none" stroke-width="1" fill="none" fill-rule="evenodd">
        <g id="pin-tourism" transform="translate(4.000000, 1.595915)">
            <g id="Combined-Shape">
                <use fill="black" fill-opacity="1" filter="url(#filter-2)" xlink:href="#path-1"></use>
                <path stroke="#FFFFFF" stroke-width="1" d="M13,0.5 C16.4526124,0.5 19.5786801,1.87890964 21.8413889,4.1092755 C24.1014735,6.33705474 25.5,9.4145267 25.5,12.8141796 C25.5,15.3358399 24.730691,17.6803845 23.4108171,19.6322284 C22.015301,21.6959329 20.0047956,23.3208964 17.637583,24.253165 L17.637583,24.253165 L14.3377386,30.7572125 C14.1936006,31.0413679 13.9627241,31.2722444 13.6785687,31.4163824 C13.3281521,31.5941314 12.9408543,31.6212185 12.5905073,31.521677 C12.2429355,31.422924 11.9315585,31.1997487 11.7288797,30.8752804 L11.7288797,30.8752804 L8.36321863,24.2534806 C5.99582246,23.3213279 3.98513542,21.6963912 2.58947326,19.6326578 C1.26942187,17.6807284 0.5,15.3360249 0.5,12.8141796 C0.5,9.4145267 1.89852652,6.33705474 4.15861113,4.1092755 C6.42131986,1.87890964 9.54738765,0.5 13,0.5 Z" stroke-linejoin="square" fill="#7A5FDB" fill-rule="evenodd"></path>
            </g>
            <g id="icon-tourisme" transform="translate(4.000000, 3.942825)" fill="#FFFFFF">
                <path d="M10.5022125,4.64190028 C10.8653871,4.56954865 11.2285689,4.64190028 11.5193918,4.86037157 C11.7364322,5.00506031 11.9180195,5.33277451 12.0272551,5.47747778 C12.1350453,5.65906506 13.0798803,7.00252038 13.0798803,7.00252038 L13.0798803,7.00252038 L14.569477,7.18410766 C14.8957603,7.21955349 15.1865832,7.51038368 15.1865832,7.87355824 C15.1511011,8.23676548 14.895753,8.49070439 14.5297457,8.59710364 L14.5297457,8.59710364 L14.3481584,8.59710364 L12.5322857,8.34316473 C12.3506911,8.30628072 12.1691038,8.19704508 12.0598682,8.05234181 L12.0598682,8.05234181 L11.8059293,7.65226871 C11.8059293,7.65226871 11.6966936,8.99571677 11.6966936,9.06806841 C11.6966936,9.14042004 11.6966936,9.2865397 11.7335776,9.35889133 C11.8073747,9.46813424 12.8599999,11.4655943 12.8599999,11.4655943 C12.8954675,11.5379459 12.9323515,11.6471816 12.9323515,11.7564172 L12.9323515,11.7564172 L13.1139388,15.569749 C13.1508373,15.9329235 12.7876627,16.260645 12.4244882,16.3329966 L12.4244882,16.3329966 L12.1705493,16.3329966 C11.7719216,16.2606523 11.5179827,15.8974777 11.4810987,15.4619588 L11.4810987,15.4619588 L11.1902758,12.2302874 C11.1548081,12.0855841 11.1179241,11.9763485 11.0455725,11.8671128 L11.0455725,11.8671128 L9.33894262,9.50647821 C9.23112336,9.32489093 9.15735535,9.14328912 9.19423935,8.92481784 L9.19423935,8.92481784 L9.41271064,6.92735777 L8.8679488,7.32743086 L8.72324553,8.81702763 C8.6877997,9.18020945 8.39696951,9.47103237 8.03379495,9.47103237 L8.03379495,9.47103237 L7.99691095,9.47103237 L7.3429062,10.8144877 L7.56137749,10.9237233 C7.92455205,11.1053106 8.03237131,11.5053692 7.88766804,11.8316597 L7.88766804,11.8316597 L6.14413962,15.4634042 C6.14413962,15.4988718 6.18102363,15.5712235 6.18102363,15.6081075 C6.18102363,16.0450646 5.81784907,16.3713551 5.41777598,16.3713551 C4.98081888,16.3713551 4.65452833,16.0081806 4.65452833,15.6081075 L4.65452833,15.6081075 L3.2018301,14.9186569 C2.83865591,14.7370696 2.73083665,14.3370111 2.87553992,14.0107205 L2.87553992,14.0107205 L4.69141234,10.2711132 C4.87299962,9.90793863 5.27305818,9.80011936 5.59934873,9.94482263 L5.59934873,9.94482263 L6.90735822,10.5988274 L7.56136296,9.25537206 C7.45212732,9.14755279 7.41665969,9.03831715 7.37977568,8.92908151 L7.37977568,8.92908151 L7.37977568,8.74749423 L7.56136296,6.93162144 C7.56136296,6.7500269 7.67059861,6.56843962 7.81530188,6.45920398 L7.81530188,6.45920398 L8.17847643,6.16838105 C8.17847643,6.16838105 8.22588302,6.13405723 8.30539972,6.07651588 L8.50271431,5.93376727 C9.00335189,5.57166575 9.91545681,4.91262553 9.99434922,4.86037157 C10.1021394,4.78660355 10.3206252,4.67878429 10.5022125,4.64190028 Z M9.52040642,10.888125 L10.5375857,12.3039465 C10.5744697,12.3039465 10.5744697,12.3039465 10.5007017,12.3408305 L10.5007017,12.3408305 L10.682289,14.1567043 L9.95593988,15.8633342 C9.81125114,16.226516 9.41117804,16.4081033 9.04800349,16.3357517 C8.97423547,16.3357517 8.90188383,16.3002841 8.8295322,16.2634 C8.50324165,16.0818128 8.35853838,15.610848 8.50324165,15.2107749 L8.50324165,15.2107749 L9.66510969,12.1961345 L9.66510969,12.0145472 L9.52040642,10.888125 Z M5.38094282,15.3170521 C5.23482317,15.3170521 5.0901199,15.4631718 5.0901199,15.6078751 C5.0901199,15.7539947 5.23623955,15.898698 5.38094282,15.898698 C5.5625301,15.898698 5.67176574,15.7894623 5.67176574,15.6078751 C5.67176574,15.4617554 5.52564609,15.3170521 5.38094282,15.3170521 Z M4.83618825,12.4130804 C4.72836898,12.3407288 4.58224933,12.4130804 4.5098977,12.522316 L4.5098977,12.522316 L3.78354858,14.0842561 C3.71119695,14.1920754 3.78354858,14.338195 3.89278423,14.4105466 C4.00060349,14.4828983 4.14672314,14.4105466 4.21907478,14.301311 L4.21907478,14.301311 L4.94542389,12.739371 C4.9823079,12.5946677 4.94542389,12.4485444 4.83618825,12.4130804 Z M12.267023,2.61297477 C12.5507531,4.52813948 9.67798786,4.95516013 9.3928232,3.03999542 C9.10767307,1.12341433 11.9818583,0.696393682 12.267023,2.61297477 Z" id="Combined-Shape"></path>
            </g>
        </g>
    </g>
</svg>