<?xml version="1.0" encoding="UTF-8"?>
<svg width="34px" height="40px" viewBox="0 0 34 40" version="1.1" xmlns="http://www.w3.org/2000/svg" xmlns:xlink="http://www.w3.org/1999/xlink">
    <title>pin-loisirs</title>
    <defs>
        <path d="M13,0 C20.1797017,0 26,5.73710364 26,12.8141796 C26,18.145349 22.6971985,22.7161341 17.9984951,24.6468924 L14.7836515,30.9834021 C14.5914674,31.362276 14.2836322,31.6701113 13.9047582,31.8622953 C12.9196747,32.3619795 11.7160327,31.9684856 11.2163485,30.9834021 L11.2163485,30.9834021 L8.00250937,24.6473051 C3.30327221,22.7167855 0,18.1457288 0,12.8141796 C0,5.73710364 5.82029825,0 13,0 Z" id="path-1"></path>
        <filter x="-26.9%" y="-15.6%" width="153.8%" height="143.7%" filterUnits="objectBoundingBox" id="filter-2">
            <feOffset dx="0" dy="2" in="SourceAlpha" result="shadowOffsetOuter1"></feOffset>
            <feGaussianBlur stdDeviation="2" in="shadowOffsetOuter1" result="shadowBlurOuter1"></feGaussianBlur>
            <feComposite in="shadowBlurOuter1" in2="SourceAlpha" operator="out" result="shadowBlurOuter1"></feComposite>
            <feColorMatrix values="0 0 0 0 0   0 0 0 0 0   0 0 0 0 0  0 0 0 0.5 0" type="matrix" in="shadowBlurOuter1"></feColorMatrix>
        </filter>
    </defs>
    <g id="Page-1" stroke="none" stroke-width="1" fill="none" fill-rule="evenodd">
        <g id="pin-loisirs" transform="translate(4.000000, 2.426103)">
            <g id="Combined-Shape">
                <use fill="black" fill-opacity="1" filter="url(#filter-2)" xlink:href="#path-1"></use>
                <path stroke="#FFFFFF" stroke-width="1" d="M13,0.5 C16.4526124,0.5 19.5786801,1.87890964 21.8413889,4.1092755 C24.1014735,6.33705474 25.5,9.4145267 25.5,12.8141796 C25.5,15.3358399 24.730691,17.6803845 23.4108171,19.6322284 C22.015301,21.6959329 20.0047956,23.3208964 17.637583,24.253165 L17.637583,24.253165 L14.3377386,30.7572125 C14.1936006,31.0413679 13.9627241,31.2722444 13.6785687,31.4163824 C13.3281521,31.5941314 12.9408543,31.6212185 12.5905073,31.521677 C12.2429355,31.422924 11.9315585,31.1997487 11.7288797,30.8752804 L11.7288797,30.8752804 L8.36321863,24.2534806 C5.99582246,23.3213279 3.98513542,21.6963912 2.58947326,19.6326578 C1.26942187,17.6807284 0.5,15.3360249 0.5,12.8141796 C0.5,9.4145267 1.89852652,6.33705474 4.15861113,4.1092755 C6.42131986,1.87890964 9.54738765,0.5 13,0.5 Z" stroke-linejoin="square" fill="#7A5FDB" fill-rule="evenodd"></path>
            </g>
            <g id="icon-loisirs" transform="translate(-1.000000, 0.242825)" fill="#FFFFFF">
                <path d="M13.9093889,18.214829 C14.3370551,17.6105451 15.1617429,17.4632162 15.7660268,17.8758548 L15.7660268,17.8758548 C16.3702371,18.2884639 16.5175659,19.1131518 16.0899735,19.7174357 C15.6630145,20.3510678 14.7490454,21.0284298 13.2907257,20.9990789 C13.0841147,20.9990789 12.9810995,20.7487378 13.1284283,20.601409 C13.9093889,19.7467541 13.4674024,18.8628401 13.9093889,18.214829 Z M7.48630394,7.00087935 L7.5743467,7.00286353 L7.66297369,7.03221438 C10.6832147,7.40053645 13.7620925,7.40053645 16.797361,7.03221438 L16.797361,7.03221438 L16.915339,7.01725166 C17.0482885,7.00286353 17.1956144,7.04660251 17.2986297,7.13522964 C17.4166047,7.22386266 17.4753064,7.35622288 17.4753064,7.50355171 L17.4753064,7.50355171 L17.4753064,11.8503415 C17.3722941,11.9533538 17.2836611,12.0857169 17.2099967,12.2036949 L17.2099967,12.2036949 L14.3814688,16.8739746 C13.9095598,17.0213034 13.4974958,17.3159611 13.2028382,17.7435535 C13.1441394,17.8465658 13.0848631,17.9495811 13.0261614,18.0675591 C12.7608517,18.1112981 12.5105105,18.1262608 12.2452008,18.1262608 C10.1525421,18.1262608 8.2966114,16.8590855 7.5156509,14.9293725 C7.17667673,14.074718 7,13.175747 7,12.2624261 L7,12.2624261 L7,7.5035576 C7,7.35622878 7.07366147,7.22385677 7.17667673,7.12084151 C7.27968905,7.03221438 7.42701788,6.98790081 7.5743467,7.00286353 Z M17.9616684,12.6456814 C18.3006131,12.0563661 19.0666051,11.8940687 19.6116039,12.2773593 C20.156588,12.6456519 20.2745689,13.411644 19.8763243,13.9422635 L19.8763243,13.9422635 L16.8711109,17.8021315 C16.7094028,17.5517903 16.5027888,17.3451764 16.2524477,17.1684996 C16.0015172,16.9918229 15.7218282,16.873839 15.4271705,16.8295255 L15.4271705,16.8295255 Z M14.1459401,13.425434 C13.9099782,13.2930737 13.6003579,13.3667382 13.4679918,13.6170793 C13.2320299,14.0590658 12.7606955,14.3243755 12.2450446,14.3243755 C11.7293937,14.3243755 11.2580593,14.0446865 10.9927496,13.6027 C10.8598001,13.3673216 10.5507631,13.2936572 10.3148012,13.4260233 C10.0794228,13.5589728 10.0057584,13.8680098 10.1381245,14.1039716 C10.580111,14.8699637 11.3611011,15.3269187 12.2450741,15.3269187 C13.1290323,15.3269187 13.9243723,14.8699489 14.3375854,14.1033823 C14.4699457,13.8674204 14.3819019,13.5578001 14.1459401,13.425434 Z M14.2191331,9.80208769 C13.2321478,9.80208769 12.8931766,10.6123962 12.8638257,11.0543827 C12.848863,11.1430158 12.8787884,11.2316429 12.9374901,11.2903446 C12.9961859,11.364009 13.0698562,11.3933598 13.1584834,11.3933598 L13.1584834,11.3933598 L15.2947514,11.3933598 C15.3833785,11.3933598 15.4570429,11.3490463 15.5157446,11.2903446 C15.5744463,11.2310595 15.6043717,11.1430099 15.589409,11.0543827 C15.5600611,10.6123962 15.2061183,9.80208769 14.2191331,9.80208769 Z M10.2705437,9.78711908 C9.26858978,9.78711908 8.94458127,10.6123962 8.9002677,11.0394141 C8.88530499,11.1280471 8.91523042,11.2166743 8.97393212,11.275376 C9.03320251,11.3490404 9.12126095,11.3783912 9.19492536,11.3783912 L9.19492536,11.3783912 L11.3311934,11.3783912 C11.4198264,11.3783912 11.5084535,11.3340777 11.5671552,11.275376 C11.6258569,11.2160909 11.6557824,11.1280413 11.6408196,11.0394141 C11.5965031,10.5974276 11.2431497,9.78711908 10.2705437,9.78711908 Z" id="Combined-Shape"></path>
            </g>
        </g>
    </g>
</svg>