<?xml version="1.0" encoding="UTF-8"?>
<svg width="34px" height="40px" viewBox="0 0 34 40" version="1.1" xmlns="http://www.w3.org/2000/svg" xmlns:xlink="http://www.w3.org/1999/xlink">
    <title>pin-transports</title>
    <defs>
        <path d="M13,0 C20.1797017,0 26,5.73710364 26,12.8141796 C26,18.145349 22.6971985,22.7161341 17.9984951,24.6468924 L14.7836515,30.9834021 C14.5914674,31.362276 14.2836322,31.6701113 13.9047582,31.8622953 C12.9196747,32.3619795 11.7160327,31.9684856 11.2163485,30.9834021 L11.2163485,30.9834021 L8.00250937,24.6473051 C3.30327221,22.7167855 0,18.1457288 0,12.8141796 C0,5.73710364 5.82029825,0 13,0 Z" id="path-1"></path>
        <filter x="-26.9%" y="-15.6%" width="153.8%" height="143.7%" filterUnits="objectBoundingBox" id="filter-2">
            <feOffset dx="0" dy="2" in="SourceAlpha" result="shadowOffsetOuter1"></feOffset>
            <feGaussianBlur stdDeviation="2" in="shadowOffsetOuter1" result="shadowBlurOuter1"></feGaussianBlur>
            <feComposite in="shadowBlurOuter1" in2="SourceAlpha" operator="out" result="shadowBlurOuter1"></feComposite>
            <feColorMatrix values="0 0 0 0 0   0 0 0 0 0   0 0 0 0 0  0 0 0 0.5 0" type="matrix" in="shadowBlurOuter1"></feColorMatrix>
        </filter>
    </defs>
    <g id="Page-1" stroke="none" stroke-width="1" fill="none" fill-rule="evenodd">
        <g id="pin-transports" transform="translate(4.000000, 2.067613)">
            <g id="Combined-Shape">
                <use fill="black" fill-opacity="1" filter="url(#filter-2)" xlink:href="#path-1"></use>
                <path stroke="#FFFFFF" stroke-width="1" d="M13,0.5 C16.4526124,0.5 19.5786801,1.87890964 21.8413889,4.1092755 C24.1014735,6.33705474 25.5,9.4145267 25.5,12.8141796 C25.5,15.3358399 24.730691,17.6803845 23.4108171,19.6322284 C22.015301,21.6959329 20.0047956,23.3208964 17.637583,24.253165 L17.637583,24.253165 L14.3377386,30.7572125 C14.1936006,31.0413679 13.9627241,31.2722444 13.6785687,31.4163824 C13.3281521,31.5941314 12.9408543,31.6212185 12.5905073,31.521677 C12.2429355,31.422924 11.9315585,31.1997487 11.7288797,30.8752804 L11.7288797,30.8752804 L8.36321863,24.2534806 C5.99582246,23.3213279 3.98513542,21.6963912 2.58947326,19.6326578 C1.26942187,17.6807284 0.5,15.3360249 0.5,12.8141796 C0.5,9.4145267 1.89852652,6.33705474 4.15861113,4.1092755 C6.42131986,1.87890964 9.54738765,0.5 13,0.5 Z" stroke-linejoin="square" fill="#0D3C61" fill-rule="evenodd"></path>
            </g>
            <g id="icon-transport" transform="translate(4.000000, 3.942825)" fill="#FFFFFF">
                <path d="M11.1559241,7.65743428 C11.4427789,7.65743428 11.6782989,7.89362797 11.6782989,8.17980902 C11.6782989,8.46666376 11.4421052,8.70218376 11.1559241,8.70218376 L11.1559241,8.70218376 L9.84210519,8.70218376 C9.18553255,8.70218376 8.66315781,9.22455851 8.66315781,9.88113114 C8.66315781,10.5377038 9.18553255,11.0600785 9.84210519,11.0600785 L9.84210519,11.0600785 L14.6592842,11.0600634 C15.8718653,11.0600634 16.8652783,12.0705729 16.8659368,13.2837265 C16.8659368,14.4969645 15.871781,15.4903792 14.6592842,15.4903792 L14.6592842,15.4903792 L6.05263146,15.4903792 C5.76577672,15.4903792 5.53025672,15.2541855 5.53025672,14.9680045 C5.53025672,14.6811497 5.76645041,14.4456297 6.05263146,14.4456297 L6.05263146,14.4456297 L14.6421052,14.4456297 C15.2986779,14.4456297 15.8210526,13.923255 15.8210526,13.2666823 C15.8210526,12.6101097 15.2986779,12.087735 14.6421052,12.087735 L14.6421052,12.087735 L9.84210519,12.087735 C8.62952412,12.087735 7.63545253,11.0772423 7.63545253,9.86474546 C7.63545253,8.65150755 8.62960833,7.65809281 9.84210519,7.65809281 L9.84210519,7.65809281 Z M3.59354933,7.79304691 C5.02507777,7.79304691 6.18757041,8.93770377 6.18757041,10.3863943 C6.18757041,11.3969206 4.87371777,13.8218807 4.11582302,15.1356996 C3.88030302,15.5396407 3.30726722,15.5396407 3.07174722,15.1356996 C2.31381879,13.821847 1,11.3969206 1,10.3863943 C1,8.95488271 2.16176843,7.79304691 3.59334723,7.79304691 Z M3.59334723,9.15752693 C2.91966301,9.15752693 2.38085037,9.69633956 2.38085037,10.3700238 C2.38085037,11.043708 2.91966301,11.5825206 3.59334723,11.5825206 C4.26703144,11.5825206 4.80650261,11.0430512 4.80584468,10.3700238 C4.80584468,9.69633956 4.26703144,9.15752693 3.59334723,9.15752693 Z M14.4066526,2.25233106 C15.8381642,2.25233106 17,3.4140995 17,4.84567846 C17,5.85620479 15.6861474,8.28116481 14.9282526,9.59498377 C14.6929516,9.99892483 14.1199158,9.99892483 13.8850526,9.59498377 C13.1271242,8.28113113 11.8133052,5.85620479 11.8133052,4.84567846 C11.8133052,3.41416687 12.975141,2.25233106 14.4066526,2.25233106 Z M14.4058442,3.63318161 C13.73216,3.63318161 13.1933473,4.17199424 13.1933473,4.84567846 C13.1933473,5.5022511 13.7328168,6.05817531 14.4058442,6.05817531 C15.0795284,6.05817531 15.618341,5.51936268 15.618341,4.84567846 C15.618341,4.17199424 15.0795284,3.63318161 14.4058442,3.63318161 Z" id="Combined-Shape"></path>
            </g>
        </g>
    </g>
</svg>