<?xml version="1.0" encoding="UTF-8"?>
<svg width="34px" height="40px" viewBox="0 0 34 40" version="1.1" xmlns="http://www.w3.org/2000/svg" xmlns:xlink="http://www.w3.org/1999/xlink">
    <title>pin-nouvelles technologies</title>
    <defs>
        <path d="M13,0 C20.1797017,0 26,5.73710364 26,12.8141796 C26,18.145349 22.6971985,22.7161341 17.9984951,24.6468924 L14.7836515,30.9834021 C14.5914674,31.362276 14.2836322,31.6701113 13.9047582,31.8622953 C12.9196747,32.3619795 11.7160327,31.9684856 11.2163485,30.9834021 L11.2163485,30.9834021 L8.00250937,24.6473051 C3.30327221,22.7167855 0,18.1457288 0,12.8141796 C0,5.73710364 5.82029825,0 13,0 Z" id="path-1"></path>
        <filter x="-26.9%" y="-15.6%" width="153.8%" height="143.7%" filterUnits="objectBoundingBox" id="filter-2">
            <feOffset dx="0" dy="2" in="SourceAlpha" result="shadowOffsetOuter1"></feOffset>
            <feGaussianBlur stdDeviation="2" in="shadowOffsetOuter1" result="shadowBlurOuter1"></feGaussianBlur>
            <feComposite in="shadowBlurOuter1" in2="SourceAlpha" operator="out" result="shadowBlurOuter1"></feComposite>
            <feColorMatrix values="0 0 0 0 0   0 0 0 0 0   0 0 0 0 0  0 0 0 0.5 0" type="matrix" in="shadowBlurOuter1"></feColorMatrix>
        </filter>
    </defs>
    <g id="Page-1" stroke="none" stroke-width="1" fill="none" fill-rule="evenodd">
        <g id="pin-nouvelles-technologies" transform="translate(4.000000, 1.595915)">
            <g id="Combined-Shape">
                <use fill="black" fill-opacity="1" filter="url(#filter-2)" xlink:href="#path-1"></use>
                <path stroke="#FFFFFF" stroke-width="1" d="M13,0.5 C16.4526124,0.5 19.5786801,1.87890964 21.8413889,4.1092755 C24.1014735,6.33705474 25.5,9.4145267 25.5,12.8141796 C25.5,15.3358399 24.730691,17.6803845 23.4108171,19.6322284 C22.015301,21.6959329 20.0047956,23.3208964 17.637583,24.253165 L17.637583,24.253165 L14.3377386,30.7572125 C14.1936006,31.0413679 13.9627241,31.2722444 13.6785687,31.4163824 C13.3281521,31.5941314 12.9408543,31.6212185 12.5905073,31.521677 C12.2429355,31.422924 11.9315585,31.1997487 11.7288797,30.8752804 L11.7288797,30.8752804 L8.36321863,24.2534806 C5.99582246,23.3213279 3.98513542,21.6963912 2.58947326,19.6326578 C1.26942187,17.6807284 0.5,15.3360249 0.5,12.8141796 C0.5,9.4145267 1.89852652,6.33705474 4.15861113,4.1092755 C6.42131986,1.87890964 9.54738765,0.5 13,0.5 Z" stroke-linejoin="square" fill="#3C8694" fill-rule="evenodd"></path>
            </g>
            <g id="icon-nouvelles-technologies" transform="translate(4.000000, 3.942825)" fill="#FFFFFF">
                <path d="M11.0316708,10.4835306 L11.5613141,12.4266501 L12.9012259,12.4266501 C13.0628115,11.9999559 13.4751374,11.6905642 13.9610718,11.6905642 C14.5791205,11.6907262 15.0943806,12.1916032 15.0943806,12.8247548 C15.0943806,13.4429492 14.5940777,13.9582093 13.9609261,13.9582093 C13.4749916,13.9582093 13.0632546,13.6488177 12.9010802,13.2221234 L12.9010802,13.2221234 L10.9579606,13.2221234 L10.4277433,11.2639877 L9.39722301,11.2639877 L9.39664739,13.678055 C9.82334166,13.8396406 10.1327333,14.2519665 10.1327333,14.7379009 C10.1327333,15.356095 9.63243042,15.8713551 8.99927878,15.8713551 C8.38108441,15.8713551 7.86582429,15.3710523 7.86582429,14.7379009 C7.86582429,14.2519665 8.17521591,13.8402295 8.60191018,13.678055 L8.60191018,13.678055 L8.60191018,11.2782678 L7.57138993,11.2782678 L7.04117254,13.2364035 L5.09805301,13.2364035 C4.93646744,13.6630978 4.52414157,13.9724894 4.03820711,13.9724894 C3.42001273,13.9724894 2.90475232,13.4721865 2.90475232,12.8390349 C2.90475232,12.2208405 3.40505547,11.7055804 4.03820711,11.7055804 C4.52414157,11.7055804 4.93587857,12.014972 5.09805301,12.4416663 L5.09805301,12.4416663 L6.43796488,12.4416663 L6.96818227,10.4835306 L11.0316708,10.4835306 Z M13.9610718,7.73071659 C14.5792662,7.73071659 15.0945263,8.24597671 15.0945263,8.86417108 C15.0945263,9.48236546 14.5942235,9.99762558 13.9610718,9.99762558 C13.4751374,9.99762558 13.0634004,9.68823396 12.9012259,9.26153969 L12.9012259,9.26153969 L5.11373164,9.26153969 C4.95214607,9.68823396 4.5398202,9.99762558 4.05388574,9.99762558 C3.43569136,9.99762558 2.92043095,9.48236546 2.92043095,8.86417108 C2.92043095,8.24597671 3.4207341,7.73071659 4.05388574,7.73071659 C4.5398202,7.73071659 4.9515572,8.04010821 5.11373164,8.46680248 L5.11373164,8.46680248 L12.9012259,8.46680248 C13.0628115,8.04010821 13.4751374,7.73071659 13.9610718,7.73071659 Z M9.00013264,1.87135513 C9.61832702,1.87135513 10.1335871,2.37165799 10.1335871,3.00480963 C10.1335871,3.49074409 9.82419552,3.90248109 9.39750125,4.06465554 L9.39750125,4.06465554 L9.39750125,6.45001547 L10.4280215,6.45001547 L10.9582389,4.49187979 L12.9019473,4.49187979 C13.0635329,4.06518552 13.4758587,3.7557939 13.9617932,3.7557939 C14.5799876,3.7557939 15.0952477,4.27105402 15.0952477,4.88924839 C15.0952477,5.50744277 14.5949448,6.02270289 13.9617932,6.02270289 C13.4758587,6.02270289 13.0641217,5.71331127 12.9019473,5.286617 L12.9019473,5.286617 L11.5620354,5.286617 L11.031818,7.24475268 L6.96832948,7.24475268 L6.43868624,5.30163315 L5.09877438,5.30163315 C4.9371888,5.72832742 4.52486293,6.03771904 4.03892847,6.03771904 C3.42077826,6.03770432 2.91990023,5.5224442 2.92047476,4.90367568 C2.92047476,4.2854813 3.42077826,3.77022118 4.0539299,3.77022118 C4.53986436,3.77022118 4.95160136,4.0796128 5.11377581,4.50630707 L5.11377581,4.50630707 L7.0420264,4.50630707 L7.57224379,6.46444275 L8.60276404,6.46444275 L8.60276404,4.06465554 C8.17606977,3.90306996 7.86667815,3.49074409 7.86667815,3.00480963 C7.86667815,2.38661526 8.366981,1.87135513 9.00013264,1.87135513 Z" id="Combined-Shape"></path>
            </g>
        </g>
    </g>
</svg>