<?xml version="1.0" encoding="UTF-8"?>
<svg width="34px" height="40px" viewBox="0 0 34 40" version="1.1" xmlns="http://www.w3.org/2000/svg" xmlns:xlink="http://www.w3.org/1999/xlink">
    <title>pin-administration</title>
    <defs>
        <path d="M13,0 C20.1797017,0 26,5.73710364 26,12.8141796 C26,18.145349 22.6971985,22.7161341 17.9984951,24.6468924 L14.7836515,30.9834021 C14.5914674,31.362276 14.2836322,31.6701113 13.9047582,31.8622953 C12.9196747,32.3619795 11.7160327,31.9684856 11.2163485,30.9834021 L11.2163485,30.9834021 L8.00250937,24.6473051 C3.30327221,22.7167855 0,18.1457288 0,12.8141796 C0,5.73710364 5.82029825,0 13,0 Z" id="path-1"></path>
        <filter x="-26.9%" y="-15.6%" width="153.8%" height="143.7%" filterUnits="objectBoundingBox" id="filter-2">
            <feOffset dx="0" dy="2" in="SourceAlpha" result="shadowOffsetOuter1"></feOffset>
            <feGaussianBlur stdDeviation="2" in="shadowOffsetOuter1" result="shadowBlurOuter1"></feGaussianBlur>
            <feComposite in="shadowBlurOuter1" in2="SourceAlpha" operator="out" result="shadowBlurOuter1"></feComposite>
            <feColorMatrix values="0 0 0 0 0   0 0 0 0 0   0 0 0 0 0  0 0 0 0.5 0" type="matrix" in="shadowBlurOuter1"></feColorMatrix>
        </filter>
    </defs>
    <g id="Page-1" stroke="none" stroke-width="1" fill="none" fill-rule="evenodd">
        <g id="pin-administration" transform="translate(4.000000, 2.426103)">
            <g id="Combined-Shape">
                <use fill="black" fill-opacity="1" filter="url(#filter-2)" xlink:href="#path-1"></use>
                <path stroke="#FFFFFF" stroke-width="1" d="M13,0.5 C16.4526124,0.5 19.5786801,1.87890964 21.8413889,4.1092755 C24.1014735,6.33705474 25.5,9.4145267 25.5,12.8141796 C25.5,15.3358399 24.730691,17.6803845 23.4108171,19.6322284 C22.015301,21.6959329 20.0047956,23.3208964 17.637583,24.253165 L17.637583,24.253165 L14.3377386,30.7572125 C14.1936006,31.0413679 13.9627241,31.2722444 13.6785687,31.4163824 C13.3281521,31.5941314 12.9408543,31.6212185 12.5905073,31.521677 C12.2429355,31.422924 11.9315585,31.1997487 11.7288797,30.8752804 L11.7288797,30.8752804 L8.36321863,24.2534806 C5.99582246,23.3213279 3.98513542,21.6963912 2.58947326,19.6326578 C1.26942187,17.6807284 0.5,15.3360249 0.5,12.8141796 C0.5,9.4145267 1.89852652,6.33705474 4.15861113,4.1092755 C6.42131986,1.87890964 9.54738765,0.5 13,0.5 Z" stroke-linejoin="square" fill="#90A8B5" fill-rule="evenodd"></path>
            </g>
            <g id="icon-administration" transform="translate(4.000000, 3.942825)" fill="#FFFFFF">
                <path d="M5.26422611,9.27126604 C5.35229984,9.27126604 5.44095126,9.34494769 5.44095126,9.44799119 L5.44095126,9.44799119 L5.44152747,13.9720779 L6.53182377,13.9720779 L6.53182377,9.44799119 C6.53182377,9.35991746 6.60550543,9.27126604 6.70854892,9.27126604 L6.70854892,9.27126604 L7.26866978,9.27126604 C7.35674351,9.27126604 7.44539493,9.34494769 7.44539493,9.44799119 L7.44539493,9.44799119 L7.44539493,13.9720779 L8.53569123,13.9720779 L8.53569123,9.44799119 C8.53569123,9.35991746 8.60937288,9.27126604 8.71241637,9.27126604 L8.71241637,9.27126604 L9.27253723,9.27126604 C9.36061096,9.27126604 9.44926238,9.34494769 9.44926238,9.44799119 L9.44926238,9.44799119 L9.44983859,13.9720779 L10.5401349,13.9720779 L10.5401349,9.44799119 C10.5401349,9.35991746 10.6138165,9.27126604 10.71686,9.27126604 L10.71686,9.27126604 L11.2769809,9.27126604 C11.3650546,9.27126604 11.453706,9.34494769 11.453706,9.44799119 L11.453706,9.44799119 L11.453706,13.9720779 L12.5440023,13.9720779 L12.5440023,9.44799119 C12.5440023,9.35991746 12.617684,9.27126604 12.7207275,9.27126604 L12.7207275,9.27126604 L13.2808484,9.27126604 C13.3689221,9.27126604 13.4575735,9.34494769 13.4575735,9.44799119 L13.4575735,9.44799119 L13.4581482,13.9571936 L14.3274025,13.9571051 C14.430446,13.9571051 14.5190974,14.0457595 14.5484563,14.148803 L14.5484563,14.148803 L14.5484563,14.7089239 C14.5484563,14.7969976 14.4747747,14.885649 14.3717312,14.885649 L14.3717312,14.885649 L3.65813761,14.885649 C3.57006388,14.885649 3.48141246,14.8119674 3.48141246,14.7089239 L3.48141246,14.7089239 L3.48141246,14.148803 C3.48141246,14.0607293 3.55509412,13.9720779 3.65813761,13.9720779 L3.65813761,13.9720779 L4.52738011,13.9720779 L4.52738011,9.44799119 C4.52738011,9.35991746 4.60106176,9.27126604 4.70410525,9.27126604 L4.70410525,9.27126604 Z M8.97782978,0.885649008 C9.19888358,0.885649008 9.39058144,1.07734687 9.39058144,1.29840067 L9.39058144,1.29840067 L9.39058144,1.46016784 L11.2620229,1.46016784 C11.4537208,1.46016784 11.60109,1.62250975 11.60109,1.7992349 L11.60109,1.7992349 L11.60109,2.97818851 C11.60109,3.16988637 11.4387481,3.31725557 11.2620229,3.31725557 L11.2620229,3.31725557 L9.39058144,3.31725557 L9.39058144,4.74661892 C11.1590119,4.90901978 12.6326449,6.04361527 13.2808336,7.62031835 L13.2808336,7.62031835 L14.3274644,7.62030361 C14.4305109,7.62030361 14.5191623,7.70895798 14.5185903,7.81200147 L14.5185903,7.81200147 L14.5185903,8.37212233 C14.5185903,8.46019606 14.4449059,8.54884748 14.3418624,8.54884748 L14.3418624,8.54884748 L3.62826882,8.54884748 C3.54019509,8.54884748 3.45154368,8.47516582 3.45154368,8.37212233 L3.45154368,8.37212233 L3.45154368,7.81200147 C3.45154368,7.72392774 3.52522533,7.63527632 3.62826882,7.63527632 L3.62826882,7.63527632 L4.67482594,7.63527632 C5.32295569,6.05854377 6.7966477,4.9089461 8.56507812,4.7615769 L8.56507812,4.7615769 L8.56507812,1.29840067 C8.56507812,1.07734687 8.75677598,0.885649008 8.97782978,0.885649008 Z" id="Combined-Shape"></path>
            </g>
        </g>
    </g>
</svg>