<?xml version="1.0" encoding="UTF-8"?>
<svg width="34px" height="40px" viewBox="0 0 34 40" version="1.1" xmlns="http://www.w3.org/2000/svg" xmlns:xlink="http://www.w3.org/1999/xlink">
    <title>pin-telecom</title>
    <defs>
        <path d="M13,0 C20.1797017,0 26,5.73710364 26,12.8141796 C26,18.145349 22.6971985,22.7161341 17.9984951,24.6468924 L14.7836515,30.9834021 C14.5914674,31.362276 14.2836322,31.6701113 13.9047582,31.8622953 C12.9196747,32.3619795 11.7160327,31.9684856 11.2163485,30.9834021 L11.2163485,30.9834021 L8.00250937,24.6473051 C3.30327221,22.7167855 0,18.1457288 0,12.8141796 C0,5.73710364 5.82029825,0 13,0 Z" id="path-1"></path>
        <filter x="-26.9%" y="-15.6%" width="153.8%" height="143.7%" filterUnits="objectBoundingBox" id="filter-2">
            <feOffset dx="0" dy="2" in="SourceAlpha" result="shadowOffsetOuter1"></feOffset>
            <feGaussianBlur stdDeviation="2" in="shadowOffsetOuter1" result="shadowBlurOuter1"></feGaussianBlur>
            <feComposite in="shadowBlurOuter1" in2="SourceAlpha" operator="out" result="shadowBlurOuter1"></feComposite>
            <feColorMatrix values="0 0 0 0 0   0 0 0 0 0   0 0 0 0 0  0 0 0 0.5 0" type="matrix" in="shadowBlurOuter1"></feColorMatrix>
        </filter>
    </defs>
    <g id="Page-1" stroke="none" stroke-width="1" fill="none" fill-rule="evenodd">
        <g id="pin-telecom" transform="translate(4.000000, 2.011009)">
            <g id="Combined-Shape">
                <use fill="black" fill-opacity="1" filter="url(#filter-2)" xlink:href="#path-1"></use>
                <path stroke="#FFFFFF" stroke-width="1" d="M13,0.5 C16.4526124,0.5 19.5786801,1.87890964 21.8413889,4.1092755 C24.1014735,6.33705474 25.5,9.4145267 25.5,12.8141796 C25.5,15.3358399 24.730691,17.6803845 23.4108171,19.6322284 C22.015301,21.6959329 20.0047956,23.3208964 17.637583,24.253165 L17.637583,24.253165 L14.3377386,30.7572125 C14.1936006,31.0413679 13.9627241,31.2722444 13.6785687,31.4163824 C13.3281521,31.5941314 12.9408543,31.6212185 12.5905073,31.521677 C12.2429355,31.422924 11.9315585,31.1997487 11.7288797,30.8752804 L11.7288797,30.8752804 L8.36321863,24.2534806 C5.99582246,23.3213279 3.98513542,21.6963912 2.58947326,19.6326578 C1.26942187,17.6807284 0.5,15.3360249 0.5,12.8141796 C0.5,9.4145267 1.89852652,6.33705474 4.15861113,4.1092755 C6.42131986,1.87890964 9.54738765,0.5 13,0.5 Z" stroke-linejoin="square" fill="#3C8694" fill-rule="evenodd"></path>
            </g>
            <g id="icon-telecom" transform="translate(4.000000, 3.942825)" fill="#FFFFFF">
                <path d="M5.07291351,10.7255266 C5.2439774,10.7255266 5.38460182,10.8661447 5.38460182,11.0372149 L5.38460182,11.0372149 L5.38460182,14.5596045 C5.38460182,14.7312762 5.24459143,14.8712928 5.07291351,14.8712928 L5.07291351,14.8712928 L3.07795247,14.8712928 C2.90628078,14.8712928 2.76626416,14.7312824 2.76626416,14.5596045 L2.76626416,14.5596045 L2.76626416,11.0372149 C2.76626416,10.8655432 2.90627455,10.7255266 3.07795247,10.7255266 L3.07795247,10.7255266 Z M8.34564078,8.09207202 C8.53253221,8.09207202 8.65732909,8.23208241 8.65732909,8.40376033 L8.65732909,8.40376033 L8.65732909,14.5596045 C8.65732909,14.7312762 8.5173187,14.8712928 8.34564078,14.8712928 L8.34564078,14.8712928 L6.35067974,14.8712928 C6.17900805,14.8712928 6.03899143,14.7312824 6.03899143,14.5596045 L6.03899143,14.5596045 L6.03899143,8.40376033 C6.03899143,8.23208864 6.17900182,8.09207202 6.35067974,8.09207202 L6.35067974,8.09207202 Z M11.6335005,5.48963046 C11.8051722,5.48963046 11.9451888,5.62964085 11.9451888,5.80131877 L11.9451888,5.80131877 L11.9457966,14.5596045 C11.9457966,14.7312762 11.8057862,14.8712928 11.6341083,14.8712928 L11.6341083,14.8712928 L9.63914727,14.8712928 C9.46747558,14.8712928 9.32745896,14.7312824 9.32745896,14.5596045 L9.32745896,14.5596045 L9.32745896,5.80131877 C9.32745896,5.62964708 9.46746935,5.48963046 9.63914727,5.48963046 L9.63914727,5.48963046 Z M14.9220475,2.87135513 L12.9270865,2.87135513 C12.7554086,2.87135513 12.6153982,3.01137176 12.6153982,3.18304345 L12.6153982,14.5596668 C12.6153982,14.7313447 12.7554148,14.8713551 12.9270865,14.8713551 L14.9220475,14.8713551 C15.0937255,14.8713551 15.2337358,14.7313385 15.2337358,14.5596668 L15.2337358,3.18304345 C15.2337358,3.01136552 15.0937192,2.87135513 14.9220475,2.87135513 Z" id="Combined-Shape"></path>
            </g>
        </g>
    </g>
</svg>