<?xml version="1.0" encoding="UTF-8"?>
<svg width="34px" height="40px" viewBox="0 0 34 40" version="1.1" xmlns="http://www.w3.org/2000/svg" xmlns:xlink="http://www.w3.org/1999/xlink">
    <title>pin-alimentation</title>
    <defs>
        <path d="M13,0 C20.1797017,0 26,5.73710364 26,12.8141796 C26,18.145349 22.6971985,22.7161341 17.9984951,24.6468924 L14.7836515,30.9834021 C14.5914674,31.362276 14.2836322,31.6701113 13.9047582,31.8622953 C12.9196747,32.3619795 11.7160327,31.9684856 11.2163485,30.9834021 L11.2163485,30.9834021 L8.00250937,24.6473051 C3.30327221,22.7167855 0,18.1457288 0,12.8141796 C0,5.73710364 5.82029825,0 13,0 Z" id="path-1"></path>
        <filter x="-26.9%" y="-15.6%" width="153.8%" height="143.7%" filterUnits="objectBoundingBox" id="filter-2">
            <feOffset dx="0" dy="2" in="SourceAlpha" result="shadowOffsetOuter1"></feOffset>
            <feGaussianBlur stdDeviation="2" in="shadowOffsetOuter1" result="shadowBlurOuter1"></feGaussianBlur>
            <feComposite in="shadowBlurOuter1" in2="SourceAlpha" operator="out" result="shadowBlurOuter1"></feComposite>
            <feColorMatrix values="0 0 0 0 0   0 0 0 0 0   0 0 0 0 0  0 0 0 0.5 0" type="matrix" in="shadowBlurOuter1"></feColorMatrix>
        </filter>
    </defs>
    <g id="Page-1" stroke="none" stroke-width="1" fill="none" fill-rule="evenodd">
        <g id="pin-alimentation" transform="translate(4.000000, 2.482707)">
            <g id="Combined-Shape">
                <use fill="black" fill-opacity="1" filter="url(#filter-2)" xlink:href="#path-1"></use>
                <path stroke="#FFFFFF" stroke-width="1" d="M13,0.5 C16.4526124,0.5 19.5786801,1.87890964 21.8413889,4.1092755 C24.1014735,6.33705474 25.5,9.4145267 25.5,12.8141796 C25.5,15.3358399 24.730691,17.6803845 23.4108171,19.6322284 C22.015301,21.6959329 20.0047956,23.3208964 17.637583,24.253165 L17.637583,24.253165 L14.3377386,30.7572125 C14.1936006,31.0413679 13.9627241,31.2722444 13.6785687,31.4163824 C13.3281521,31.5941314 12.9408543,31.6212185 12.5905073,31.521677 C12.2429355,31.422924 11.9315585,31.1997487 11.7288797,30.8752804 L11.7288797,30.8752804 L8.36321863,24.2534806 C5.99582246,23.3213279 3.98513542,21.6963912 2.58947326,19.6326578 C1.26942187,17.6807284 0.5,15.3360249 0.5,12.8141796 C0.5,9.4145267 1.89852652,6.33705474 4.15861113,4.1092755 C6.42131986,1.87890964 9.54738765,0.5 13,0.5 Z" stroke-linejoin="square" fill="#F78300" fill-rule="evenodd"></path>
            </g>
            <g id="Group" transform="translate(4.000000, 3.942825)" fill="#FFFFFF">
                <g id="Group" transform="translate(4.328567, 1.871355)">
                    <path d="M9.34286671,3.41880723 C9.34286671,1.79775117 8.14894419,0 7.05865136,0 C5.96835852,0 4.75999386,1.79775117 4.75999386,3.41880723 C4.75999386,4.71576998 5.4081805,5.4970011 6.32239717,5.77670696 L6.20438723,13.1451435 C6.20438723,13.6166055 6.57280906,14 7.04427111,14 C7.51573316,14 7.89912766,13.6166055 7.884155,13.1451435 L7.76614506,5.77670696 C8.69468598,5.51132535 9.34286671,4.71576998 9.34286671,3.41880723 L9.34286671,3.41880723 Z" id="Fill-1"></path>
                    <path d="M3.2864539,0.368421832 C3.08037346,0.368421832 2.91803207,0.530763228 2.91803207,0.736843664 L2.91803207,3.80226068 C2.91803207,3.89091181 2.8443477,3.96460207 2.75569067,3.96460207 L2.35791299,3.96460207 C2.26926185,3.96460207 2.19557159,3.89091771 2.19557159,3.80226068 L2.19557159,0.721959422 C2.18117956,0.530836913 2.01884701,0.368510253 1.82714976,0.368510253 C1.62106932,0.368510253 1.45872793,0.530851649 1.45872793,0.736932086 L1.45872793,3.8023491 C1.45872793,3.89100023 1.38504356,3.96469049 1.29638653,3.96469049 L0.898608849,3.96469049 C0.809957714,3.96469049 0.736267453,3.89100613 0.736267453,3.8023491 L0.736843664,0.722047843 C0.736843664,0.515967407 0.574502268,0.353626011 0.368421832,0.353626011 C0.162341396,0.353626011 0,0.515967407 0,0.722047843 L0,4.45062415 C0,5.0844276 0.486434713,5.60021816 1.09029283,5.65892987 L0.972282899,13.1303775 C0.972282899,13.6018396 1.34070473,13.9852341 1.81216678,13.9852341 C2.28362883,13.9852341 2.66702333,13.6018396 2.65205066,13.1303775 L2.54958371,5.67381411 C3.16841449,5.61509651 3.63987654,5.08433918 3.63987654,4.4655084 L3.63987654,0.722047843 C3.63987654,0.530925334 3.47753515,0.368598675 3.28642737,0.368598675 L3.2864539,0.368421832 Z" id="Fill-2"></path>
                </g>
            </g>
        </g>
    </g>
</svg>