<?xml version="1.0" encoding="UTF-8"?>
<svg width="34px" height="40px" viewBox="0 0 34 40" version="1.1" xmlns="http://www.w3.org/2000/svg" xmlns:xlink="http://www.w3.org/1999/xlink">
    <title>pin-education</title>
    <defs>
        <path d="M13,0 C20.1797017,0 26,5.73710364 26,12.8141796 C26,18.145349 22.6971985,22.7161341 17.9984951,24.6468924 L14.7836515,30.9834021 C14.5914674,31.362276 14.2836322,31.6701113 13.9047582,31.8622953 C12.9196747,32.3619795 11.7160327,31.9684856 11.2163485,30.9834021 L11.2163485,30.9834021 L8.00250937,24.6473051 C3.30327221,22.7167855 0,18.1457288 0,12.8141796 C0,5.73710364 5.82029825,0 13,0 Z" id="path-1"></path>
        <filter x="-26.9%" y="-15.6%" width="153.8%" height="143.7%" filterUnits="objectBoundingBox" id="filter-2">
            <feOffset dx="0" dy="2" in="SourceAlpha" result="shadowOffsetOuter1"></feOffset>
            <feGaussianBlur stdDeviation="2" in="shadowOffsetOuter1" result="shadowBlurOuter1"></feGaussianBlur>
            <feComposite in="shadowBlurOuter1" in2="SourceAlpha" operator="out" result="shadowBlurOuter1"></feComposite>
            <feColorMatrix values="0 0 0 0 0   0 0 0 0 0   0 0 0 0 0  0 0 0 0.5 0" type="matrix" in="shadowBlurOuter1"></feColorMatrix>
        </filter>
    </defs>
    <g id="Page-1" stroke="none" stroke-width="1" fill="none" fill-rule="evenodd">
        <g id="pin-education" transform="translate(4.000000, 1.954405)">
            <g id="Combined-Shape">
                <use fill="black" fill-opacity="1" filter="url(#filter-2)" xlink:href="#path-1"></use>
                <path stroke="#FFFFFF" stroke-width="1" d="M13,0.5 C16.4526124,0.5 19.5786801,1.87890964 21.8413889,4.1092755 C24.1014735,6.33705474 25.5,9.4145267 25.5,12.8141796 C25.5,15.3358399 24.730691,17.6803845 23.4108171,19.6322284 C22.015301,21.6959329 20.0047956,23.3208964 17.637583,24.253165 L17.637583,24.253165 L14.3377386,30.7572125 C14.1936006,31.0413679 13.9627241,31.2722444 13.6785687,31.4163824 C13.3281521,31.5941314 12.9408543,31.6212185 12.5905073,31.521677 C12.2429355,31.422924 11.9315585,31.1997487 11.7288797,30.8752804 L11.7288797,30.8752804 L8.36321863,24.2534806 C5.99582246,23.3213279 3.98513542,21.6963912 2.58947326,19.6326578 C1.26942187,17.6807284 0.5,15.3360249 0.5,12.8141796 C0.5,9.4145267 1.89852652,6.33705474 4.15861113,4.1092755 C6.42131986,1.87890964 9.54738765,0.5 13,0.5 Z" stroke-linejoin="square" fill="#90A8B5" fill-rule="evenodd"></path>
            </g>
            <g id="icon-education" transform="translate(4.000000, 3.942825)" fill="#FFFFFF">
                <path d="M8.61080286,4.2989296 L17,7.2910308 L15.6990793,7.72659481 L15.6991627,10.5397814 C15.8824524,10.6413274 16.006989,10.836114 16.006989,11.0596428 C16.006989,11.3872682 15.7400362,11.654221 15.4124108,11.654221 C15.0847855,11.654221 14.8178327,11.3872682 14.8178327,11.0596428 C14.8178327,10.8354764 14.9417283,10.6406882 15.1250213,10.5391438 L15.1250213,10.5391438 L15.1250213,7.91817365 L13.60376,8.42717909 L13.60376,12.2635626 L13.4504845,12.3446703 C12.3807441,12.9085933 11.2432519,13.2598501 10.0687774,13.3882189 C9.72774552,13.4252601 9.38414682,13.4437807 9.03799761,13.4437807 C8.4306506,13.4437807 7.81754861,13.3869371 7.20572188,13.2726189 C5.56890306,12.9673432 4.51257411,12.3651054 4.46850761,12.3395595 L4.46850761,12.3395595 L4.32481122,12.2565356 L4.32481122,8.53574229 L1,7.32422006 L8.61080286,4.2989296 Z M8.63261998,5.07863753 L3.10725541,7.26626939 L8.63261998,9.26101791 L14.7695454,7.26626939 L8.63261998,5.07863753 Z" id="Combined-Shape"></path>
            </g>
        </g>
    </g>
</svg>