<?xml version="1.0" encoding="UTF-8"?>
<svg width="34px" height="40px" viewBox="0 0 34 40" version="1.1" xmlns="http://www.w3.org/2000/svg" xmlns:xlink="http://www.w3.org/1999/xlink">
    <title>pin-eau</title>
    <defs>
        <path d="M13,0 C20.1797017,0 26,5.73710364 26,12.8141796 C26,18.145349 22.6971985,22.7161341 17.9984951,24.6468924 L14.7836515,30.9834021 C14.5914674,31.362276 14.2836322,31.6701113 13.9047582,31.8622953 C12.9196747,32.3619795 11.7160327,31.9684856 11.2163485,30.9834021 L11.2163485,30.9834021 L8.00250937,24.6473051 C3.30327221,22.7167855 0,18.1457288 0,12.8141796 C0,5.73710364 5.82029825,0 13,0 Z" id="path-1"></path>
        <filter x="-26.9%" y="-15.6%" width="153.8%" height="143.7%" filterUnits="objectBoundingBox" id="filter-2">
            <feOffset dx="0" dy="2" in="SourceAlpha" result="shadowOffsetOuter1"></feOffset>
            <feGaussianBlur stdDeviation="2" in="shadowOffsetOuter1" result="shadowBlurOuter1"></feGaussianBlur>
            <feComposite in="shadowBlurOuter1" in2="SourceAlpha" operator="out" result="shadowBlurOuter1"></feComposite>
            <feColorMatrix values="0 0 0 0 0   0 0 0 0 0   0 0 0 0 0  0 0 0 0.5 0" type="matrix" in="shadowBlurOuter1"></feColorMatrix>
        </filter>
    </defs>
    <g id="Page-1" stroke="none" stroke-width="1" fill="none" fill-rule="evenodd">
        <g id="pin-eau" transform="translate(4.000000, 2.426103)">
            <g id="Combined-Shape">
                <use fill="black" fill-opacity="1" filter="url(#filter-2)" xlink:href="#path-1"></use>
                <path stroke="#FFFFFF" stroke-width="1" d="M13,0.5 C16.4526124,0.5 19.5786801,1.87890964 21.8413889,4.1092755 C24.1014735,6.33705474 25.5,9.4145267 25.5,12.8141796 C25.5,15.3358399 24.730691,17.6803845 23.4108171,19.6322284 C22.015301,21.6959329 20.0047956,23.3208964 17.637583,24.253165 L17.637583,24.253165 L14.3377386,30.7572125 C14.1936006,31.0413679 13.9627241,31.2722444 13.6785687,31.4163824 C13.3281521,31.5941314 12.9408543,31.6212185 12.5905073,31.521677 C12.2429355,31.422924 11.9315585,31.1997487 11.7288797,30.8752804 L11.7288797,30.8752804 L8.36321863,24.2534806 C5.99582246,23.3213279 3.98513542,21.6963912 2.58947326,19.6326578 C1.26942187,17.6807284 0.5,15.3360249 0.5,12.8141796 C0.5,9.4145267 1.89852652,6.33705474 4.15861113,4.1092755 C6.42131986,1.87890964 9.54738765,0.5 13,0.5 Z" stroke-linejoin="square" fill="#005596" fill-rule="evenodd"></path>
            </g>
            <g id="icon-eau" transform="translate(-1.000000, 0.242825)" fill="#FFFFFF">
                <path d="M11.4625172,10.1920376 C11.4625172,10.1920376 12.096675,11.1877173 12.8219102,12.4758964 C12.4233262,13.4421929 12.1555641,14.3180958 12.1555641,14.9303389 C12.1555465,16.6863172 13.151945,18.2127175 14.6085865,18.9763121 C14.0621224,20.1699777 12.8609533,21 11.4625172,21 C9.55047135,21 8,19.4494936 8,17.5374828 C8,15.6254721 11.4625172,10.1920376 11.4625172,10.1920376 Z M16.722072,7.00017532 C18.0157385,9.10521043 20.4119757,13.3341273 20.4119757,14.9304792 C20.4119757,16.9651419 18.7566295,18.6203829 16.722072,18.6203829 C16.0474509,18.6203829 15.417413,18.4354757 14.8715976,18.1183968 C13.7731469,17.4786639 13.031467,16.2905033 13.031467,14.9304266 C13.031467,14.5647322 13.1588525,14.0599936 13.3684093,13.4744688 C14.0738862,11.5061812 15.7249371,8.62305273 16.7220544,7 Z" id="Combined-Shape"></path>
            </g>
        </g>
    </g>
</svg>