<?xml version="1.0" encoding="UTF-8"?>
<svg width="34px" height="40px" viewBox="0 0 34 40" version="1.1" xmlns="http://www.w3.org/2000/svg" xmlns:xlink="http://www.w3.org/1999/xlink">
    <title>pin-santé</title>
    <defs>
        <path d="M13,0 C20.1797017,0 26,5.73710364 26,12.8141796 C26,18.145349 22.6971985,22.7161341 17.9984951,24.6468924 L14.7836515,30.9834021 C14.5914674,31.362276 14.2836322,31.6701113 13.9047582,31.8622953 C12.9196747,32.3619795 11.7160327,31.9684856 11.2163485,30.9834021 L11.2163485,30.9834021 L8.00250937,24.6473051 C3.30327221,22.7167855 0,18.1457288 0,12.8141796 C0,5.73710364 5.82029825,0 13,0 Z" id="path-1"></path>
        <filter x="-26.9%" y="-15.6%" width="153.8%" height="143.7%" filterUnits="objectBoundingBox" id="filter-2">
            <feOffset dx="0" dy="2" in="SourceAlpha" result="shadowOffsetOuter1"></feOffset>
            <feGaussianBlur stdDeviation="2" in="shadowOffsetOuter1" result="shadowBlurOuter1"></feGaussianBlur>
            <feComposite in="shadowBlurOuter1" in2="SourceAlpha" operator="out" result="shadowBlurOuter1"></feComposite>
            <feColorMatrix values="0 0 0 0 0   0 0 0 0 0   0 0 0 0 0  0 0 0 0.5 0" type="matrix" in="shadowBlurOuter1"></feColorMatrix>
        </filter>
    </defs>
    <g id="Page-1" stroke="none" stroke-width="1" fill="none" fill-rule="evenodd">
        <g id="pin-santé" transform="translate(4.000000, 1.954405)">
            <g id="Combined-Shape">
                <use fill="black" fill-opacity="1" filter="url(#filter-2)" xlink:href="#path-1"></use>
                <path stroke="#FFFFFF" stroke-width="1" d="M13,0.5 C16.4526124,0.5 19.5786801,1.87890964 21.8413889,4.1092755 C24.1014735,6.33705474 25.5,9.4145267 25.5,12.8141796 C25.5,15.3358399 24.730691,17.6803845 23.4108171,19.6322284 C22.015301,21.6959329 20.0047956,23.3208964 17.637583,24.253165 L17.637583,24.253165 L14.3377386,30.7572125 C14.1936006,31.0413679 13.9627241,31.2722444 13.6785687,31.4163824 C13.3281521,31.5941314 12.9408543,31.6212185 12.5905073,31.521677 C12.2429355,31.422924 11.9315585,31.1997487 11.7288797,30.8752804 L11.7288797,30.8752804 L8.36321863,24.2534806 C5.99582246,23.3213279 3.98513542,21.6963912 2.58947326,19.6326578 C1.26942187,17.6807284 0.5,15.3360249 0.5,12.8141796 C0.5,9.4145267 1.89852652,6.33705474 4.15861113,4.1092755 C6.42131986,1.87890964 9.54738765,0.5 13,0.5 Z" stroke-linejoin="square" fill="#F44336" fill-rule="evenodd"></path>
            </g>
            <g id="icon-santé" transform="translate(4.000000, 3.942825)" fill="#FFFFFF">
                <path d="M10.7134493,14.8713551 C11.035375,14.8713551 11.2967171,14.6100107 11.2967171,14.2880851 L11.2961396,11.1674872 L14.4161467,11.1674872 C14.7380724,11.1674872 14.9994145,10.9061451 14.9994145,10.5842194 L14.999992,7.1578978 C14.999992,6.83597214 14.7386499,6.57463001 14.4167242,6.57463001 L11.2967171,6.57463001 L11.2961396,3.45462292 C11.2961396,3.13269727 11.0347975,2.87135513 10.7128719,2.87135513 L7.28655022,2.87135513 C6.96462457,2.87135513 6.70328244,3.13269727 6.70328244,3.45462292 L6.70328244,6.57463001 L3.58327534,6.57463001 C3.26134969,6.57463001 3.000008,6.83597214 3.000008,7.1578978 L3.000008,10.5842194 C3.000008,10.9061451 3.26134969,11.1674872 3.58327534,11.1674872 L6.70328244,11.1674872 L6.70328244,14.2874943 C6.70328244,14.609996 6.96462457,14.8713551 7.28655022,14.8713551 L10.7134493,14.8713551 Z" id="Fill-1"></path>
            </g>
        </g>
    </g>
</svg>