<?xml version="1.0" encoding="UTF-8"?>
<svg width="34px" height="39px" viewBox="0 0 34 39" version="1.1" xmlns="http://www.w3.org/2000/svg" xmlns:xlink="http://www.w3.org/1999/xlink">
    <title>pin-justice</title>
    <defs>
        <path d="M13,0 C20.1797017,0 26,5.73710364 26,12.8141796 C26,18.145349 22.6971985,22.7161341 17.9984951,24.6468924 L14.7836515,30.9834021 C14.5914674,31.362276 14.2836322,31.6701113 13.9047582,31.8622953 C12.9196747,32.3619795 11.7160327,31.9684856 11.2163485,30.9834021 L11.2163485,30.9834021 L8.00250937,24.6473051 C3.30327221,22.7167855 0,18.1457288 0,12.8141796 C0,5.73710364 5.82029825,0 13,0 Z" id="path-1"></path>
        <filter x="-26.9%" y="-15.6%" width="153.8%" height="143.7%" filterUnits="objectBoundingBox" id="filter-2">
            <feOffset dx="0" dy="2" in="SourceAlpha" result="shadowOffsetOuter1"></feOffset>
            <feGaussianBlur stdDeviation="2" in="shadowOffsetOuter1" result="shadowBlurOuter1"></feGaussianBlur>
            <feComposite in="shadowBlurOuter1" in2="SourceAlpha" operator="out" result="shadowBlurOuter1"></feComposite>
            <feColorMatrix values="0 0 0 0 0   0 0 0 0 0   0 0 0 0 0  0 0 0 0.5 0" type="matrix" in="shadowBlurOuter1"></feColorMatrix>
        </filter>
    </defs>
    <g id="Page-1" stroke="none" stroke-width="1" fill="none" fill-rule="evenodd">
        <g id="pin-justice" transform="translate(4.000000, 1.539311)">
            <g id="Combined-Shape">
                <use fill="black" fill-opacity="1" filter="url(#filter-2)" xlink:href="#path-1"></use>
                <path stroke="#FFFFFF" stroke-width="1" d="M13,0.5 C16.4526124,0.5 19.5786801,1.87890964 21.8413889,4.1092755 C24.1014735,6.33705474 25.5,9.4145267 25.5,12.8141796 C25.5,15.3358399 24.730691,17.6803845 23.4108171,19.6322284 C22.015301,21.6959329 20.0047956,23.3208964 17.637583,24.253165 L17.637583,24.253165 L14.3377386,30.7572125 C14.1936006,31.0413679 13.9627241,31.2722444 13.6785687,31.4163824 C13.3281521,31.5941314 12.9408543,31.6212185 12.5905073,31.521677 C12.2429355,31.422924 11.9315585,31.1997487 11.7288797,30.8752804 L11.7288797,30.8752804 L8.36321863,24.2534806 C5.99582246,23.3213279 3.98513542,21.6963912 2.58947326,19.6326578 C1.26942187,17.6807284 0.5,15.3360249 0.5,12.8141796 C0.5,9.4145267 1.89852652,6.33705474 4.15861113,4.1092755 C6.42131986,1.87890964 9.54738765,0.5 13,0.5 Z" stroke-linejoin="square" fill="#90A8B5" fill-rule="evenodd"></path>
            </g>
            <g id="icon-justice" transform="translate(4.000000, 3.942825)" fill="#FFFFFF">
                <path d="M9.0004586,2.11322028 C9.31786003,2.11322028 9.57571816,2.37050118 9.57571816,2.68847983 L9.57571816,2.68847983 L9.57571816,3.5395212 C9.89023345,3.68060166 10.1434708,3.93267271 10.2845394,4.24834245 L10.2845394,4.24834245 L14.864622,4.24834245 C15.1826007,4.24834245 15.441036,4.50562335 15.441036,4.82360201 C15.441036,5.14215789 15.1826007,5.40001602 14.864622,5.40001602 L14.864622,5.40001602 L13.979465,5.40001602 L15.1802918,9.041289 L14.3720393,9.041289 L13.3862818,6.04991561 L12.3987926,9.041289 L11.5905401,9.041289 L12.7913669,5.40001602 L10.284421,5.40001602 C10.1439178,5.71453131 9.8912695,5.96661124 9.57559975,6.10883727 L9.57559975,6.10883727 L9.57559975,14.0341785 L11.370779,14.0341785 C11.8038777,14.0343576 12.1548175,14.3852974 12.1548175,14.8177593 L12.1548175,14.8177593 L12.1548175,15.62949 L5.84660291,15.6289119 L5.84660291,14.8171812 C5.84660291,14.3847187 6.19638831,14.0343561 6.62942776,14.0343561 L6.62942776,14.0343561 L8.42460701,14.0343561 L8.42460701,6.10842285 C8.11009173,5.9673424 7.85801179,5.71469412 7.71578576,5.3996016 L7.71578576,5.3996016 L5.20883992,5.3996016 L6.40908945,9.0413186 L5.60083697,9.0413186 L4.61450223,6.04994521 L3.62933675,9.04013455 L2.82108397,9.04013455 L4.02191103,5.39886157 L3.13733123,5.39886157 C2.81935243,5.39886157 2.56091707,5.14042621 2.56091707,4.82244755 C2.56091707,4.50504613 2.81935243,4.24718799 3.13733123,4.24718799 L3.13733123,4.24718799 L7.71637779,4.24718799 C7.85745825,3.93267271 8.1095293,3.68001407 8.42519904,3.53836674 L8.42519904,3.53836674 L8.42519904,2.68847983 C8.42519904,2.37107841 8.68247995,2.11322028 9.0004586,2.11322028 Z M7.22998175,9.80901712 C7.22998175,11.2532417 6.05977767,12.4245854 4.61439862,12.4240084 C3.1695968,12.4240084 2,11.2532417 2,9.80901712 L2,9.80901712 Z M16,9.80901712 C16,11.2532417 14.8309948,12.4240082 13.3856009,12.4240082 C11.9402071,12.4240082 10.7706098,11.2532417 10.7706098,9.80901712 L10.7706098,9.80901712 Z" id="Combined-Shape"></path>
            </g>
        </g>
    </g>
</svg>