<?xml version="1.0" encoding="UTF-8"?>
<svg width="34px" height="40px" viewBox="0 0 34 40" version="1.1" xmlns="http://www.w3.org/2000/svg" xmlns:xlink="http://www.w3.org/1999/xlink">
    <title>pin-automobile</title>
    <defs>
        <path d="M13,0 C20.1797017,0 26,5.73710364 26,12.8141796 C26,18.145349 22.6971985,22.7161341 17.9984951,24.6468924 L14.7836515,30.9834021 C14.5914674,31.362276 14.2836322,31.6701113 13.9047582,31.8622953 C12.9196747,32.3619795 11.7160327,31.9684856 11.2163485,30.9834021 L11.2163485,30.9834021 L8.00250937,24.6473051 C3.30327221,22.7167855 0,18.1457288 0,12.8141796 C0,5.73710364 5.82029825,0 13,0 Z" id="path-1"></path>
        <filter x="-26.9%" y="-15.6%" width="153.8%" height="143.7%" filterUnits="objectBoundingBox" id="filter-2">
            <feOffset dx="0" dy="2" in="SourceAlpha" result="shadowOffsetOuter1"></feOffset>
            <feGaussianBlur stdDeviation="2" in="shadowOffsetOuter1" result="shadowBlurOuter1"></feGaussianBlur>
            <feComposite in="shadowBlurOuter1" in2="SourceAlpha" operator="out" result="shadowBlurOuter1"></feComposite>
            <feColorMatrix values="0 0 0 0 0   0 0 0 0 0   0 0 0 0 0  0 0 0 0.5 0" type="matrix" in="shadowBlurOuter1"></feColorMatrix>
        </filter>
    </defs>
    <g id="Page-1" stroke="none" stroke-width="1" fill="none" fill-rule="evenodd">
        <g id="pin-automobile" transform="translate(4.000000, 2.011009)">
            <g id="Combined-Shape">
                <use fill="black" fill-opacity="1" filter="url(#filter-2)" xlink:href="#path-1"></use>
                <path stroke="#FFFFFF" stroke-width="1" d="M13,0.5 C16.4526124,0.5 19.5786801,1.87890964 21.8413889,4.1092755 C24.1014735,6.33705474 25.5,9.4145267 25.5,12.8141796 C25.5,15.3358399 24.730691,17.6803845 23.4108171,19.6322284 C22.015301,21.6959329 20.0047956,23.3208964 17.637583,24.253165 L17.637583,24.253165 L14.3377386,30.7572125 C14.1936006,31.0413679 13.9627241,31.2722444 13.6785687,31.4163824 C13.3281521,31.5941314 12.9408543,31.6212185 12.5905073,31.521677 C12.2429355,31.422924 11.9315585,31.1997487 11.7288797,30.8752804 L11.7288797,30.8752804 L8.36321863,24.2534806 C5.99582246,23.3213279 3.98513542,21.6963912 2.58947326,19.6326578 C1.26942187,17.6807284 0.5,15.3360249 0.5,12.8141796 C0.5,9.4145267 1.89852652,6.33705474 4.15861113,4.1092755 C6.42131986,1.87890964 9.54738765,0.5 13,0.5 Z" stroke-linejoin="square" fill="#005596" fill-rule="evenodd"></path>
            </g>
            <g id="icon-automobile" transform="translate(4.000000, 3.942825)" fill="#FFFFFF">
                <path d="M3.42575773,7.14781361 L4.40032406,4.50954445 C4.75690481,3.82044994 5.30379544,3.39222822 5.94528798,3.17839737 L12.0541607,3.17839737 C12.6962133,3.39222822 13.2190509,3.82044994 13.5991247,4.50954445 L14.573691,7.14781361 L15.8337431,7.14781361 C15.9289037,7.14781361 16,7.21890995 16,7.31407049 L16,7.83690812 C16,7.93206866 15.9289037,8.027232 15.8337431,8.027232 L15.0970746,8.027232 C15.3109055,8.28865081 15.5247503,8.5976436 15.7391272,9.00179832 C15.7391272,10.5943642 15.762644,12.1869301 15.762644,13.803577 C15.762644,14.2077317 15.4301302,14.5643129 15.0019085,14.5643129 L14.4790709,14.5643129 C14.0513952,14.5643129 13.7183354,14.2077317 13.7183354,13.803577 L13.7183354,12.8290107 L4.28166495,12.8290107 L4.28166495,13.803577 C4.28166495,14.2077317 3.94915119,14.5643129 3.52092947,14.5643129 L2.99809156,14.5643129 C2.57041586,14.5643129 2.23735608,14.2077317 2.23735608,13.803577 C2.23735608,12.1869301 2.26087285,10.5943642 2.26087285,9.00179832 C2.4747037,8.5976436 2.68854855,8.28863681 2.90292542,8.027232 L2.16625694,8.027232 C2.07109635,8.027232 2,7.93207146 2,7.83690812 L2,7.31407049 C2,7.21890995 2.07109635,7.14781361 2.16625694,7.14781361 L3.42630936,7.14781361 L3.42575773,7.14781361 Z M6.06402689,4.22407264 C5.65987217,4.29516898 5.39845335,4.5565864 5.25571745,4.88964618 C4.97023164,5.67390263 4.66123885,6.57741601 4.39982003,7.36158846 L13.5986206,7.36158846 C13.3372018,6.57733201 13.004142,5.67381862 12.7427232,4.88964618 C12.5764663,4.55713242 12.3385685,4.29516758 11.9344138,4.22407264 L6.06341227,4.22407264 L6.06402689,4.22407264 Z M13.3377478,9.07345329 C12.8624982,9.07345329 12.4818504,9.45354101 12.4818504,9.9293507 C12.4818504,10.4046004 12.8619382,10.7852481 13.3377478,10.7852481 C13.7894905,10.7852481 14.1695783,10.4051604 14.1695783,9.9293507 C14.1695783,9.45410104 13.7894905,9.07345329 13.3377478,9.07345329 Z M4.66172887,9.07345329 C5.13697854,9.07345329 5.51762628,9.45354101 5.51762628,9.9293507 C5.51762628,10.4046004 5.13753856,10.7852481 4.66172887,10.7852481 C4.20998618,10.7852481 3.82989845,10.4051604 3.82989845,9.9293507 C3.82989845,9.45410104 4.20998618,9.07345329 4.66172887,9.07345329 Z" id="Fill-1"></path>
            </g>
        </g>
    </g>
</svg>