<?xml version="1.0" encoding="UTF-8"?>
<svg width="34px" height="39px" viewBox="0 0 34 39" version="1.1" xmlns="http://www.w3.org/2000/svg" xmlns:xlink="http://www.w3.org/1999/xlink">
    <title>pin-immobilier</title>
    <defs>
        <path d="M13,0 C20.1797017,0 26,5.73710364 26,12.8141796 C26,18.145349 22.6971985,22.7161341 17.9984951,24.6468924 L14.7836515,30.9834021 C14.5914674,31.362276 14.2836322,31.6701113 13.9047582,31.8622953 C12.9196747,32.3619795 11.7160327,31.9684856 11.2163485,30.9834021 L11.2163485,30.9834021 L8.00250937,24.6473051 C3.30327221,22.7167855 0,18.1457288 0,12.8141796 C0,5.73710364 5.82029825,0 13,0 Z" id="path-1"></path>
        <filter x="-26.9%" y="-15.6%" width="153.8%" height="143.7%" filterUnits="objectBoundingBox" id="filter-2">
            <feOffset dx="0" dy="2" in="SourceAlpha" result="shadowOffsetOuter1"></feOffset>
            <feGaussianBlur stdDeviation="2" in="shadowOffsetOuter1" result="shadowBlurOuter1"></feGaussianBlur>
            <feComposite in="shadowBlurOuter1" in2="SourceAlpha" operator="out" result="shadowBlurOuter1"></feComposite>
            <feColorMatrix values="0 0 0 0 0   0 0 0 0 0   0 0 0 0 0  0 0 0 0.5 0" type="matrix" in="shadowBlurOuter1"></feColorMatrix>
        </filter>
    </defs>
    <g id="Page-1" stroke="none" stroke-width="1" fill="none" fill-rule="evenodd">
        <g id="pin-immobilier" transform="translate(4.000000, 1.539311)">
            <g id="Combined-Shape">
                <use fill="black" fill-opacity="1" filter="url(#filter-2)" xlink:href="#path-1"></use>
                <path stroke="#FFFFFF" stroke-width="1" d="M13,0.5 C16.4526124,0.5 19.5786801,1.87890964 21.8413889,4.1092755 C24.1014735,6.33705474 25.5,9.4145267 25.5,12.8141796 C25.5,15.3358399 24.730691,17.6803845 23.4108171,19.6322284 C22.015301,21.6959329 20.0047956,23.3208964 17.637583,24.253165 L17.637583,24.253165 L14.3377386,30.7572125 C14.1936006,31.0413679 13.9627241,31.2722444 13.6785687,31.4163824 C13.3281521,31.5941314 12.9408543,31.6212185 12.5905073,31.521677 C12.2429355,31.422924 11.9315585,31.1997487 11.7288797,30.8752804 L11.7288797,30.8752804 L8.36321863,24.2534806 C5.99582246,23.3213279 3.98513542,21.6963912 2.58947326,19.6326578 C1.26942187,17.6807284 0.5,15.3360249 0.5,12.8141796 C0.5,9.4145267 1.89852652,6.33705474 4.15861113,4.1092755 C6.42131986,1.87890964 9.54738765,0.5 13,0.5 Z" stroke-linejoin="square" fill="#03B38B" fill-rule="evenodd"></path>
            </g>
            <g id="Group" transform="translate(4.000000, 3.942825)">
                <g id="Group" transform="translate(1.750000, 1.871355)">
                    <path d="M7.5,0.5 C9.22408753,0.5 10.8769952,1.18489766 12.0963316,2.40346155 C13.3151285,3.62297156 14,5.27591704 14,7 C14,8.72408753 13.3151023,10.3769952 12.0965385,11.5963316 C10.8770284,12.8151285 9.22408296,13.5 7.5,13.5 C5.77591247,13.5 4.12300484,12.8151023 2.90366836,11.5965385 C1.68487152,10.3770284 1,8.72408296 1,7 C1,5.27591247 1.68489766,3.62300484 2.90346155,2.40366836 C4.12297156,1.18487152 5.77589723,0.5 7.5,0.5 Z" id="Path" stroke="#FFFFFF"></path>
                    <path d="M11.2596965,9.61519922 C11.2596965,9.7870753 11.1912142,9.95223791 11.0690206,10.0744177 C10.9468271,10.1966113 10.7816645,10.2650936 10.6098021,10.2650936 L9.16497738,10.2650936 C9.13543532,10.2650936 9.1112661,10.2409244 9.1112661,10.2113824 L9.1112661,8.17035385 C9.10857796,7.54864368 8.60502228,7.0451155 7.98334649,7.04243424 L7.01654351,7.04243424 C6.39483334,7.04511894 5.89130516,7.54867806 5.8886239,8.17035385 L5.8886239,10.2113824 C5.8886239,10.2409244 5.86445124,10.2650936 5.83491262,10.2650936 L4.39008788,10.2650936 C4.21821179,10.2650936 4.05304919,10.1966113 3.93086936,10.0744177 C3.80867577,9.95222416 3.74019347,9.78706155 3.74019347,9.61519922 L3.74019347,5.65654924 C3.73616469,5.44438884 3.83687376,5.24432164 4.00874985,5.11943648 L7.11864134,2.85820034 C7.34557278,2.69169366 7.65441347,2.69169366 7.88135866,2.85820034 L10.9912502,5.11943648 C11.1631262,5.24431477 11.2638353,5.44438884 11.2598065,5.65654924 L11.2598065,9.6203555 L11.2596965,9.61519922 Z" id="Path" fill="#FFFFFF"></path>
                    <line x1="2.5" y1="11.5" x2="0.5" y2="13.5" id="Line-7" stroke="#FFFFFF" stroke-linecap="round" stroke-linejoin="round"></line>
                </g>
            </g>
        </g>
    </g>
</svg>