<?xml version="1.0" encoding="UTF-8"?>
<svg width="34px" height="40px" viewBox="0 0 34 40" version="1.1" xmlns="http://www.w3.org/2000/svg" xmlns:xlink="http://www.w3.org/1999/xlink">
    <title>pin-petrole</title>
    <defs>
        <path d="M13,0 C20.1797017,0 26,5.73710364 26,12.8141796 C26,18.145349 22.6971985,22.7161341 17.9984951,24.6468924 L14.7836515,30.9834021 C14.5914674,31.362276 14.2836322,31.6701113 13.9047582,31.8622953 C12.9196747,32.3619795 11.7160327,31.9684856 11.2163485,30.9834021 L11.2163485,30.9834021 L8.00250937,24.6473051 C3.30327221,22.7167855 0,18.1457288 0,12.8141796 C0,5.73710364 5.82029825,0 13,0 Z" id="path-1"></path>
        <filter x="-26.9%" y="-15.6%" width="153.8%" height="143.7%" filterUnits="objectBoundingBox" id="filter-2">
            <feOffset dx="0" dy="2" in="SourceAlpha" result="shadowOffsetOuter1"></feOffset>
            <feGaussianBlur stdDeviation="2" in="shadowOffsetOuter1" result="shadowBlurOuter1"></feGaussianBlur>
            <feComposite in="shadowBlurOuter1" in2="SourceAlpha" operator="out" result="shadowBlurOuter1"></feComposite>
            <feColorMatrix values="0 0 0 0 0   0 0 0 0 0   0 0 0 0 0  0 0 0 0.5 0" type="matrix" in="shadowBlurOuter1"></feColorMatrix>
        </filter>
    </defs>
    <g id="Page-1" stroke="none" stroke-width="1" fill="none" fill-rule="evenodd">
        <g id="pin-petrole" transform="translate(4.000000, 2.011009)">
            <g id="Combined-Shape">
                <use fill="black" fill-opacity="1" filter="url(#filter-2)" xlink:href="#path-1"></use>
                <path stroke="#FFFFFF" stroke-width="1" d="M13,0.5 C16.4526124,0.5 19.5786801,1.87890964 21.8413889,4.1092755 C24.1014735,6.33705474 25.5,9.4145267 25.5,12.8141796 C25.5,15.3358399 24.730691,17.6803845 23.4108171,19.6322284 C22.015301,21.6959329 20.0047956,23.3208964 17.637583,24.253165 L17.637583,24.253165 L14.3377386,30.7572125 C14.1936006,31.0413679 13.9627241,31.2722444 13.6785687,31.4163824 C13.3281521,31.5941314 12.9408543,31.6212185 12.5905073,31.521677 C12.2429355,31.422924 11.9315585,31.1997487 11.7288797,30.8752804 L11.7288797,30.8752804 L8.36321863,24.2534806 C5.99582246,23.3213279 3.98513542,21.6963912 2.58947326,19.6326578 C1.26942187,17.6807284 0.5,15.3360249 0.5,12.8141796 C0.5,9.4145267 1.89852652,6.33705474 4.15861113,4.1092755 C6.42131986,1.87890964 9.54738765,0.5 13,0.5 Z" stroke-linejoin="square" fill="#005596" fill-rule="evenodd"></path>
            </g>
            <g id="icon-petrole" transform="translate(4.000000, 3.942825)" fill="#FFFFFF">
                <path d="M14.0029591,7.97276314 L13.6178505,7.66453915 C13.4867354,7.55950857 13.3604319,7.37416998 13.2684339,7.17578121 L13.4812331,7.17578121 C13.7709169,7.17578121 14.0084421,6.93825596 14.0084421,6.64857215 L14.0084421,4.53973592 C14.0084421,4.25005211 13.7709169,4.01252686 13.4812331,4.01252686 L12.954024,4.01252686 L12.954024,1.87135513 L12.6025513,1.87135513 L11.8996059,4.01252686 L11.8996059,7.17578121 L12.1501708,7.17578121 C12.2840327,7.6817086 12.5874555,8.19037747 12.9595246,8.48761794 L13.3446332,8.79584193 C13.5951981,8.99697218 13.8327058,9.4905453 13.8327058,9.81180893 L13.8327058,14.3809541 C13.8327058,14.5717862 13.6720722,14.7324268 13.4812331,14.7324268 C13.2903939,14.7324268 13.1297604,14.5717932 13.1297604,14.3809541 L13.1297604,10.5147543 C13.1297604,9.7713017 12.5551904,9.09376777 11.8227212,8.97157828 L11.1582269,8.86105593 L11.1575416,3.9803302 C11.1575416,3.01378026 10.366728,2.22296667 9.40017804,2.22296667 L4.87022207,2.22296667 C3.90367213,2.22296667 3.11285854,3.01378026 3.11285854,3.9803302 L3.11285854,15.8713551 L11.1575416,15.8713551 L11.1575416,9.92988443 L11.6490586,10.0115737 C11.8721559,10.0486435 12.0753598,10.2882179 12.0753598,10.5147596 L12.0753598,14.3809594 C12.0753598,15.1559918 12.7062182,15.7868509 13.4812506,15.7868509 C14.2562831,15.7868509 14.8871415,15.1559918 14.8871415,14.3809594 L14.8871415,9.8118142 C14.8871415,9.16652789 14.5068304,8.3757143 14.0029767,7.97273327 L14.0029591,7.97276314 Z M10.328312,6.90873225 L4.04099251,6.90873225 L4.04099251,3.98026166 C4.04099251,3.49561595 4.43502856,3.1015799 4.91967428,3.1015799 L9.44963025,3.1015799 C9.93427596,3.1015799 10.328312,3.49561595 10.328312,3.98026166 L10.328312,6.90873225 Z" id="Fill-1"></path>
            </g>
        </g>
    </g>
</svg>