<?xml version="1.0" encoding="UTF-8"?>
<svg width="34px" height="40px" viewBox="0 0 34 40" version="1.1" xmlns="http://www.w3.org/2000/svg" xmlns:xlink="http://www.w3.org/1999/xlink">
    <title>pin-commerce</title>
    <defs>
        <path d="M13,0 C20.1797017,0 26,5.73710364 26,12.8141796 C26,18.145349 22.6971985,22.7161341 17.9984951,24.6468924 L14.7836515,30.9834021 C14.5914674,31.362276 14.2836322,31.6701113 13.9047582,31.8622953 C12.9196747,32.3619795 11.7160327,31.9684856 11.2163485,30.9834021 L11.2163485,30.9834021 L8.00250937,24.6473051 C3.30327221,22.7167855 0,18.1457288 0,12.8141796 C0,5.73710364 5.82029825,0 13,0 Z" id="path-1"></path>
        <filter x="-26.9%" y="-15.6%" width="153.8%" height="143.7%" filterUnits="objectBoundingBox" id="filter-2">
            <feOffset dx="0" dy="2" in="SourceAlpha" result="shadowOffsetOuter1"></feOffset>
            <feGaussianBlur stdDeviation="2" in="shadowOffsetOuter1" result="shadowBlurOuter1"></feGaussianBlur>
            <feComposite in="shadowBlurOuter1" in2="SourceAlpha" operator="out" result="shadowBlurOuter1"></feComposite>
            <feColorMatrix values="0 0 0 0 0   0 0 0 0 0   0 0 0 0 0  0 0 0 0.5 0" type="matrix" in="shadowBlurOuter1"></feColorMatrix>
        </filter>
    </defs>
    <g id="Page-1" stroke="none" stroke-width="1" fill="none" fill-rule="evenodd">
        <g id="pin-commerce" transform="translate(4.000000, 1.595915)">
            <g id="Combined-Shape">
                <use fill="black" fill-opacity="1" filter="url(#filter-2)" xlink:href="#path-1"></use>
                <path stroke="#FFFFFF" stroke-width="1" d="M13,0.5 C16.4526124,0.5 19.5786801,1.87890964 21.8413889,4.1092755 C24.1014735,6.33705474 25.5,9.4145267 25.5,12.8141796 C25.5,15.3358399 24.730691,17.6803845 23.4108171,19.6322284 C22.015301,21.6959329 20.0047956,23.3208964 17.637583,24.253165 L17.637583,24.253165 L14.3377386,30.7572125 C14.1936006,31.0413679 13.9627241,31.2722444 13.6785687,31.4163824 C13.3281521,31.5941314 12.9408543,31.6212185 12.5905073,31.521677 C12.2429355,31.422924 11.9315585,31.1997487 11.7288797,30.8752804 L11.7288797,30.8752804 L8.36321863,24.2534806 C5.99582246,23.3213279 3.98513542,21.6963912 2.58947326,19.6326578 C1.26942187,17.6807284 0.5,15.3360249 0.5,12.8141796 C0.5,9.4145267 1.89852652,6.33705474 4.15861113,4.1092755 C6.42131986,1.87890964 9.54738765,0.5 13,0.5 Z" stroke-linejoin="square" fill="#6D7278" fill-rule="evenodd"></path>
            </g>
            <g id="icon-commerce" transform="translate(4.000000, 3.942825)" fill="#FFFFFF">
                <path d="M11.2630944,11.8352673 L14.005666,14.0290724 L11.2630944,16.2228775 L11.2630944,14.8171677 L7.32403656,14.8171677 L7.32403656,13.2409771 L11.2630944,13.2409771 L11.2630944,11.8352673 Z M6.73690556,9.59733251 L6.73690556,11.0030423 L10.6759634,11.0030423 L10.6759634,12.5792329 L6.73690556,12.5792329 L6.73690556,13.9849427 L3.99433395,11.7911376 L6.73690556,9.59733251 Z M10.0269081,8.85741373 C9.92499746,8.90836904 9.77213152,8.90836904 9.6702046,8.95932435 L9.46638336,9.01027966 L9.46638336,9.51983276 L8.75300902,9.51983276 L8.75300902,9.01027966 L8.6510984,9.01027966 C7.27528872,8.7045478 6.61288599,7.99117346 6.71479661,6.92112825 L7.98866306,6.92112825 L7.98866306,7.07399418 L7.98866306,7.1759048 C8.03961837,7.6854579 8.34536653,7.99118976 8.85488702,8.04212877 L9.16061889,8.04212877 C9.56826137,8.04212877 9.82302161,7.83830753 9.92496484,7.48160405 C10.0778308,7.07396157 9.92496484,6.66631909 9.61923298,6.46249785 C9.46636705,6.36058723 9.26252951,6.25867661 9.10967988,6.2077213 L9.05872457,6.2077213 C9.00776926,6.15676599 8.90585864,6.15676599 8.85490333,6.10581068 C8.75299271,6.05485536 8.60012678,6.00390005 8.44726085,5.90198943 C8.14152899,5.7491235 7.83579713,5.64721288 7.58103688,5.44340795 C7.07148378,5.08670447 6.81669092,4.47524075 6.86766254,3.86377703 C6.91861785,3.2013743 7.27530502,2.64084958 7.83582974,2.38608934 C8.03965098,2.28417872 8.19253322,2.23322341 8.44729346,2.1822681 C8.49824877,2.1822681 8.60015939,2.13131279 8.6511147,2.13131279 L8.75302532,2.08035748 L8.75302532,1.51983276 L9.46639966,1.51983276 L9.46639966,2.13129648 L9.56831028,2.13129648 C10.2816846,2.28416241 10.6893271,2.58987797 10.995059,3.04849207 C11.1988802,3.35422393 11.3007908,3.81283802 11.2498355,4.16950889 L9.97596907,4.16950889 L9.97596907,4.01664296 C9.97596907,3.91473234 9.92501376,3.81282172 9.92501376,3.65993948 C9.82310314,3.30323601 9.51737128,3.09941476 9.1097288,3.09941476 C8.70208632,3.09941476 8.44732607,3.2522807 8.34538284,3.60896787 C8.19251691,4.01661035 8.29442753,4.42425283 8.60015939,4.62807407 C8.80398063,4.78094 9.00780187,4.83189531 9.21162311,4.93380593 C9.31353373,4.98476124 9.36448904,4.98476124 9.46639966,5.03571655 C9.56831028,5.08667186 9.72117621,5.13762717 9.82310314,5.18858248 C10.0778797,5.2904931 10.3326562,5.39240372 10.5364775,5.54528596 C11.1988802,5.95292844 11.4536731,6.56439216 11.3517624,7.43061613 C11.2498355,8.14403939 10.7912214,8.65359249 10.0269081,8.85741373 Z" id="Combined-Shape"></path>
            </g>
        </g>
    </g>
</svg>