<?xml version="1.0" encoding="UTF-8"?>
<svg width="34px" height="40px" viewBox="0 0 34 40" version="1.1" xmlns="http://www.w3.org/2000/svg" xmlns:xlink="http://www.w3.org/1999/xlink">
    <title>pin-bienetre</title>
    <defs>
        <path d="M13,0 C20.1797017,0 26,5.73710364 26,12.8141796 C26,18.145349 22.6971985,22.7161341 17.9984951,24.6468924 L14.7836515,30.9834021 C14.5914674,31.362276 14.2836322,31.6701113 13.9047582,31.8622953 C12.9196747,32.3619795 11.7160327,31.9684856 11.2163485,30.9834021 L11.2163485,30.9834021 L8.00250937,24.6473051 C3.30327221,22.7167855 0,18.1457288 0,12.8141796 C0,5.73710364 5.82029825,0 13,0 Z" id="path-1"></path>
        <filter x="-26.9%" y="-15.6%" width="153.8%" height="143.7%" filterUnits="objectBoundingBox" id="filter-2">
            <feOffset dx="0" dy="2" in="SourceAlpha" result="shadowOffsetOuter1"></feOffset>
            <feGaussianBlur stdDeviation="2" in="shadowOffsetOuter1" result="shadowBlurOuter1"></feGaussianBlur>
            <feComposite in="shadowBlurOuter1" in2="SourceAlpha" operator="out" result="shadowBlurOuter1"></feComposite>
            <feColorMatrix values="0 0 0 0 0   0 0 0 0 0   0 0 0 0 0  0 0 0 0.5 0" type="matrix" in="shadowBlurOuter1"></feColorMatrix>
        </filter>
    </defs>
    <g id="Page-1" stroke="none" stroke-width="1" fill="none" fill-rule="evenodd">
        <g id="pin-bienetre" transform="translate(4.000000, 2.426103)">
            <g id="Combined-Shape">
                <use fill="black" fill-opacity="1" filter="url(#filter-2)" xlink:href="#path-1"></use>
                <path stroke="#FFFFFF" stroke-width="1" d="M13,0.5 C16.4526124,0.5 19.5786801,1.87890964 21.8413889,4.1092755 C24.1014735,6.33705474 25.5,9.4145267 25.5,12.8141796 C25.5,15.3358399 24.730691,17.6803845 23.4108171,19.6322284 C22.015301,21.6959329 20.0047956,23.3208964 17.637583,24.253165 L17.637583,24.253165 L14.3377386,30.7572125 C14.1936006,31.0413679 13.9627241,31.2722444 13.6785687,31.4163824 C13.3281521,31.5941314 12.9408543,31.6212185 12.5905073,31.521677 C12.2429355,31.422924 11.9315585,31.1997487 11.7288797,30.8752804 L11.7288797,30.8752804 L8.36321863,24.2534806 C5.99582246,23.3213279 3.98513542,21.6963912 2.58947326,19.6326578 C1.26942187,17.6807284 0.5,15.3360249 0.5,12.8141796 C0.5,9.4145267 1.89852652,6.33705474 4.15861113,4.1092755 C6.42131986,1.87890964 9.54738765,0.5 13,0.5 Z" stroke-linejoin="square" fill="#7A5FDB" fill-rule="evenodd"></path>
            </g>
            <g id="icon-bienetre" transform="translate(-1.000000, 0.242825)" fill="#FFFFFF">
                <path d="M15.0438249,18.2330819 C14.86981,18.2024113 14.6964437,18.1637405 14.5237602,18.1177354 C15.4465256,17.2029581 16.0852686,16.0215344 16.3439611,14.7480423 C17.9034726,13.4505518 20.061684,13.0232551 22,13.6199069 C21.28991,16.7262307 18.1889116,18.7905134 15.043842,18.2330512 L15.0438249,18.2330819 Z M12.9568409,18.2330819 C9.81177131,18.7904758 6.71073829,16.7262444 6,13.6192549 C7.93882824,13.0225178 10.0964764,13.4499014 11.6560391,14.7473903 C11.9140658,16.0175369 12.5514776,17.2076657 13.47624,18.1170834 C13.3042221,18.1637559 13.1308729,18.2017593 12.9568409,18.2330973 L12.9568409,18.2330819 Z M9.38112925,10.2381258 C10.290564,10.4461585 11.127935,10.8575301 11.8386736,11.429603 C11.5733073,12.2556916 11.4752991,13.1264659 11.5479774,13.9912661 C10.8358904,13.4958827 10.032469,13.1458388 9.18431063,12.9624873 C9.0436274,12.060375 9.10630178,11.1296556 9.3809927,10.2381258 L9.38112925,10.2381258 Z M12.4674827,11.2609135 C12.7968565,10.4101437 13.3169212,9.63473192 14.0003329,9 C15.2364788,10.1481399 15.95384,11.7977226 15.9398437,13.4858122 C15.9265097,15.1406691 15.212429,16.7515572 14.0003329,17.8775761 C12.2053936,16.2100542 11.5834119,13.5477714 12.4674827,11.2607428 L12.4674827,11.2609135 Z M18.6195366,10.2380917 C18.8942395,11.1295702 18.9569156,12.0610577 18.8162187,12.9624532 C17.9681115,13.1458046 17.1646901,13.4965142 16.4525519,13.991232 C16.5252268,13.1264659 16.4272152,12.2563743 16.1618557,11.4295689 C16.8719457,10.8568303 17.7100335,10.4461244 18.6194001,10.2380917 L18.6195366,10.2380917 Z" id="Combined-Shape"></path>
            </g>
        </g>
    </g>
</svg>