<?xml version="1.0" encoding="UTF-8"?>
<svg width="34px" height="40px" viewBox="0 0 34 40" version="1.1" xmlns="http://www.w3.org/2000/svg" xmlns:xlink="http://www.w3.org/1999/xlink">
    <title>pin-communication</title>
    <defs>
        <path d="M13,0 C20.1797017,0 26,5.73710364 26,12.8141796 C26,18.145349 22.6971985,22.7161341 17.9984951,24.6468924 L14.7836515,30.9834021 C14.5914674,31.362276 14.2836322,31.6701113 13.9047582,31.8622953 C12.9196747,32.3619795 11.7160327,31.9684856 11.2163485,30.9834021 L11.2163485,30.9834021 L8.00250937,24.6473051 C3.30327221,22.7167855 0,18.1457288 0,12.8141796 C0,5.73710364 5.82029825,0 13,0 Z" id="path-1"></path>
        <filter x="-26.9%" y="-15.6%" width="153.8%" height="143.7%" filterUnits="objectBoundingBox" id="filter-2">
            <feOffset dx="0" dy="2" in="SourceAlpha" result="shadowOffsetOuter1"></feOffset>
            <feGaussianBlur stdDeviation="2" in="shadowOffsetOuter1" result="shadowBlurOuter1"></feGaussianBlur>
            <feComposite in="shadowBlurOuter1" in2="SourceAlpha" operator="out" result="shadowBlurOuter1"></feComposite>
            <feColorMatrix values="0 0 0 0 0   0 0 0 0 0   0 0 0 0 0  0 0 0 0.5 0" type="matrix" in="shadowBlurOuter1"></feColorMatrix>
        </filter>
    </defs>
    <g id="Page-1" stroke="none" stroke-width="1" fill="none" fill-rule="evenodd">
        <g id="pin-communication" transform="translate(4.000000, 2.426103)">
            <g id="Combined-Shape">
                <use fill="black" fill-opacity="1" filter="url(#filter-2)" xlink:href="#path-1"></use>
                <path stroke="#FFFFFF" stroke-width="1" d="M13,0.5 C16.4526124,0.5 19.5786801,1.87890964 21.8413889,4.1092755 C24.1014735,6.33705474 25.5,9.4145267 25.5,12.8141796 C25.5,15.3358399 24.730691,17.6803845 23.4108171,19.6322284 C22.015301,21.6959329 20.0047956,23.3208964 17.637583,24.253165 L17.637583,24.253165 L14.3377386,30.7572125 C14.1936006,31.0413679 13.9627241,31.2722444 13.6785687,31.4163824 C13.3281521,31.5941314 12.9408543,31.6212185 12.5905073,31.521677 C12.2429355,31.422924 11.9315585,31.1997487 11.7288797,30.8752804 L11.7288797,30.8752804 L8.36321863,24.2534806 C5.99582246,23.3213279 3.98513542,21.6963912 2.58947326,19.6326578 C1.26942187,17.6807284 0.5,15.3360249 0.5,12.8141796 C0.5,9.4145267 1.89852652,6.33705474 4.15861113,4.1092755 C6.42131986,1.87890964 9.54738765,0.5 13,0.5 Z" stroke-linejoin="square" fill="#3C8694" fill-rule="evenodd"></path>
            </g>
            <g id="icon-communication-" transform="translate(4.000000, 3.942825)" fill="#FFFFFF">
                <path d="M12.9721065,2.37154262 C12.7385114,2.37205091 12.5099992,2.44111286 12.3150007,2.57009004 C12.3114466,2.57009004 12.3078911,2.57009004 12.3078911,2.57364421 C12.2896106,2.58227744 12.2728525,2.59344825 12.2571109,2.60614395 C12.2393374,2.62340911 12.2200404,2.63915199 12.1992211,2.65336997 C12.146409,2.69094747 12.0956275,2.73157215 12.0478893,2.7757523 C11.2460556,3.41152524 8.2595894,5.704759 5.65259014,6.65791142 C5.63938744,6.66146689 5.62720004,6.66755994 5.61653622,6.67568487 C5.61095017,6.67619317 5.60536541,6.67873205 5.60180994,6.68330281 C5.46013707,6.73256072 5.32708313,6.80466855 5.20826407,6.89607212 C4.94928013,6.69701771 4.63240765,6.58833857 4.30588925,6.58580359 C3.30905757,6.58580359 2.500074,7.61157343 2.500074,8.87144541 C2.500074,10.1318244 3.30901857,11.1570872 4.30588925,11.1570872 C4.63240765,11.1545483 4.94928013,11.045877 5.20826407,10.8468187 C5.33166169,10.941779 5.469276,11.0159213 5.61653882,11.0672059 C5.62720264,11.0753309 5.63939004,11.0814252 5.65259274,11.0849794 C5.68509248,11.0956432 5.71759222,11.1103695 5.75009196,11.1210333 L5.75009196,14.2881982 C5.75009196,14.8864016 6.2350531,15.3713497 6.83324334,15.3713497 C7.43195358,15.3713497 7.91690172,14.8863885 7.91690172,14.2881982 L7.91690172,12.1573851 C9.36054024,12.9917184 10.7413893,13.930701 12.0478789,14.967053 C12.0956132,15.0112318 12.1463934,15.0518565 12.1992107,15.0894353 C12.2200313,15.1036546 12.239327,15.1193962 12.2571005,15.1366613 C12.2728421,15.1493566 12.2896002,15.1605278 12.3078807,15.1691611 C12.3078807,15.1727158 12.3114362,15.1727158 12.3149903,15.1727158 C12.5099888,15.3016994 12.738501,15.3707561 12.9720961,15.3713497 C14.6112531,15.3713497 15.499926,12.0237903 15.499926,8.87131541 C15.499926,5.71884049 14.6117731,2.37136062 12.9720961,2.37136062 L12.9721065,2.37154262 Z M7.19430247,14.2882879 C7.19430247,14.4873424 7.03281776,14.6493341 6.83325634,14.6493341 C6.63420193,14.6493341 6.47221022,14.4873424 6.47221022,14.2882879 L6.47221022,11.4206406 C6.71036832,11.5288037 6.9525954,11.6445898 7.19431547,11.7710268 L7.19430247,14.2882879 Z M11.1669409,8.87149091 C11.1669409,8.3189953 11.192331,7.79545047 11.23905,7.31150332 C11.7915456,7.36939316 12.250091,8.05899737 12.250091,8.87149091 C12.250091,9.68398444 11.7915456,10.373629 11.23905,10.4314785 C11.191824,9.94753135 11.1669409,9.42398651 11.1669409,8.87149091 Z M12.9727565,14.6492952 L12.9722482,14.6492952 C12.8676393,14.6462484 12.7670968,14.6112094 12.6832995,14.5482418 C12.6726357,14.5421481 12.6629872,14.5350391 12.6543539,14.5264059 C12.6116987,14.5005075 12.5731046,14.469023 12.5390813,14.4324608 C12.5350188,14.4278906 12.529941,14.4243359 12.524355,14.4217968 C12.0510807,13.9632514 11.5635846,12.8186495 11.3218645,11.1464728 C12.2430242,11.0489736 12.9722014,10.0668704 12.9722014,8.87149091 C12.9722014,7.67611142 12.2429852,6.69400823 11.3218645,6.596509 C11.5635846,4.9248523 12.0510807,3.77969141 12.524355,3.32118506 C12.529941,3.31864618 12.5350201,3.31509071 12.5390813,3.31052125 C12.5731046,3.27395904 12.6116974,3.24247459 12.6543539,3.21657619 C12.6629872,3.20794296 12.6726344,3.20083462 12.6832995,3.19474027 C12.7670877,3.13177137 12.867638,3.09673275 12.9722482,3.09368687 C13.7232912,3.09368687 14.7780638,5.29300937 14.7780638,8.87149091 C14.7780638,12.4499724 13.7233432,14.6492952 12.9722482,14.6492952 L12.9727565,14.6492952 Z" id="Fill-1"></path>
            </g>
        </g>
    </g>
</svg>