<?xml version="1.0" encoding="UTF-8"?>
<svg width="34px" height="40px" viewBox="0 0 34 40" version="1.1" xmlns="http://www.w3.org/2000/svg" xmlns:xlink="http://www.w3.org/1999/xlink">
    <title>pin-achats</title>
    <defs>
        <path d="M13,0 C20.1797017,0 26,5.73710364 26,12.8141796 C26,18.145349 22.6971985,22.7161341 17.9984951,24.6468924 L14.7836515,30.9834021 C14.5914674,31.362276 14.2836322,31.6701113 13.9047582,31.8622953 C12.9196747,32.3619795 11.7160327,31.9684856 11.2163485,30.9834021 L11.2163485,30.9834021 L8.00250937,24.6473051 C3.30327221,22.7167855 0,18.1457288 0,12.8141796 C0,5.73710364 5.82029825,0 13,0 Z" id="path-1"></path>
        <filter x="-26.9%" y="-15.6%" width="153.8%" height="143.7%" filterUnits="objectBoundingBox" id="filter-2">
            <feOffset dx="0" dy="2" in="SourceAlpha" result="shadowOffsetOuter1"></feOffset>
            <feGaussianBlur stdDeviation="2" in="shadowOffsetOuter1" result="shadowBlurOuter1"></feGaussianBlur>
            <feComposite in="shadowBlurOuter1" in2="SourceAlpha" operator="out" result="shadowBlurOuter1"></feComposite>
            <feColorMatrix values="0 0 0 0 0   0 0 0 0 0   0 0 0 0 0  0 0 0 0.5 0" type="matrix" in="shadowBlurOuter1"></feColorMatrix>
        </filter>
    </defs>
    <g id="Page-1" stroke="none" stroke-width="1" fill="none" fill-rule="evenodd">
        <g id="pin-achats" transform="translate(4.000000, 2.426103)">
            <g id="Combined-Shape">
                <use fill="black" fill-opacity="1" filter="url(#filter-2)" xlink:href="#path-1"></use>
                <path stroke="#FFFFFF" stroke-width="1" d="M13,0.5 C16.4526124,0.5 19.5786801,1.87890964 21.8413889,4.1092755 C24.1014735,6.33705474 25.5,9.4145267 25.5,12.8141796 C25.5,15.3358399 24.730691,17.6803845 23.4108171,19.6322284 C22.015301,21.6959329 20.0047956,23.3208964 17.637583,24.253165 L17.637583,24.253165 L14.3377386,30.7572125 C14.1936006,31.0413679 13.9627241,31.2722444 13.6785687,31.4163824 C13.3281521,31.5941314 12.9408543,31.6212185 12.5905073,31.521677 C12.2429355,31.422924 11.9315585,31.1997487 11.7288797,30.8752804 L11.7288797,30.8752804 L8.36321863,24.2534806 C5.99582246,23.3213279 3.98513542,21.6963912 2.58947326,19.6326578 C1.26942187,17.6807284 0.5,15.3360249 0.5,12.8141796 C0.5,9.4145267 1.89852652,6.33705474 4.15861113,4.1092755 C6.42131986,1.87890964 9.54738765,0.5 13,0.5 Z" stroke-linejoin="square" fill="#2196F3" fill-rule="evenodd"></path>
            </g>
            <g id="icon-achats" transform="translate(-1.000000, 0.242825)" fill="#FFFFFF">
                <path d="M20.3656223,12.1209689 L19.3318735,12.1209689 L16.9690191,9.24124004 C16.7324973,8.96088736 16.3338838,8.9164657 16.0535311,9.15240262 C15.7731784,9.38892435 15.7287568,9.7875379 15.9646937,10.0678906 L17.6479321,12.120325 L10.3672392,12.1209024 L12.0504776,10.068468 C12.2869994,9.78811532 12.2425777,9.37449765 11.9616402,9.15298004 C11.6812875,8.93146244 11.2676699,8.96087998 11.0461523,9.24181746 L8.6832978,12.1215463 L7.64954869,12.1215463 C7.29535681,12.1215463 7,12.4169031 7,12.771095 C7,13.1252869 7.29535681,13.4206437 7.64954869,13.4206437 L8.26968013,13.4206437 L9.21573752,19.2983903 C9.26015623,19.6087513 9.54051186,19.8446823 9.86528621,19.8446823 L18.1352768,19.8446823 C18.4600511,19.8446823 18.7259904,19.6081606 18.7848255,19.2983903 L19.729731,13.4357054 L20.3498621,13.4357054 C20.704054,13.4357054 20.9994108,13.1403486 20.9994108,12.7861567 C21.0149864,12.4163848 20.7196341,12.121028 20.3654274,12.121028 L20.3656223,12.1209689 Z M11.9479534,17.1864858 C11.9479534,17.5406777 11.6525966,17.8360345 11.2984047,17.8360345 C10.9442128,17.8360345 10.648856,17.5406777 10.648856,17.1864858 L10.6482786,14.7791802 C10.6482786,14.4249883 10.9436354,14.1296315 11.2978273,14.1296315 C11.6520191,14.1296315 11.947376,14.4249883 11.947376,14.7791802 L11.9479534,17.1864858 Z M14.6500251,17.1864858 C14.6500251,17.5406777 14.3546683,17.8360345 14.0004764,17.8360345 C13.6462845,17.8360345 13.3509277,17.5406777 13.3509277,17.1864858 L13.3509277,14.7791802 C13.3509277,14.4249883 13.6462845,14.1296315 14.0004764,14.1296315 C14.3546683,14.1296315 14.6500251,14.4249883 14.6500251,14.7791802 L14.6500251,17.1864858 Z M17.3676031,17.1864858 C17.3676031,17.5406777 17.0722463,17.8360345 16.7180544,17.8360345 C16.3638625,17.8360345 16.0685057,17.5406777 16.0685057,17.1864858 L16.0679283,14.7791802 C16.0679283,14.4249883 16.3632851,14.1296315 16.717477,14.1296315 C17.0716689,14.1296315 17.3670257,14.4249883 17.3670257,14.7791802 L17.3676031,17.1864858 Z" id="Combined-Shape"></path>
            </g>
        </g>
    </g>
</svg>