<?xml version="1.0" encoding="UTF-8"?>
<svg width="34px" height="40px" viewBox="0 0 34 40" version="1.1" xmlns="http://www.w3.org/2000/svg" xmlns:xlink="http://www.w3.org/1999/xlink">
    <title>pin-restos&amp;bars</title>
    <defs>
        <path d="M13,0 C20.1797017,0 26,5.73710364 26,12.8141796 C26,18.145349 22.6971985,22.7161341 17.9984951,24.6468924 L14.7836515,30.9834021 C14.5914674,31.362276 14.2836322,31.6701113 13.9047582,31.8622953 C12.9196747,32.3619795 11.7160327,31.9684856 11.2163485,30.9834021 L11.2163485,30.9834021 L8.00250937,24.6473051 C3.30327221,22.7167855 0,18.1457288 0,12.8141796 C0,5.73710364 5.82029825,0 13,0 Z" id="path-1"></path>
        <filter x="-26.9%" y="-15.6%" width="153.8%" height="143.7%" filterUnits="objectBoundingBox" id="filter-2">
            <feOffset dx="0" dy="2" in="SourceAlpha" result="shadowOffsetOuter1"></feOffset>
            <feGaussianBlur stdDeviation="2" in="shadowOffsetOuter1" result="shadowBlurOuter1"></feGaussianBlur>
            <feComposite in="shadowBlurOuter1" in2="SourceAlpha" operator="out" result="shadowBlurOuter1"></feComposite>
            <feColorMatrix values="0 0 0 0 0   0 0 0 0 0   0 0 0 0 0  0 0 0 0.5 0" type="matrix" in="shadowBlurOuter1"></feColorMatrix>
        </filter>
    </defs>
    <g id="Page-1" stroke="none" stroke-width="1" fill="none" fill-rule="evenodd">
        <g id="pin-restos&amp;bars" transform="translate(4.000000, 2.426103)">
            <g id="Combined-Shape">
                <use fill="black" fill-opacity="1" filter="url(#filter-2)" xlink:href="#path-1"></use>
                <path stroke="#FFFFFF" stroke-width="1" d="M13,0.5 C16.4526124,0.5 19.5786801,1.87890964 21.8413889,4.1092755 C24.1014735,6.33705474 25.5,9.4145267 25.5,12.8141796 C25.5,15.3358399 24.730691,17.6803845 23.4108171,19.6322284 C22.015301,21.6959329 20.0047956,23.3208964 17.637583,24.253165 L17.637583,24.253165 L14.3377386,30.7572125 C14.1936006,31.0413679 13.9627241,31.2722444 13.6785687,31.4163824 C13.3281521,31.5941314 12.9408543,31.6212185 12.5905073,31.521677 C12.2429355,31.422924 11.9315585,31.1997487 11.7288797,30.8752804 L11.7288797,30.8752804 L8.36321863,24.2534806 C5.99582246,23.3213279 3.98513542,21.6963912 2.58947326,19.6326578 C1.26942187,17.6807284 0.5,15.3360249 0.5,12.8141796 C0.5,9.4145267 1.89852652,6.33705474 4.15861113,4.1092755 C6.42131986,1.87890964 9.54738765,0.5 13,0.5 Z" stroke-linejoin="square" fill="#F78300" fill-rule="evenodd"></path>
            </g>
            <g id="icon-restos&amp;bars" transform="translate(4.000000, 3.942825)" fill="#FFFFFF">
                <path d="M4.11333842,13.8841931 L4.64612956,12.0893976 C5.14086196,10.7070885 7.15297901,11.0520372 8.01233376,9.24250209 C8.87291419,7.43419265 8.57212117,6.09974772 8.57212117,6.09974772 L6.07878557,5.38404827 L3.58667564,4.66957449 C3.58667564,4.66957449 2.62543279,5.64310551 2.39585458,7.6318719 C2.16996911,9.59609338 4.00774187,10.3756536 3.75361875,11.7752793 L3.22205328,13.6290015 C3.22205328,13.6290015 3.15698883,13.8524325 2.87707313,13.8634793 C2.59839882,13.8733004 1.0687637,13.5332386 1.00248301,13.7628137 C0.936189746,13.9936081 2.20923783,14.3557572 3.39760754,14.6958346 C4.58720292,15.0371063 5.85778708,15.40418 5.9240992,15.1746018 C5.99039246,14.9438042 4.51231108,14.4220693 4.2815072,14.2649316 C4.04948393,14.1077938 4.11331956,13.8843754 4.11331956,13.8843754 L4.11333842,13.8841931 Z M13.8866759,13.8841931 C13.8866759,13.8841931 13.9517404,14.1076241 13.7197171,14.2647493 C13.4876938,14.421887 12.0096188,14.9436471 12.0758994,15.1744195 C12.1421927,15.4039883 13.4127957,15.036924 14.6023911,14.6956523 C15.7919865,14.3556063 17.0637963,13.9934353 16.9975156,13.7626314 C16.9312224,13.5330626 15.4028192,13.8731181 15.1229255,13.863297 C14.8430255,13.8522502 14.779171,13.6288192 14.779171,13.6288192 L14.2476056,11.775097 C13.9922568,10.375597 15.8300452,9.59603681 15.6041441,7.63168962 C15.3745753,5.64292323 14.413323,4.66939221 14.413323,4.66939221 L11.9212131,5.38386599 L9.42787747,6.09956544 C9.42787747,6.09956544 9.12710645,7.43401037 9.98766488,9.24231981 C10.8470196,11.0518549 12.8603309,10.7069062 13.3538691,12.0892153 L13.8866759,13.8841931 Z M10.9292812,3.36696566 C10.7512725,3.26384561 10.5204717,3.32891005 10.417358,3.50568998 L9.86369893,4.46570716 C9.75935006,4.6461704 9.82564332,4.87941935 9.99873995,4.97885609 C10.1779744,5.08197615 10.4087751,5.01691171 10.5106632,4.84013177 L11.0655479,3.8801146 C11.168668,3.69965136 11.1036035,3.46640241 10.9292812,3.36696566 Z M7.00712378,3.36696566 C6.82911503,3.47008886 6.77018839,3.70210899 6.87208277,3.8801146 L7.42696748,4.84013177 C7.53008753,5.02059501 7.76456215,5.07952166 7.93889074,4.97885609 C8.11812516,4.87573604 8.17705181,4.64371277 8.07393175,4.46570716 L7.52027271,3.50568998 C7.41592384,3.32522674 7.18145236,3.2663001 7.00712378,3.36696566 Z M8.96889391,2.49657984 C8.76265065,2.49657984 8.59446615,2.66845079 8.59446615,2.87345895 L8.59446615,3.98200269 C8.59446615,4.19070044 8.7687916,4.3588818 8.96889391,4.3588818 C9.17513717,4.3588818 9.34209599,4.18701399 9.34209599,3.98200269 L9.34209599,2.87345895 C9.34209599,2.66598687 9.16899937,2.49657984 8.96889391,2.49657984 Z" id="Fill-1"></path>
            </g>
        </g>
    </g>
</svg>