<?xml version="1.0" encoding="UTF-8"?>
<svg width="28px" height="28px" viewBox="0 0 28 28" version="1.1" xmlns="http://www.w3.org/2000/svg" xmlns:xlink="http://www.w3.org/1999/xlink">
    <title>icon-list/icon-list-categorie-automobile</title>
    <g id="icon-list/icon-list-categorie-automobile" stroke="none" stroke-width="1" fill="none" fill-rule="evenodd">
        <circle id="Oval" fill="#005596" cx="14" cy="14" r="14"></circle>
        <path d="M8.42575773,11.9694162 L9.40032406,9.33114708 C9.75690481,8.64205257 10.3037954,8.21383085 10.945288,8 L17.0541607,8 C17.6962133,8.21383085 18.2190509,8.64205257 18.5991247,9.33114708 L19.573691,11.9694162 L20.8337431,11.9694162 C20.9289037,11.9694162 21,12.0405126 21,12.1356731 L21,12.6585107 C21,12.7536713 20.9289037,12.8488346 20.8337431,12.8488346 L20.0970746,12.8488346 C20.3109055,13.1102534 20.5247503,13.4192462 20.7391272,13.8234009 C20.7391272,15.4159668 20.762644,17.0085327 20.762644,18.6251796 C20.762644,19.0293343 20.4301302,19.3859155 20.0019085,19.3859155 L19.4790709,19.3859155 C19.0513952,19.3859155 18.7183354,19.0293343 18.7183354,18.6251796 L18.7183354,17.6506133 L9.28166495,17.6506133 L9.28166495,18.6251796 C9.28166495,19.0293343 8.94915119,19.3859155 8.52092947,19.3859155 L7.99809156,19.3859155 C7.57041586,19.3859155 7.23735608,19.0293343 7.23735608,18.6251796 C7.23735608,17.0085327 7.26087285,15.4159668 7.26087285,13.8234009 C7.4747037,13.4192462 7.68854855,13.1102394 7.90292542,12.8488346 L7.16625694,12.8488346 C7.07109635,12.8488346 7,12.7536741 7,12.6585107 L7,12.1356731 C7,12.0405126 7.07109635,11.9694162 7.16625694,11.9694162 L8.42630936,11.9694162 L8.42575773,11.9694162 Z M11.0640269,9.04567527 C10.6598722,9.11677161 10.3984534,9.37818902 10.2557174,9.7112488 C9.97023164,10.4955053 9.66123885,11.3990186 9.39982003,12.1831911 L18.5986206,12.1831911 C18.3372018,11.3989346 18.004142,10.4954212 17.7427232,9.7112488 C17.5764663,9.37873505 17.3385685,9.11677021 16.9344138,9.04567527 L11.0634123,9.04567527 L11.0640269,9.04567527 Z M18.3377478,13.8950559 C17.8624982,13.8950559 17.4818504,14.2751436 17.4818504,14.7509533 C17.4818504,15.226203 17.8619382,15.6068507 18.3377478,15.6068507 C18.7894905,15.6068507 19.1695783,15.226763 19.1695783,14.7509533 C19.1695783,14.2757037 18.7894905,13.8950559 18.3377478,13.8950559 Z M9.66172887,13.8950559 C10.1369785,13.8950559 10.5176263,14.2751436 10.5176263,14.7509533 C10.5176263,15.226203 10.1375386,15.6068507 9.66172887,15.6068507 C9.20998618,15.6068507 8.82989845,15.226763 8.82989845,14.7509533 C8.82989845,14.2757037 9.20998618,13.8950559 9.66172887,13.8950559 Z" id="Fill-1" fill="#FFFFFF"></path>
    </g>
</svg>