<?xml version="1.0" encoding="UTF-8"?>
<svg width="28px" height="28px" viewBox="0 0 28 28" version="1.1" xmlns="http://www.w3.org/2000/svg" xmlns:xlink="http://www.w3.org/1999/xlink">
    <title>icon-list/icon-list-categorie-restos&amp;bars</title>
    <g id="icon-list/icon-list-categorie-restos&amp;bars" stroke="none" stroke-width="1" fill="none" fill-rule="evenodd">
        <circle id="Oval" fill="#F78300" cx="14" cy="14" r="14"></circle>
        <path d="M9.11333842,19.3876133 L9.64612956,17.5928177 C10.140862,16.2105086 12.152979,16.5554574 13.0123338,14.7459222 C13.8729142,12.9376128 13.5721212,11.6031679 13.5721212,11.6031679 L11.0787856,10.8874684 L8.58667564,10.1729947 C8.58667564,10.1729947 7.62543279,11.1465257 7.39585458,13.1352921 C7.16996911,15.0995135 9.00774187,15.8790738 8.75361875,17.2786994 L8.22205328,19.1324217 C8.22205328,19.1324217 8.15698883,19.3558526 7.87707313,19.3668994 C7.59839882,19.3767205 6.0687637,19.0366588 6.00248301,19.2662338 C5.93618975,19.4970283 7.20923783,19.8591773 8.39760754,20.1992548 C9.58720292,20.5405265 10.8577871,20.9076002 10.9240992,20.678022 C10.9903925,20.4472244 9.51231108,19.9254894 9.2815072,19.7683517 C9.04948393,19.611214 9.11331956,19.3877956 9.11331956,19.3877956 L9.11333842,19.3876133 Z M18.8866759,19.3876133 C18.8866759,19.3876133 18.9517404,19.6110443 18.7197171,19.7681694 C18.4876938,19.9253071 17.0096188,20.4470672 17.0758994,20.6778397 C17.1421927,20.9074085 18.4127957,20.5403442 19.6023911,20.1990725 C20.7919865,19.8590265 22.0637963,19.4968554 21.9975156,19.2660516 C21.9312224,19.0364828 20.4028192,19.3765382 20.1229255,19.3667171 C19.8430255,19.3556703 19.779171,19.1322394 19.779171,19.1322394 L19.2476056,17.2785171 C18.9922568,15.8790172 20.8300452,15.099457 20.6041441,13.1351098 C20.3745753,11.1463434 19.413323,10.1728124 19.413323,10.1728124 L16.9212131,10.8872861 L14.4278775,11.6029856 C14.4278775,11.6029856 14.1271065,12.9374305 14.9876649,14.74574 C15.8470196,16.5552751 17.8603309,16.2103264 18.3538691,17.5926354 L18.8866759,19.3876133 Z M15.9292812,8.87038582 C15.7512725,8.76726577 15.5204717,8.83233021 15.417358,9.00911014 L14.8636989,9.96912732 C14.7593501,10.1495906 14.8256433,10.3828395 14.9987399,10.4822763 C15.1779744,10.5853963 15.4087751,10.5203319 15.5106632,10.3435519 L16.0655479,9.38353475 C16.168668,9.20307151 16.1036035,8.96982257 15.9292812,8.87038582 Z M12.0071238,8.87038582 C11.829115,8.97350902 11.7701884,9.20552915 11.8720828,9.38353475 L12.4269675,10.3435519 C12.5300875,10.5240152 12.7645622,10.5829418 12.9388907,10.4822763 C13.1181252,10.3791562 13.1770518,10.1471329 13.0739317,9.96912732 L12.5202727,9.00911014 C12.4159238,8.8286469 12.1814524,8.76972026 12.0071238,8.87038582 Z M13.9688939,8 C13.7626507,8 13.5944662,8.17187095 13.5944662,8.3768791 L13.5944662,9.48542285 C13.5944662,9.6941206 13.7687916,9.86230195 13.9688939,9.86230195 C14.1751372,9.86230195 14.342096,9.69043415 14.342096,9.48542285 L14.342096,8.3768791 C14.342096,8.16940703 14.1689994,8 13.9688939,8 Z" id="Fill-1" fill="#FFFFFF"></path>
    </g>
</svg>