<?xml version="1.0" encoding="UTF-8"?>
<svg width="28px" height="28px" viewBox="0 0 28 28" version="1.1" xmlns="http://www.w3.org/2000/svg" xmlns:xlink="http://www.w3.org/1999/xlink">
    <title>icon-list/icon-list-categorie-commerce</title>
    <g id="icon-list/icon-list-categorie-commerce" stroke="none" stroke-width="1" fill="none" fill-rule="evenodd">
        <circle id="Oval" fill="#6D7278" cx="14" cy="14" r="14"></circle>
        <path d="M16.2687605,17.3154346 L19.0113321,19.5092396 L16.2687605,21.7030447 L16.2687605,20.2973349 L12.3297026,20.2973349 L12.3297026,18.7211444 L16.2687605,18.7211444 L16.2687605,17.3154346 Z M11.7425716,15.0774997 L11.7425716,16.4832096 L15.6816295,16.4832096 L15.6816295,18.0594001 L11.7425716,18.0594001 L11.7425716,19.4651099 L9,17.2713048 L11.7425716,15.0774997 Z M15.0325741,14.337581 C14.9306635,14.3885363 14.7777976,14.3885363 14.6758706,14.4394916 L14.4720494,14.4904469 L14.4720494,15 L13.7586751,15 L13.7586751,14.4904469 L13.6567644,14.4904469 C12.2809548,14.184715 11.618552,13.4713407 11.7204627,12.4012955 L12.9943291,12.4012955 L12.9943291,12.5541614 L12.9943291,12.656072 C13.0452844,13.1656251 13.3510326,13.471357 13.8605531,13.522296 L14.1662849,13.522296 C14.5739274,13.522296 14.8286877,13.3184748 14.9306309,12.9617713 C15.0834968,12.5541288 14.9306309,12.1464863 14.624899,11.9426651 C14.4720331,11.8407545 14.2681956,11.7388438 14.1153459,11.6878885 L14.0643906,11.6878885 C14.0134353,11.6369332 13.9115247,11.6369332 13.8605694,11.5859779 C13.7586588,11.5350226 13.6057928,11.4840673 13.4529269,11.3821567 C13.147195,11.2292907 12.8414632,11.1273801 12.5867029,10.9235752 C12.0771498,10.5668717 11.822357,9.95540799 11.8733286,9.34394427 C11.9242839,8.68154154 12.2809711,8.12101682 12.8414958,7.86625658 C13.045317,7.76434596 13.1981993,7.71339065 13.4529595,7.66243534 C13.5039148,7.66243534 13.6058254,7.61148003 13.6567807,7.61148003 L13.7586914,7.56052472 L13.7586914,7 L14.4720657,7 L14.4720657,7.61146372 L14.5739763,7.61146372 C15.2873507,7.76432965 15.6949932,8.07004521 16.000725,8.5286593 C16.2045463,8.83439117 16.3064569,9.29300526 16.2555016,9.64967613 L14.9816351,9.64967613 L14.9816351,9.4968102 C14.9816351,9.39489958 14.9306798,9.29298896 14.9306798,9.14010672 C14.8287692,8.78340324 14.5230373,8.579582 14.1153948,8.579582 C13.7077524,8.579582 13.4529921,8.73244793 13.3510489,9.0891351 C13.198183,9.49677759 13.3000936,9.90442007 13.6058254,10.1082413 C13.8096467,10.2611072 14.0134679,10.3120625 14.2172892,10.4139732 C14.3191998,10.4649285 14.3701551,10.4649285 14.4720657,10.5158838 C14.5739763,10.5668391 14.7268423,10.6177944 14.8287692,10.6687497 C15.0835457,10.7706603 15.3383223,10.872571 15.5421435,11.0254532 C16.2045463,11.4330957 16.4593391,12.0445594 16.3574285,12.9107834 C16.2555016,13.6242066 15.7968875,14.1337597 15.0325741,14.337581 Z" id="Combined-Shape" fill="#FFFFFF"></path>
    </g>
</svg>