<?xml version="1.0" encoding="UTF-8"?>
<svg width="28px" height="28px" viewBox="0 0 28 28" version="1.1" xmlns="http://www.w3.org/2000/svg" xmlns:xlink="http://www.w3.org/1999/xlink">
    <title>icon-list/icon-list-categorie-agriculture</title>
    <g id="icon-list/icon-list-categorie-agriculture" stroke="none" stroke-width="1" fill="none" fill-rule="evenodd">
        <circle id="Oval" fill="#FFB74D" cx="14" cy="14" r="14"></circle>
        <path d="M14.9722768,10.6842111 C18.197198,9.16208715 21,10.632645 21,10.632645 C17.7864146,13.5658711 15.7595987,11.9375849 15.1547609,11.2878483 C14.3012323,11.8550555 13.5429061,12.5357289 12.8725449,13.2667525 C15.7174549,11.7932272 18.092937,13.9992608 18.410552,14.3142518 L18.4465272,14.3508369 C14.5711861,16.9012503 12.716045,14.8313059 12.197961,14.0535665 C11.3371019,15.1267283 10.6515674,16.2533463 10.1268053,17.2579873 C12.9943164,15.6085705 15.4273576,17.7846295 15.8372414,18.1845169 L15.8940978,18.2415739 L15.8940978,18.2415739 C12.1967185,20.681389 10.3385629,18.9026582 9.72704705,18.0606067 C9.53084947,18.474639 9.36615718,18.8537863 9.23172479,19.1817167 L9.10733291,19.4919699 C8.87853792,20.0759121 8.76912201,20.4332107 8.76912201,20.4332107 C8.22738495,20.7941721 8.04719938,20.4332107 8.04719938,20.4332107 C9.89626961,14.5547377 12.8714578,11.75436 14.9722768,10.6842111 Z M8.01442989,10.5028561 C11.5066872,14.2057302 9.0994454,16.4785496 8.64219941,16.8548911 L8.59787568,16.8903888 C8.58068546,16.9037348 8.57130777,16.9104552 8.5713403,16.9104552 C5.39675387,13.9947476 8.01442989,10.5028561 8.01442989,10.5028561 Z M12.8452111,7 C14.7702242,11.8132006 11.1441627,12.7177316 11.1447699,12.7177316 C9.39820294,9.12147473 12.8452111,7 12.8452111,7 Z" id="Combined-Shape" fill="#FFFFFF"></path>
    </g>
</svg>