<?xml version="1.0" encoding="UTF-8"?>
<svg width="28px" height="28px" viewBox="0 0 28 28" version="1.1" xmlns="http://www.w3.org/2000/svg" xmlns:xlink="http://www.w3.org/1999/xlink">
    <title>icon-list/icon-list-categorie-alimentation</title>
    <g id="icon-list/icon-list-categorie-alimentation" stroke="none" stroke-width="1" fill="none" fill-rule="evenodd">
        <circle id="Oval" fill="#F78300" cx="14" cy="14" r="14"></circle>
        <g id="Group" transform="translate(9.000000, 7.000000)" fill="#FFFFFF">
            <path d="M9.34286671,3.41880723 C9.34286671,1.79775117 8.14894419,0 7.05865136,0 C5.96835852,0 4.75999386,1.79775117 4.75999386,3.41880723 C4.75999386,4.71576998 5.4081805,5.4970011 6.32239717,5.77670696 L6.20438723,13.1451435 C6.20438723,13.6166055 6.57280906,14 7.04427111,14 C7.51573316,14 7.89912766,13.6166055 7.884155,13.1451435 L7.76614506,5.77670696 C8.69468598,5.51132535 9.34286671,4.71576998 9.34286671,3.41880723 L9.34286671,3.41880723 Z" id="Fill-1"></path>
            <path d="M3.2864539,0.368421832 C3.08037346,0.368421832 2.91803207,0.530763228 2.91803207,0.736843664 L2.91803207,3.80226068 C2.91803207,3.89091181 2.8443477,3.96460207 2.75569067,3.96460207 L2.35791299,3.96460207 C2.26926185,3.96460207 2.19557159,3.89091771 2.19557159,3.80226068 L2.19557159,0.721959422 C2.18117956,0.530836913 2.01884701,0.368510253 1.82714976,0.368510253 C1.62106932,0.368510253 1.45872793,0.530851649 1.45872793,0.736932086 L1.45872793,3.8023491 C1.45872793,3.89100023 1.38504356,3.96469049 1.29638653,3.96469049 L0.898608849,3.96469049 C0.809957714,3.96469049 0.736267453,3.89100613 0.736267453,3.8023491 L0.736843664,0.722047843 C0.736843664,0.515967407 0.574502268,0.353626011 0.368421832,0.353626011 C0.162341396,0.353626011 0,0.515967407 0,0.722047843 L0,4.45062415 C0,5.0844276 0.486434713,5.60021816 1.09029283,5.65892987 L0.972282899,13.1303775 C0.972282899,13.6018396 1.34070473,13.9852341 1.81216678,13.9852341 C2.28362883,13.9852341 2.66702333,13.6018396 2.65205066,13.1303775 L2.54958371,5.67381411 C3.16841449,5.61509651 3.63987654,5.08433918 3.63987654,4.4655084 L3.63987654,0.722047843 C3.63987654,0.530925334 3.47753515,0.368598675 3.28642737,0.368598675 L3.2864539,0.368421832 Z" id="Fill-2"></path>
        </g>
    </g>
</svg>