<?xml version="1.0" encoding="UTF-8"?>
<svg width="28px" height="28px" viewBox="0 0 28 28" version="1.1" xmlns="http://www.w3.org/2000/svg" xmlns:xlink="http://www.w3.org/1999/xlink">
    <title>icon-list/icon-list-categorie-communication</title>
    <g id="icon-list/icon-list-categorie-communication" stroke="none" stroke-width="1" fill="none" fill-rule="evenodd">
        <circle id="Oval" fill="#3C8694" cx="14" cy="14" r="14"></circle>
        <path d="M18.4720325,8.000182 C18.2384374,8.00069029 18.0099252,8.06975225 17.8149267,8.19872942 C17.8113726,8.19872942 17.8078171,8.19872942 17.8078171,8.20228359 C17.7895366,8.21091682 17.7727785,8.22208763 17.7570369,8.23478333 C17.7392634,8.25204849 17.7199664,8.26779137 17.6991471,8.28200936 C17.646335,8.31958686 17.5955535,8.36021153 17.5478153,8.40439168 C16.7459816,9.04016463 13.7595154,11.3333984 11.1525161,12.2865508 C11.1393134,12.2901063 11.127126,12.2961993 11.1164622,12.3043243 C11.1108762,12.3048326 11.1052914,12.3073714 11.1017359,12.3119422 C10.9600631,12.3612001 10.8270091,12.4333079 10.7081901,12.5247115 C10.4492061,12.3256571 10.1323337,12.216978 9.80581525,12.214443 C8.80898357,12.214443 8,13.2402128 8,14.5000848 C8,15.7604638 8.80894457,16.7857266 9.80581525,16.7857266 C10.1323337,16.7831877 10.4492061,16.6745164 10.7081901,16.4754581 C10.8315877,16.5704184 10.969202,16.6445607 11.1164648,16.6958453 C11.1271286,16.7039703 11.139316,16.7100646 11.1525187,16.7136188 C11.1850185,16.7242826 11.2175182,16.7390089 11.250018,16.7496727 L11.250018,19.9168376 C11.250018,20.515041 11.7349791,20.999989 12.3331693,20.999989 C12.9318796,20.999989 13.4168277,20.5150279 13.4168277,19.9168376 L13.4168277,17.7860245 C14.8604662,18.6203578 16.2413153,19.5593403 17.5478049,20.5956924 C17.5955392,20.6398712 17.6463194,20.6804959 17.6991367,20.7180747 C17.7199573,20.732294 17.739253,20.7480355 17.7570265,20.7653007 C17.7727681,20.777996 17.7895262,20.7891672 17.8078067,20.7978005 C17.8078067,20.8013551 17.8113622,20.8013551 17.8149163,20.8013551 C18.0099148,20.9303388 18.238427,20.9993955 18.4720221,20.999989 C20.1111791,20.999989 20.999852,17.6524297 20.999852,14.4999548 C20.999852,11.3474799 20.1116991,8 18.4720221,8 L18.4720325,8.000182 Z M12.6942285,19.9169273 C12.6942285,20.1159817 12.5327438,20.2779735 12.3331823,20.2779735 C12.1341279,20.2779735 11.9721362,20.1159817 11.9721362,19.9169273 L11.9721362,17.04928 C12.2102943,17.1574431 12.4525214,17.2732292 12.6942415,17.3996662 L12.6942285,19.9169273 Z M16.6668669,14.5001303 C16.6668669,13.9476347 16.692257,13.4240899 16.738976,12.9401427 C17.2914716,12.9980325 17.750017,13.6876368 17.750017,14.5001303 C17.750017,15.3126238 17.2914716,16.0022683 16.738976,16.0601179 C16.69175,15.5761707 16.6668669,15.0526259 16.6668669,14.5001303 Z M18.4726825,20.2779346 L18.4721742,20.2779346 C18.3675653,20.2748878 18.2670228,20.2398488 18.1832255,20.1768812 C18.1725617,20.1707875 18.1629132,20.1636785 18.1542799,20.1550453 C18.1116247,20.1291469 18.0730306,20.0976624 18.0390073,20.0611002 C18.0349448,20.05653 18.029867,20.0529753 18.024281,20.0504361 C17.5510067,19.5918908 17.0635106,18.4472889 16.8217905,16.7751122 C17.7429502,16.677613 18.4721274,15.6955098 18.4721274,14.5001303 C18.4721274,13.3047508 17.7429112,12.3226476 16.8217905,12.2251484 C17.0635106,10.5534917 17.5510067,9.4083308 18.024281,8.94982444 C18.029867,8.94728556 18.0349461,8.94373009 18.0390073,8.93916063 C18.0730306,8.90259842 18.1116234,8.87111397 18.1542799,8.84521558 C18.1629132,8.83658234 18.1725604,8.829474 18.1832255,8.82337965 C18.2670137,8.76041075 18.367564,8.72537213 18.4721742,8.72232625 C19.2232172,8.72232625 20.2779898,10.9216488 20.2779898,14.5001303 C20.2779898,18.0786118 19.2232692,20.2779346 18.4721742,20.2779346 L18.4726825,20.2779346 Z" id="Fill-1" fill="#FFFFFF"></path>
    </g>
</svg>