<?xml version="1.0" encoding="UTF-8"?>
<svg width="28px" height="28px" viewBox="0 0 28 28" version="1.1" xmlns="http://www.w3.org/2000/svg" xmlns:xlink="http://www.w3.org/1999/xlink">
    <title>icon-list/icon-list-categorie-education</title>
    <g id="icon-list/icon-list-categorie-education" stroke="none" stroke-width="1" fill="none" fill-rule="evenodd">
        <circle id="Oval" fill="#90A8B5" cx="14" cy="14" r="14"></circle>
        <path d="M13.6108029,9 L22,11.9921012 L20.6990793,12.4276652 L20.6991627,15.2408518 C20.8824524,15.3423978 21.006989,15.5371844 21.006989,15.7607132 C21.006989,16.0883386 20.7400362,16.3552914 20.4124108,16.3552914 C20.0847855,16.3552914 19.8178327,16.0883386 19.8178327,15.7607132 C19.8178327,15.5365468 19.9417283,15.3417586 20.1250213,15.2402142 L20.1250213,15.2402142 L20.1250213,12.619244 L18.60376,13.1282495 L18.60376,16.964633 L18.4504845,17.0457407 C17.3807441,17.6096637 16.2432519,17.9609205 15.0687774,18.0892893 C14.7277455,18.1263305 14.3841468,18.1448511 14.0379976,18.1448511 C13.4306506,18.1448511 12.8175486,18.0880075 12.2057219,17.9736893 C10.5689031,17.6684136 9.51257411,17.0661758 9.46850761,17.0406299 L9.46850761,17.0406299 L9.32481122,16.957606 L9.32481122,13.2368127 L6,12.0252905 L13.6108029,9 Z M13.63262,9.77970793 L8.10725541,11.9673398 L13.63262,13.9620883 L19.7695454,11.9673398 L13.63262,9.77970793 Z" id="Combined-Shape" fill="#FFFFFF"></path>
    </g>
</svg>