<?xml version="1.0" encoding="UTF-8"?>
<svg width="28px" height="28px" viewBox="0 0 28 28" version="1.1" xmlns="http://www.w3.org/2000/svg" xmlns:xlink="http://www.w3.org/1999/xlink">
    <title>icon-list/icon-list-categorie-petrole</title>
    <g id="icon-list/icon-list-categorie-petrole" stroke="none" stroke-width="1" fill="none" fill-rule="evenodd">
        <circle id="Oval" fill="#005596" cx="14" cy="14" r="14"></circle>
        <path d="M18.8901006,13.101408 L18.504992,12.793184 C18.3738768,12.6881534 18.2475734,12.5028148 18.1555754,12.3044261 L18.3683745,12.3044261 C18.6580583,12.3044261 18.8955836,12.0669008 18.8955836,11.777217 L18.8955836,9.66838078 C18.8955836,9.37869698 18.6580583,9.14117172 18.3683745,9.14117172 L17.8411655,9.14117172 L17.8411655,7 L17.4896928,7 L16.7867474,9.14117172 L16.7867474,12.3044261 L17.0373122,12.3044261 C17.1711741,12.8103535 17.474597,13.3190223 17.846666,13.6162628 L18.2317747,13.9244868 C18.4823396,14.125617 18.7198472,14.6191902 18.7198472,14.9404538 L18.7198472,19.509599 C18.7198472,19.7004311 18.5592137,19.8610717 18.3683745,19.8610717 C18.1775354,19.8610717 18.0169018,19.7004381 18.0169018,19.509599 L18.0169018,15.6433992 C18.0169018,14.8999466 17.4423318,14.2224126 16.7098627,14.1002231 L16.0453684,13.9897008 L16.044683,9.10897507 C16.044683,8.14242513 15.2538694,7.35161154 14.2873195,7.35161154 L9.75736353,7.35161154 C8.79081359,7.35161154 8,8.14242513 8,9.10897507 L8,21 L16.044683,21 L16.044683,15.0585293 L16.5362,15.1402186 C16.7592973,15.1772884 16.9625013,15.4168627 16.9625013,15.6434045 L16.9625013,19.5096042 C16.9625013,20.2846367 17.5933596,20.9154958 18.3683921,20.9154958 C19.1434246,20.9154958 19.7742829,20.2846367 19.7742829,19.5096042 L19.7742829,14.9404591 C19.7742829,14.2951728 19.3939719,13.5043592 18.8901182,13.1013781 L18.8901006,13.101408 Z M15.2154535,12.0373771 L8.92813397,12.0373771 L8.92813397,9.10890653 C8.92813397,8.62426082 9.32217002,8.23022476 9.80681574,8.23022476 L14.3367717,8.23022476 C14.8214174,8.23022476 15.2154535,8.62426082 15.2154535,9.10890653 L15.2154535,12.0373771 Z" id="Fill-1" fill="#FFFFFF"></path>
    </g>
</svg>