<?xml version="1.0" encoding="UTF-8"?>
<svg width="28px" height="28px" viewBox="0 0 28 28" version="1.1" xmlns="http://www.w3.org/2000/svg" xmlns:xlink="http://www.w3.org/1999/xlink">
    <title>icon-list/icon-list-categorie-batiments</title>
    <g id="icon-list/icon-list-categorie-batiments" stroke="none" stroke-width="1" fill="none" fill-rule="evenodd">
        <circle id="Oval" fill="#03B38B" cx="14" cy="14" r="14"></circle>
        <path d="M20.9088139,16.9130657 C20.8493479,16.8331381 20.7777326,16.7621613 20.6971601,16.7039818 C20.4599376,16.5364594 20.1990453,16.4047364 19.9228149,16.3139365 C20.0922689,13.6572148 18.4726017,11.2119832 15.9590124,10.3327933 L15.9596524,13.6015595 C15.9161725,13.7876282 15.7710301,13.9327739 15.584945,13.9762669 C15.3144766,14.0395699 15.0433535,13.8720409 14.9800538,13.6015595 L14.9800538,10.081526 C14.3310476,9.97282467 13.6692407,9.97282467 13.0208239,10.081526 L13.0208239,13.6015595 C12.977344,13.7876282 12.8322015,13.9327739 12.6461164,13.9762669 C12.3756481,14.0402083 12.104525,13.8720409 12.0412252,13.6015595 L12.0412252,10.3327933 C9.52822516,11.2119995 7.90800141,13.65656 8.07742267,16.3139365 C7.80119236,16.4047348 7.54031637,16.5364594 7.30307718,16.7039818 C7.22250959,16.7621695 7.15089433,16.8331447 7.09142338,16.9130657 C7.04474496,16.9757286 7.0140527,17.0492624 7.00254351,17.1272731 C6.99423107,17.2001668 7.00638013,17.2749789 7.03771111,17.3414805 C7.07671565,17.421408 7.13042791,17.4936633 7.19628777,17.5531343 C7.39514118,17.7264187 7.62342609,17.861972 7.87087933,17.952772 C8.69765505,18.2667333 9.56149065,18.4719868 10.4413353,18.5627867 C11.6217022,18.7117727 12.8104501,18.7865865 13.9996727,18.7865865 C15.189632,18.7865865 16.3776269,18.7117743 17.5586649,18.5627867 C18.4385096,18.4719884 19.3023125,18.2667333 20.1291209,17.952772 C20.3765742,17.8613353 20.6048427,17.7257803 20.8037122,17.5531343 C20.869572,17.4936682 20.9232843,17.4214129 20.9622888,17.3408421 C20.9936211,17.2743422 21.0057687,17.19953 20.9974564,17.1259963 C20.9865856,17.0499057 20.9558934,16.9757319 20.9085766,16.9130657 L20.9088139,16.9130657 Z" id="Fill-1" fill="#FFFFFF"></path>
    </g>
</svg>