<?xml version="1.0" encoding="UTF-8"?>
<svg width="28px" height="28px" viewBox="0 0 28 28" version="1.1" xmlns="http://www.w3.org/2000/svg" xmlns:xlink="http://www.w3.org/1999/xlink">
    <title>icon-list/icon-list-categorie-immobilier</title>
    <g id="icon-list/icon-list-categorie-immobilier" stroke="none" stroke-width="1" fill="none" fill-rule="evenodd">
        <circle id="Oval" fill="#03B38B" cx="14" cy="14" r="14"></circle>
        <g id="Group" transform="translate(7.000000, 7.000000)">
            <path d="M7.5,0.5 C9.22408753,0.5 10.8769952,1.18489766 12.0963316,2.40346155 C13.3151285,3.62297156 14,5.27591704 14,7 C14,8.72408753 13.3151023,10.3769952 12.0965385,11.5963316 C10.8770284,12.8151285 9.22408296,13.5 7.5,13.5 C5.77591247,13.5 4.12300484,12.8151023 2.90366836,11.5965385 C1.68487152,10.3770284 1,8.72408296 1,7 C1,5.27591247 1.68489766,3.62300484 2.90346155,2.40366836 C4.12297156,1.18487152 5.77589723,0.5 7.5,0.5 Z" id="Path" stroke="#FFFFFF"></path>
            <path d="M11.2596965,9.61519922 C11.2596965,9.7870753 11.1912142,9.95223791 11.0690206,10.0744177 C10.9468271,10.1966113 10.7816645,10.2650936 10.6098021,10.2650936 L9.16497738,10.2650936 C9.13543532,10.2650936 9.1112661,10.2409244 9.1112661,10.2113824 L9.1112661,8.17035385 C9.10857796,7.54864368 8.60502228,7.0451155 7.98334649,7.04243424 L7.01654351,7.04243424 C6.39483334,7.04511894 5.89130516,7.54867806 5.8886239,8.17035385 L5.8886239,10.2113824 C5.8886239,10.2409244 5.86445124,10.2650936 5.83491262,10.2650936 L4.39008788,10.2650936 C4.21821179,10.2650936 4.05304919,10.1966113 3.93086936,10.0744177 C3.80867577,9.95222416 3.74019347,9.78706155 3.74019347,9.61519922 L3.74019347,5.65654924 C3.73616469,5.44438884 3.83687376,5.24432164 4.00874985,5.11943648 L7.11864134,2.85820034 C7.34557278,2.69169366 7.65441347,2.69169366 7.88135866,2.85820034 L10.9912502,5.11943648 C11.1631262,5.24431477 11.2638353,5.44438884 11.2598065,5.65654924 L11.2598065,9.6203555 L11.2596965,9.61519922 Z" id="Path" fill="#FFFFFF"></path>
            <line x1="2.5" y1="11.5" x2="0.5" y2="13.5" id="Line-7" stroke="#FFFFFF" stroke-linecap="round" stroke-linejoin="round"></line>
        </g>
    </g>
</svg>