<?xml version="1.0" encoding="UTF-8"?>
<svg width="28px" height="28px" viewBox="0 0 28 28" version="1.1" xmlns="http://www.w3.org/2000/svg" xmlns:xlink="http://www.w3.org/1999/xlink">
    <title>icon-list/icon-list-categorie-sécurité</title>
    <g id="icon-list/icon-list-categorie-sécurité" stroke="none" stroke-width="1" fill="none" fill-rule="evenodd">
        <circle id="Oval" fill="#0D3C61" cx="14" cy="14" r="14"></circle>
        <path d="M13.5191876,6.00244319 C13.7048827,5.9859909 13.8899069,6.05315198 14.0248932,6.18813831 C14.1263715,6.28877374 16.4863313,8.68234612 20.599067,9.20517836 L20.599067,9.20517836 C20.9360507,9.23875721 21.1717804,9.54231547 21.1375407,9.87945259 C20.4976562,18.780041 14.0919835,21.8314314 13.8220041,21.9492979 C13.7377199,21.9828802 13.6534356,22 13.5691513,22 C13.484867,22 13.4005827,21.9828802 13.3162985,21.9492979 C13.0470945,21.8306265 6.64145506,18.780041 6.00075969,9.87945259 C5.98430739,9.55944204 6.23716023,9.23876059 6.55717078,9.20517836 C10.4386841,8.70849998 12.7326394,6.58180928 13.0840274,6.23573485 L13.131345,6.18813831 C13.2327559,6.08672747 13.3677388,6.01956301 13.5191876,6.00244319 Z M13.5863133,9.71086886 C12.5577753,9.71086886 11.7320591,10.5537116 11.7320591,11.565123 L11.7320237,12.6608338 L11.6648593,12.6608338 C11.2434379,12.6608338 10.8891742,13.0150975 10.8891742,13.4365189 L10.8891742,15.9315021 C10.8891742,16.3529235 11.2434379,16.7071872 11.6648593,16.7071872 L15.508391,16.7071872 C15.9298123,16.7071872 16.284076,16.3529235 16.284076,15.9315021 L16.2834169,13.4358446 C16.2834169,13.0144232 15.9291532,12.6601595 15.5077318,12.6601595 L15.4405674,12.6608186 L15.4405674,11.565123 C15.4405674,10.5537116 14.6148512,9.71086886 13.5863133,9.71086886 Z M13.586379,10.7051688 C14.0585058,10.7051688 14.4463484,11.0930113 14.4463484,11.5651382 L14.4463146,12.6608338 L12.7264096,12.6608338 L12.7264096,11.5651382 C12.7264096,11.0930113 13.1142522,10.7051688 13.586379,10.7051688 Z" id="Combined-Shape" fill="#FFFFFF"></path>
    </g>
</svg>