<?xml version="1.0" encoding="UTF-8"?>
<svg width="28px" height="28px" viewBox="0 0 28 28" version="1.1" xmlns="http://www.w3.org/2000/svg" xmlns:xlink="http://www.w3.org/1999/xlink">
    <title>icon-list/icon-list-categorie-eau</title>
    <g id="icon-list/icon-list-categorie-eau" stroke="none" stroke-width="1" fill="none" fill-rule="evenodd">
        <circle id="Oval" fill="#005596" cx="14" cy="14" r="14"></circle>
        <path d="M11.4625172,10.1920376 C11.4625172,10.1920376 12.096675,11.1877173 12.8219102,12.4758964 C12.4233262,13.4421929 12.1555641,14.3180958 12.1555641,14.9303389 C12.1555465,16.6863172 13.151945,18.2127175 14.6085865,18.9763121 C14.0621224,20.1699777 12.8609533,21 11.4625172,21 C9.55047135,21 8,19.4494936 8,17.5374828 C8,15.6254721 11.4625172,10.1920376 11.4625172,10.1920376 Z M16.722072,7.00017532 C18.0157385,9.10521043 20.4119757,13.3341273 20.4119757,14.9304792 C20.4119757,16.9651419 18.7566295,18.6203829 16.722072,18.6203829 C16.0474509,18.6203829 15.417413,18.4354757 14.8715976,18.1183968 C13.7731469,17.4786639 13.031467,16.2905033 13.031467,14.9304266 C13.031467,14.5647322 13.1588525,14.0599936 13.3684093,13.4744688 C14.0738862,11.5061812 15.7249371,8.62305273 16.7220544,7 Z" id="Combined-Shape" fill="#FFFFFF"></path>
    </g>
</svg>