<?xml version="1.0" encoding="UTF-8"?>
<svg width="28px" height="28px" viewBox="0 0 28 28" version="1.1" xmlns="http://www.w3.org/2000/svg" xmlns:xlink="http://www.w3.org/1999/xlink">
    <title>icon-list/icon-list-categorie-bienetre</title>
    <g id="icon-list/icon-list-categorie-bienetre" stroke="none" stroke-width="1" fill="none" fill-rule="evenodd">
        <circle id="Oval" fill="#7A5FDB" cx="14" cy="14" r="14"></circle>
        <path d="M15.0438249,18.2330819 C14.86981,18.2024113 14.6964437,18.1637405 14.5237602,18.1177354 C15.4465256,17.2029581 16.0852686,16.0215344 16.3439611,14.7480423 C17.9034726,13.4505518 20.061684,13.0232551 22,13.6199069 C21.28991,16.7262307 18.1889116,18.7905134 15.043842,18.2330512 L15.0438249,18.2330819 Z M12.9568409,18.2330819 C9.81177131,18.7904758 6.71073829,16.7262444 6,13.6192549 C7.93882824,13.0225178 10.0964764,13.4499014 11.6560391,14.7473903 C11.9140658,16.0175369 12.5514776,17.2076657 13.47624,18.1170834 C13.3042221,18.1637559 13.1308729,18.2017593 12.9568409,18.2330973 L12.9568409,18.2330819 Z M9.38112925,10.2381258 C10.290564,10.4461585 11.127935,10.8575301 11.8386736,11.429603 C11.5733073,12.2556916 11.4752991,13.1264659 11.5479774,13.9912661 C10.8358904,13.4958827 10.032469,13.1458388 9.18431063,12.9624873 C9.0436274,12.060375 9.10630178,11.1296556 9.3809927,10.2381258 L9.38112925,10.2381258 Z M12.4674827,11.2609135 C12.7968565,10.4101437 13.3169212,9.63473192 14.0003329,9 C15.2364788,10.1481399 15.95384,11.7977226 15.9398437,13.4858122 C15.9265097,15.1406691 15.212429,16.7515572 14.0003329,17.8775761 C12.2053936,16.2100542 11.5834119,13.5477714 12.4674827,11.2607428 L12.4674827,11.2609135 Z M18.6195366,10.2380917 C18.8942395,11.1295702 18.9569156,12.0610577 18.8162187,12.9624532 C17.9681115,13.1458046 17.1646901,13.4965142 16.4525519,13.991232 C16.5252268,13.1264659 16.4272152,12.2563743 16.1618557,11.4295689 C16.8719457,10.8568303 17.7100335,10.4461244 18.6194001,10.2380917 L18.6195366,10.2380917 Z" id="Fill-1" fill="#FFFFFF"></path>
    </g>
</svg>