<?xml version="1.0" encoding="UTF-8"?>
<svg width="28px" height="28px" viewBox="0 0 28 28" version="1.1" xmlns="http://www.w3.org/2000/svg" xmlns:xlink="http://www.w3.org/1999/xlink">
    <title>icon-list/icon-list-categorie-banques</title>
    <g id="icon-list/icon-list-categorie-banques" stroke="none" stroke-width="1" fill="none" fill-rule="evenodd">
        <circle id="Oval" fill="#6D7278" cx="14" cy="14" r="14"></circle>
        <path d="M20.7509402,11.7083009 C18.6105167,10.5136548 16.4699658,9.31900874 14.3297972,8.07466538 C14.1306895,7.97511154 13.8818208,7.97511154 13.6827131,8.07466538 C13.1351511,8.3733269 12.6374137,8.67198842 12.0898517,8.97064994 C10.4969902,9.8666345 8.85443089,10.81238 7.26156945,11.7083965 C7.06246177,11.8079503 6.96290793,11.9572811 7.01268485,12.1563728 L7.01268485,12.5545882 C7.01268485,12.8532497 7.11223869,12.9528035 7.41090021,12.9528035 L8.35667762,12.9528035 L8.35667762,13.0025805 C8.35667762,13.2514651 8.5557853,13.4007958 8.75489298,13.4007958 L8.95400066,13.4007958 L8.95400066,13.5003497 C8.95400066,13.848804 8.90422374,14.2470194 8.90422374,14.5954419 L8.95400066,15.1927649 C8.90422374,15.9891957 8.85444682,16.8353874 8.8046699,17.6816109 C8.8046699,17.8807186 8.8046699,18.0300653 8.75489298,18.229173 L8.75489298,18.3287268 L8.65533914,18.3287268 C8.20736279,18.3287268 7.85890842,18.6771812 7.85890842,19.1251575 C7.85890842,19.3740421 7.95846226,19.5731339 8.10779302,19.7224806 C8.25712378,19.8718273 8.45624739,19.9713652 8.70511606,19.9713652 L19.4569314,19.9713652 C19.9049078,19.9713652 20.3031231,19.6229108 20.3031231,19.1749345 C20.3031231,18.9260499 20.2035693,18.7269581 20.0542385,18.5776114 C19.9049078,18.4282647 19.7057842,18.3287268 19.4569155,18.3287268 L19.3075847,18.3287268 C19.2578078,17.6318499 19.2080309,16.9349731 19.2080309,16.287889 C19.2080309,15.9892275 19.158254,15.740327 19.158254,15.4416973 C19.108477,14.8443743 19.108477,14.2470512 19.0587001,13.5999672 L19.0587001,13.4008595 L19.2080309,13.4008595 C19.4569155,13.4008595 19.6062462,13.2017519 19.6062462,13.0026442 L19.6062462,12.9528673 L20.6017846,12.9528673 C20.9004462,12.9528673 21,12.8533134 21,12.5546519 L21,12.1564365 C21,11.9573289 20.9004462,11.8079822 20.7511154,11.7084602 L20.7509402,11.7083009 Z M16.2711767,16.3874907 C16.1716228,17.0843675 15.7236146,17.5821367 14.9769768,17.7812444 C14.8774229,17.8310213 14.7280922,17.8310213 14.6285224,17.8807983 L14.4294147,17.9305752 L14.4294147,18.4283444 L13.7325378,18.4283444 L13.7325378,17.9305752 L13.632984,17.9305752 C12.2889912,17.6319137 11.6419072,16.9350368 11.741461,15.8897374 L12.9858681,15.8897374 L12.9858681,16.0390681 L12.9858681,16.138622 C13.035645,16.6363912 13.3343225,16.9350527 13.8320598,16.9848137 L14.1307213,16.9848137 C14.5289367,16.9848137 14.7778054,16.785706 14.8773911,16.4372516 C15.0267218,16.0390363 14.8773911,15.6408209 14.5787295,15.4417132 C14.4293988,15.3421594 14.2302752,15.2426056 14.0809603,15.1928287 L14.0311834,15.1928287 C13.9814065,15.1430517 13.8818527,15.1430517 13.8320757,15.0932748 C13.7325219,15.0434979 13.5831911,14.993721 13.4338604,14.8941671 C13.1351989,14.7448364 12.8365373,14.6452825 12.5876687,14.4461908 C12.0898995,14.0977364 11.8409989,13.5004134 11.8907918,12.9030903 C11.9405687,12.2560063 12.2890071,11.7084443 12.8365692,11.4595756 C13.0356769,11.3600217 13.1850236,11.3102448 13.4338922,11.2604679 C13.4836692,11.2604679 13.583223,11.210691 13.6329999,11.210691 L13.7325538,11.1609141 L13.7325538,10.613352 L14.4294306,10.613352 L14.4294306,11.2106751 L14.5289845,11.2106751 C15.2258614,11.3600058 15.6240767,11.6586514 15.9227382,12.1066596 C16.1218459,12.4053211 16.2213998,12.8533293 16.1716228,13.2017519 L14.9272158,13.2017519 L14.9272158,13.0524211 C14.9272158,12.9528673 14.8774388,12.8533134 14.8774388,12.7039667 C14.777885,12.3555124 14.4792235,12.1564047 14.0810081,12.1564047 C13.6827928,12.1564047 13.4339241,12.3057354 13.3343384,12.6541739 C13.1850076,13.0523892 13.2845615,13.4506046 13.583223,13.6497123 C13.7823307,13.799043 13.9814384,13.84882 14.180546,13.9483738 C14.2800999,13.9981507 14.3298768,13.9981507 14.4294306,14.0479276 C14.5289845,14.0977046 14.6783152,14.1474815 14.777885,14.1972584 C15.0267696,14.2968122 15.2756542,14.3963661 15.4747619,14.5457128 C16.1218459,14.9439281 16.3707464,15.5412512 16.2711926,16.3874429 L16.2711767,16.3874907 Z" id="Fill-1" fill="#FFFFFF"></path>
    </g>
</svg>