<?xml version="1.0" encoding="UTF-8"?>
<svg width="28px" height="28px" viewBox="0 0 28 28" version="1.1" xmlns="http://www.w3.org/2000/svg" xmlns:xlink="http://www.w3.org/1999/xlink">
    <title>icon-list/icon-list-categorie-textile</title>
    <g id="icon-list/icon-list-categorie-textile" stroke="none" stroke-width="1" fill="none" fill-rule="evenodd">
        <circle id="Oval" fill="#9E6648" cx="14" cy="14" r="14"></circle>
        <path d="M21.4485985,10.1950926 C21.1735146,10.2197637 20.9638148,10.4516713 20.9668937,10.7279869 L20.9668937,11.4169283 C20.9668937,11.4193946 20.9650432,11.4212452 20.9631942,11.4218625 L19.9338005,11.4218625 C19.9313326,11.4218625 19.9288663,11.4193946 19.9288663,11.4169283 L19.9288663,11.1233391 C19.9288663,10.6854343 19.7549296,10.2660189 19.4453141,9.95640338 C19.1356986,9.64678788 18.7162832,9.47285121 18.2783783,9.47285121 L11.7319108,9.47285121 C11.7288272,9.47285121 11.7269766,9.47038331 11.7263593,9.467917 L11.7263593,8.33181807 C11.7269766,8.23991869 11.6893519,8.1523393 11.6227409,8.09004988 C11.5561284,8.02713836 11.4666969,7.99506681 11.3754149,8.00061681 C11.1947045,8.01973626 11.0590099,8.17455349 11.0633204,8.35587963 L11.0633204,9.46793121 C11.0633204,9.47039752 11.0608541,9.47286542 11.0577704,9.47286542 L8.11082521,9.47286542 C7.81662023,9.47286542 7.53353102,9.5900532 7.32504701,9.798523 C7.11657878,10.0069912 7,10.2894804 7,10.5843012 L7,12.5185099 C7,12.7861886 7.09745617,13.0452305 7.27324179,13.2475408 L8.76090944,14.9498023 C8.76090944,14.9510355 8.7621426,14.9510355 8.7621426,14.9522687 L8.89783405,16.7279512 C8.90215089,16.7890122 8.95272768,16.8358864 9.01378868,16.8358864 C9.0742323,16.8358864 9.12480752,16.7890106 9.12912594,16.7279512 L9.2598816,14.9497423 C9.2598816,14.9485092 10.9332484,13.1099546 10.9332484,13.1099546 C11.0306994,12.9983184 11.1719377,12.9341706 11.3205797,12.9335548 L13.6248933,12.9335548 L13.6242759,12.9335548 C14.7061065,12.9341721 15.5824846,13.8106118 15.5831162,14.892395 L15.5831162,18.1175499 C15.5831162,18.261875 15.526372,18.4000391 15.4246058,18.5018022 C15.3228396,18.6035652 15.184685,18.6609283 15.0409693,18.6609283 L7.43297696,18.6609283 C7.31825707,18.6609283 7.20785086,18.7065693 7.1270562,18.7879845 C7.04564101,18.8687823 7,18.9791791 7,19.0939053 L7,20.0640886 C7,20.1788085 7.04564101,20.2892147 7.1270562,20.3700093 C7.20785401,20.4514229 7.31825075,20.4970655 7.43297696,20.4970655 L19.0110724,20.4970655 C19.2547037,20.4970655 19.4878351,20.4008477 19.6599244,20.228771 C19.8319979,20.0566975 19.9288347,19.8229346 19.9288347,19.579919 L19.9288347,13.2407687 C19.9288347,13.2383008 19.931301,13.2364503 19.9343847,13.2364503 L20.9631627,13.2364503 C20.9650132,13.2364503 20.9668637,13.2383008 20.9668637,13.2407687 L20.9668637,13.9469838 C20.9662463,14.0894584 21.0254568,14.2263783 21.1296846,14.3238308 C21.2339203,14.4218976 21.3745475,14.471857 21.5170158,14.4619886 C21.7927156,14.4385507 22.0036469,14.2060257 22,13.9290944 L22,10.710729 C22,10.567637 21.9401244,10.4313345 21.8358839,10.3332662 C21.7310325,10.2358152 21.591021,10.1858574 21.4485527,10.1951084 L21.4485985,10.1950926 Z M9.01076815,12.8890914 C8.63823166,12.8897075 8.30270566,12.6651956 8.15962159,12.3216485 C8.01714699,11.9774857 8.09609428,11.5809018 8.35945298,11.3175337 C8.62281168,11.0541655 9.0187892,10.975834 9.36295203,11.1183181 C9.70711486,11.2607927 9.93100939,11.5969281 9.93100939,11.9694646 C9.93039202,12.4770642 9.51899925,12.8890914 9.01078394,12.8890914 L9.01076815,12.8890914 Z" id="Fill-1" fill="#FFFFFF"></path>
    </g>
</svg>