<?xml version="1.0" encoding="UTF-8"?>
<svg width="28px" height="28px" viewBox="0 0 28 28" version="1.1" xmlns="http://www.w3.org/2000/svg" xmlns:xlink="http://www.w3.org/1999/xlink">
    <title>icon-list/icon-list-categorie-telecom</title>
    <g id="icon-list/icon-list-categorie-telecom" stroke="none" stroke-width="1" fill="none" fill-rule="evenodd">
        <circle id="Oval" fill="#3C8694" cx="14" cy="14" r="14"></circle>
        <path d="M10.3066494,15.8541714 C10.4777132,15.8541714 10.6183377,15.9947896 10.6183377,16.1658597 L10.6183377,16.1658597 L10.6183377,19.6882494 C10.6183377,19.859921 10.4783273,19.9999377 10.3066494,19.9999377 L10.3066494,19.9999377 L8.31168831,19.9999377 C8.14001662,19.9999377 8,19.8599273 8,19.6882494 L8,19.6882494 L8,16.1658597 C8,15.9941881 8.14001039,15.8541714 8.31168831,15.8541714 L8.31168831,15.8541714 Z M13.5793766,13.2207169 C13.7662681,13.2207169 13.8910649,13.3607273 13.8910649,13.5324052 L13.8910649,13.5324052 L13.8910649,19.6882494 C13.8910649,19.859921 13.7510545,19.9999377 13.5793766,19.9999377 L13.5793766,19.9999377 L11.5844156,19.9999377 C11.4127439,19.9999377 11.2727273,19.8599273 11.2727273,19.6882494 L11.2727273,19.6882494 L11.2727273,13.5324052 C11.2727273,13.3607335 11.4127377,13.2207169 11.5844156,13.2207169 L11.5844156,13.2207169 Z M16.8672364,10.6182753 C17.0389081,10.6182753 17.1789247,10.7582857 17.1789247,10.9299636 L17.1789247,10.9299636 L17.1795325,19.6882494 C17.1795325,19.859921 17.0395221,19.9999377 16.8678442,19.9999377 L16.8678442,19.9999377 L14.8728831,19.9999377 C14.7012114,19.9999377 14.5611948,19.8599273 14.5611948,19.6882494 L14.5611948,19.6882494 L14.5611948,10.9299636 C14.5611948,10.7582919 14.7012052,10.6182753 14.8728831,10.6182753 L14.8728831,10.6182753 Z M20.1557834,8 L18.1608223,8 C17.9891444,8 17.849134,8.14001662 17.849134,8.31168831 L17.849134,19.6883117 C17.849134,19.8599896 17.9891506,20 18.1608223,20 L20.1557834,20 C20.3274613,20 20.4674717,19.8599834 20.4674717,19.6883117 L20.4674717,8.31168831 C20.4674717,8.14001039 20.3274551,8 20.1557834,8 Z" id="Combined-Shape" fill="#FFFFFF"></path>
    </g>
</svg>