<?xml version="1.0" encoding="UTF-8"?>
<svg width="28px" height="28px" viewBox="0 0 28 28" version="1.1" xmlns="http://www.w3.org/2000/svg" xmlns:xlink="http://www.w3.org/1999/xlink">
    <title>icon-list/icon-list-categorie-nouvelles technologies</title>
    <g id="icon-list/icon-list-categorie-nouvelles-technologies" stroke="none" stroke-width="1" fill="none" fill-rule="evenodd">
        <circle id="Oval" fill="#3C8694" cx="14" cy="14" r="14"></circle>
        <path d="M16.1269185,15.6121755 L16.6565617,17.555295 L17.9964736,17.555295 C18.1580592,17.1286007 18.570385,16.8192091 19.0563195,16.8192091 C19.6743681,16.819371 20.1896283,17.320248 20.1896283,17.9533997 C20.1896283,18.5715941 19.6893254,19.0868542 19.0561738,19.0868542 C18.5702393,19.0868542 18.1585023,18.7774626 17.9963279,18.3507683 L17.9963279,18.3507683 L16.0532083,18.3507683 L15.5229909,16.3926326 L14.4924707,16.3926326 L14.4918951,18.8066999 C14.9185893,18.9682855 15.227981,19.3806113 15.227981,19.8665458 C15.227981,20.4847399 14.7276781,21 14.0945265,21 C13.4763321,21 12.961072,20.4996971 12.961072,19.8665458 C12.961072,19.3806113 13.2704636,18.9688743 13.6971579,18.8066999 L13.6971579,18.8066999 L13.6971579,16.4069127 L12.6666376,16.4069127 L12.1364202,18.3650484 L10.1933007,18.3650484 C10.0317151,18.7917426 9.61938925,19.1011342 9.13345479,19.1011342 C8.51526042,19.1011342 8,18.6008314 8,17.9676798 C8,17.3494854 8.50030315,16.8342253 9.13345479,16.8342253 C9.61938925,16.8342253 10.0311263,17.1436169 10.1933007,17.5703111 L10.1933007,17.5703111 L11.5332126,17.5703111 L12.06343,15.6121755 L16.1269185,15.6121755 Z M19.0563195,12.8593615 C19.6745139,12.8593615 20.189774,13.3746216 20.189774,13.9928159 C20.189774,14.6110103 19.6894711,15.1262704 19.0563195,15.1262704 C18.570385,15.1262704 18.158648,14.8168788 17.9964736,14.3901846 L17.9964736,14.3901846 L10.2089793,14.3901846 C10.0473938,14.8168788 9.63506788,15.1262704 9.14913342,15.1262704 C8.53093905,15.1262704 8.01567863,14.6110103 8.01567863,13.9928159 C8.01567863,13.3746216 8.51598178,12.8593615 9.14913342,12.8593615 C9.63506788,12.8593615 10.0468049,13.1687531 10.2089793,13.5954473 L10.2089793,13.5954473 L17.9964736,13.5954473 C18.1580592,13.1687531 18.570385,12.8593615 19.0563195,12.8593615 Z M14.0953803,7 C14.7135747,7 15.2288348,7.50030286 15.2288348,8.1334545 C15.2288348,8.61938896 14.9194432,9.03112596 14.4927489,9.1933004 L14.4927489,9.1933004 L14.4927489,11.5786603 L15.5232692,11.5786603 L16.0534866,9.62052465 L17.997195,9.62052465 C18.1587805,9.19383038 18.5711064,8.88443876 19.0570409,8.88443876 C19.6752352,8.88443876 20.1904954,9.39969889 20.1904954,10.0178933 C20.1904954,10.6360876 19.6901925,11.1513478 19.0570409,11.1513478 C18.5711064,11.1513478 18.1593694,10.8419561 17.997195,10.4152619 L17.997195,10.4152619 L16.6572831,10.4152619 L16.1270657,12.3733975 L12.0635772,12.3733975 L11.5339339,10.430278 L10.1940221,10.430278 C10.0324365,10.8569723 9.62011062,11.1663639 9.13417615,11.1663639 C8.51602595,11.1663492 8.01514791,10.6510891 8.01572245,10.0323205 C8.01572245,9.41412617 8.51602595,8.89886605 9.14917758,8.89886605 C9.63511205,8.89886605 10.046849,9.20825767 10.2090235,9.63495194 L10.2090235,9.63495194 L12.1372741,9.63495194 L12.6674915,11.5930876 L13.6980117,11.5930876 L13.6980117,9.1933004 C13.2713175,9.03171483 12.9619258,8.61938896 12.9619258,8.1334545 C12.9619258,7.51526012 13.4622287,7 14.0953803,7 Z" id="Combined-Shape" fill="#FFFFFF"></path>
    </g>
</svg>