<?xml version="1.0" encoding="UTF-8"?>
<svg width="28px" height="28px" viewBox="0 0 28 28" version="1.1" xmlns="http://www.w3.org/2000/svg" xmlns:xlink="http://www.w3.org/1999/xlink">
    <title>icon-list/icon-list-categorie-santé</title>
    <g id="icon-list/icon-list-categorie-santé" stroke="none" stroke-width="1" fill="none" fill-rule="evenodd">
        <circle id="Oval" fill="#F44336" cx="14" cy="14" r="14"></circle>
        <path d="M15.7134413,20 C16.035367,20 16.2967091,19.7386556 16.2967091,19.4167299 L16.2961316,16.2961321 L19.4161387,16.2961321 C19.7380644,16.2961321 19.9994065,16.03479 19.9994065,15.7128643 L19.999984,12.2865427 C19.999984,11.964617 19.7386419,11.7032749 19.4167162,11.7032749 L16.2967091,11.7032749 L16.2961316,8.58326779 C16.2961316,8.26134213 16.0347895,8 15.7128639,8 L12.2865422,8 C11.9646166,8 11.7032744,8.26134213 11.7032744,8.58326779 L11.7032744,11.7032749 L8.58326734,11.7032749 C8.26134169,11.7032749 8,11.964617 8,12.2865427 L8,15.7128643 C8,16.03479 8.26134169,16.2961321 8.58326734,16.2961321 L11.7032744,16.2961321 L11.7032744,19.4161392 C11.7032744,19.7386408 11.9646166,20 12.2865422,20 L15.7134413,20 Z" id="Fill-1" fill="#FFFFFF"></path>
    </g>
</svg>