<?xml version="1.0" encoding="UTF-8"?>
<svg width="28px" height="28px" viewBox="0 0 28 28" version="1.1" xmlns="http://www.w3.org/2000/svg" xmlns:xlink="http://www.w3.org/1999/xlink">
    <title>icon-list/icon-list-categorie-transport</title>
    <g id="icon-list/icon-list-categorie-transport" stroke="none" stroke-width="1" fill="none" fill-rule="evenodd">
        <circle id="Oval" fill="#0D3C61" cx="14" cy="14" r="14"></circle>
        <path d="M16.1559241,12.4051032 C16.4427789,12.4051032 16.6782989,12.6412969 16.6782989,12.927478 C16.6782989,13.2143327 16.4421052,13.4498527 16.1559241,13.4498527 L16.1559241,13.4498527 L14.8421052,13.4498527 C14.1855325,13.4498527 13.6631578,13.9722274 13.6631578,14.6288001 C13.6631578,15.2853727 14.1855325,15.8077475 14.8421052,15.8077475 L14.8421052,15.8077475 L19.6592842,15.8077323 C20.8718653,15.8077323 21.8652783,16.8182418 21.8659368,18.0313955 C21.8659368,19.2446334 20.871781,20.2380481 19.6592842,20.2380481 L19.6592842,20.2380481 L11.0526315,20.2380481 C10.7657767,20.2380481 10.5302567,20.0018545 10.5302567,19.7156734 C10.5302567,19.4288187 10.7664504,19.1932987 11.0526315,19.1932987 L11.0526315,19.1932987 L19.6421052,19.1932987 C20.2986779,19.1932987 20.8210526,18.6709239 20.8210526,18.0143513 C20.8210526,17.3577786 20.2986779,16.8354039 19.6421052,16.8354039 L19.6421052,16.8354039 L14.8421052,16.8354039 C13.6295241,16.8354039 12.6354525,15.8249113 12.6354525,14.6124144 C12.6354525,13.3991765 13.6296083,12.4057617 14.8421052,12.4057617 L14.8421052,12.4057617 Z M8.59354933,12.5407158 C10.0250778,12.5407158 11.1875704,13.6853727 11.1875704,15.1340632 C11.1875704,16.1445896 9.87371777,18.5695496 9.11582302,19.8833686 C8.88030302,20.2873096 8.30726722,20.2873096 8.07174722,19.8833686 C7.31381879,18.5695159 6,16.1445896 6,15.1340632 C6,13.7025516 7.16176843,12.5407158 8.59334723,12.5407158 Z M8.59334723,13.9051959 C7.91966301,13.9051959 7.38085037,14.4440085 7.38085037,15.1176927 C7.38085037,15.7913769 7.91966301,16.3301896 8.59334723,16.3301896 C9.26703144,16.3301896 9.80650261,15.7907201 9.80584468,15.1176927 C9.80584468,14.4440085 9.26703144,13.9051959 8.59334723,13.9051959 Z M19.4066526,7 C20.8381642,7 22,8.16176843 22,9.5933474 C22,10.6038737 20.6861474,13.0288337 19.9282526,14.3426527 C19.6929516,14.7465938 19.1199158,14.7465938 18.8850526,14.3426527 C18.1271242,13.0288001 16.8133052,10.6038737 16.8133052,9.5933474 C16.8133052,8.1618358 17.975141,7 19.4066526,7 Z M19.4058442,8.38085054 C18.73216,8.38085054 18.1933473,8.91966318 18.1933473,9.5933474 C18.1933473,10.24992 18.7328168,10.8058443 19.4058442,10.8058443 C20.0795284,10.8058443 20.618341,10.2670316 20.618341,9.5933474 C20.618341,8.91966318 20.0795284,8.38085054 19.4058442,8.38085054 Z" id="Combined-Shape" fill="#FFFFFF"></path>
    </g>
</svg>