<?xml version="1.0" encoding="UTF-8"?>
<svg width="28px" height="28px" viewBox="0 0 28 28" version="1.1" xmlns="http://www.w3.org/2000/svg" xmlns:xlink="http://www.w3.org/1999/xlink">
    <title>icon-list/icon-list-categorie-administration</title>
    <g id="icon-list/icon-list-categorie-administration" stroke="none" stroke-width="1" fill="none" fill-rule="evenodd">
        <circle id="Oval" fill="#90A8B5" cx="14" cy="14" r="14"></circle>
        <path d="M9.81268244,14.385617 C9.90075617,14.385617 9.98940759,14.4592987 9.98940759,14.5623422 L9.98940759,14.5623422 L9.9899838,19.0864288 L11.0802801,19.0864288 L11.0802801,14.5623422 C11.0802801,14.4742684 11.1539618,14.385617 11.2570052,14.385617 L11.2570052,14.385617 L11.8171261,14.385617 C11.9051998,14.385617 11.9938513,14.4592987 11.9938513,14.5623422 L11.9938513,14.5623422 L11.9938513,19.0864288 L13.0841476,19.0864288 L13.0841476,14.5623422 C13.0841476,14.4742684 13.1578292,14.385617 13.2608727,14.385617 L13.2608727,14.385617 L13.8209936,14.385617 C13.9090673,14.385617 13.9977187,14.4592987 13.9977187,14.5623422 L13.9977187,14.5623422 L13.9982949,19.0864288 L15.0885912,19.0864288 L15.0885912,14.5623422 C15.0885912,14.4742684 15.1622729,14.385617 15.2653164,14.385617 L15.2653164,14.385617 L15.8254372,14.385617 C15.913511,14.385617 16.0021624,14.4592987 16.0021624,14.5623422 L16.0021624,14.5623422 L16.0021624,19.0864288 L17.0924587,19.0864288 L17.0924587,14.5623422 C17.0924587,14.4742684 17.1661403,14.385617 17.2691838,14.385617 L17.2691838,14.385617 L17.8293047,14.385617 C17.9173784,14.385617 18.0060298,14.4592987 18.0060298,14.5623422 L18.0060298,14.5623422 L18.0066046,19.0715446 L18.8758588,19.0714561 C18.9789023,19.0714561 19.0675538,19.1601105 19.0969126,19.263154 L19.0969126,19.263154 L19.0969126,19.8232749 C19.0969126,19.9113486 19.023231,20 18.9201875,20 L18.9201875,20 L8.20659394,20 C8.11852021,20 8.02986879,19.9263183 8.02986879,19.8232749 L8.02986879,19.8232749 L8.02986879,19.263154 C8.02986879,19.1750803 8.10355044,19.0864288 8.20659394,19.0864288 L8.20659394,19.0864288 L9.07583643,19.0864288 L9.07583643,14.5623422 C9.07583643,14.4742684 9.14951809,14.385617 9.25256158,14.385617 L9.25256158,14.385617 Z M13.5262861,6 C13.7473399,6 13.9390378,6.19169786 13.9390378,6.41275166 L13.9390378,6.41275166 L13.9390378,6.57451883 L15.8104792,6.57451883 C16.0021771,6.57451883 16.1495463,6.73686074 16.1495463,6.91358589 L16.1495463,6.91358589 L16.1495463,8.0925395 C16.1495463,8.28423736 15.9872044,8.43160656 15.8104792,8.43160656 L15.8104792,8.43160656 L13.9390378,8.43160656 L13.9390378,9.86096992 C15.7074682,10.0233708 17.1811012,11.1579663 17.8292899,12.7346693 L17.8292899,12.7346693 L18.8759207,12.7346546 C18.9789672,12.7346546 19.0676186,12.823309 19.0670466,12.9263525 L19.0670466,12.9263525 L19.0670466,13.4864733 C19.0670466,13.5745471 18.9933622,13.6631985 18.8903187,13.6631985 L18.8903187,13.6631985 L8.17672515,13.6631985 C8.08865142,13.6631985 8,13.5895168 8,13.4864733 L8,13.4864733 L8,12.9263525 C8,12.8382787 8.07368165,12.7496273 8.17672515,12.7496273 L8.17672515,12.7496273 L9.22328227,12.7496273 C9.87141201,11.1728948 11.345104,10.0232971 13.1135344,9.87592789 L13.1135344,9.87592789 L13.1135344,6.41275166 C13.1135344,6.19169786 13.3052323,6 13.5262861,6 Z" id="Combined-Shape" fill="#FFFFFF"></path>
    </g>
</svg>