<?xml version="1.0" encoding="UTF-8"?>
<svg width="28px" height="28px" viewBox="0 0 28 28" version="1.1" xmlns="http://www.w3.org/2000/svg" xmlns:xlink="http://www.w3.org/1999/xlink">
    <title>icon-list/icon-list-categorie-tourisme</title>
    <g id="icon-list/icon-list-categorie-tourisme" stroke="none" stroke-width="1" fill="none" fill-rule="evenodd">
        <circle id="Oval" fill="#7A5FDB" cx="14" cy="14" r="14"></circle>
        <path d="M15.6887958,10.2705451 C16.0519703,10.1981935 16.4151521,10.2705451 16.7059751,10.4890164 C16.9230154,10.6337052 17.1046027,10.9614194 17.2138384,11.1061226 C17.3216286,11.2877099 18.2664635,12.6311652 18.2664635,12.6311652 L18.2664635,12.6311652 L19.7560603,12.8127525 C20.0823435,12.8481984 20.3731665,13.1390285 20.3731665,13.5022031 C20.3376843,13.8654103 20.0823363,14.1193493 19.716329,14.2257485 L19.716329,14.2257485 L19.5347417,14.2257485 L17.7188689,13.9718096 C17.5372744,13.9349256 17.3556871,13.8256899 17.2464514,13.6809867 L17.2464514,13.6809867 L16.9925125,13.2809136 C16.9925125,13.2809136 16.8832769,14.6243616 16.8832769,14.6967133 C16.8832769,14.7690649 16.8832769,14.9151846 16.9201609,14.9875362 C16.993958,15.0967791 18.0465831,17.0942392 18.0465831,17.0942392 C18.0820507,17.1665908 18.1189347,17.2758264 18.1189347,17.3850621 L18.1189347,17.3850621 L18.300522,21.1983939 C18.3374205,21.5615684 17.974246,21.8892899 17.6110714,21.9616415 L17.6110714,21.9616415 L17.3571325,21.9616415 C16.9585049,21.8892971 16.7045659,21.5261226 16.6676819,21.0906036 L16.6676819,21.0906036 L16.376859,17.8589323 C16.3413914,17.714229 16.3045074,17.6049933 16.2321557,17.4957577 L16.2321557,17.4957577 L14.5255259,15.1351231 C14.4177066,14.9535358 14.3439386,14.771934 14.3808226,14.5534627 L14.3808226,14.5534627 L14.5992939,12.5560026 L14.054532,12.9560757 L13.9098288,14.4456725 C13.8743829,14.8088543 13.5835527,15.0996772 13.2203782,15.0996772 L13.2203782,15.0996772 L13.1834942,15.0996772 L12.5294894,16.4431326 L12.7479607,16.5523682 C13.1111353,16.7339555 13.2189545,17.134014 13.0742513,17.4603046 L13.0742513,17.4603046 L11.3307229,21.0920491 C11.3307229,21.1275167 11.3676069,21.1998683 11.3676069,21.2367524 C11.3676069,21.6737095 11.0044323,22 10.6043592,22 C10.1674021,22 9.84111156,21.6368254 9.84111156,21.2367524 L9.84111156,21.2367524 L8.38841334,20.5473018 C8.02523914,20.3657145 7.91741988,19.9656559 8.06212315,19.6393654 L8.06212315,19.6393654 L9.87799557,15.8997581 C10.0595829,15.5365835 10.4596414,15.4287642 10.785932,15.5734675 L10.785932,15.5734675 L12.0939415,16.2274722 L12.7479462,14.8840169 C12.6387106,14.7761977 12.6032429,14.666962 12.5663589,14.5577264 L12.5663589,14.5577264 L12.5663589,14.3761391 L12.7479462,12.5602663 C12.7479462,12.3786718 12.8571818,12.1970845 13.0018851,12.0878488 L13.0018851,12.0878488 L13.3650597,11.7970259 C13.3650597,11.7970259 13.4124663,11.7627021 13.491983,11.7051607 L13.6892975,11.5624121 C14.1899351,11.2003106 15.10204,10.5412704 15.1809325,10.4890164 C15.2887227,10.4152484 15.5072085,10.3074292 15.6887958,10.2705451 Z M14.7069897,16.5167698 L15.724169,17.9325913 C15.761053,17.9325913 15.761053,17.9325913 15.6872849,17.9694753 L15.6872849,17.9694753 L15.8688722,19.7853492 L15.1425231,21.4919791 C14.9978344,21.8551609 14.5977613,22.0367482 14.2345867,21.9643965 C14.1608187,21.9643965 14.0884671,21.9289289 14.0161154,21.8920449 C13.6898249,21.7104576 13.5451216,21.2394929 13.6898249,20.8394198 L13.6898249,20.8394198 L14.8516929,17.8247793 L14.8516929,17.643192 L14.7069897,16.5167698 Z M10.5675261,20.945697 C10.4214064,20.945697 10.2767031,21.0918166 10.2767031,21.2365199 C10.2767031,21.3826396 10.4228228,21.5273428 10.5675261,21.5273428 C10.7491133,21.5273428 10.858349,21.4181072 10.858349,21.2365199 C10.858349,21.0904003 10.7122293,20.945697 10.5675261,20.945697 Z M10.0227715,18.0417253 C9.91495222,17.9693736 9.76883256,18.0417253 9.69648093,18.1509609 L9.69648093,18.1509609 L8.97013181,19.712901 C8.89778018,19.8207202 8.97013181,19.9668399 9.07936746,20.0391915 C9.18718672,20.1115431 9.33330637,20.0391915 9.40565801,19.9299559 L9.40565801,19.9299559 L10.1320071,18.3680158 C10.1688911,18.2233126 10.1320071,18.0771893 10.0227715,18.0417253 Z M17.4536062,8.24161964 C17.7373363,10.1567843 14.8645711,10.583805 14.5794064,8.66864028 C14.2942563,6.75205919 17.1684415,6.32503855 17.4536062,8.24161964 Z" id="Combined-Shape" fill="#FFFFFF"></path>
    </g>
</svg>