<?xml version="1.0" encoding="UTF-8"?>
<svg width="28px" height="28px" viewBox="0 0 28 28" version="1.1" xmlns="http://www.w3.org/2000/svg" xmlns:xlink="http://www.w3.org/1999/xlink">
    <title>icon-list/icon-list-categorie-justice</title>
    <g id="icon-list/icon-list-categorie-justice" stroke="none" stroke-width="1" fill="none" fill-rule="evenodd">
        <circle id="Oval" fill="#90A8B5" cx="14" cy="14" r="14"></circle>
        <path d="M14.0004586,7 C14.31786,7 14.5757182,7.2572809 14.5757182,7.57525956 L14.5757182,7.57525956 L14.5757182,8.42630092 C14.8902334,8.56738138 15.1434708,8.81945243 15.2845394,9.13512217 L15.2845394,9.13512217 L19.864622,9.13512217 C20.1826007,9.13512217 20.441036,9.39240308 20.441036,9.71038173 C20.441036,10.0289376 20.1826007,10.2867957 19.864622,10.2867957 L19.864622,10.2867957 L18.979465,10.2867957 L20.1802918,13.9280687 L19.3720393,13.9280687 L18.3862818,10.9366953 L17.3987926,13.9280687 L16.5905401,13.9280687 L17.7913669,10.2867957 L15.284421,10.2867957 C15.1439178,10.601311 14.8912695,10.853391 14.5755998,10.995617 L14.5755998,10.995617 L14.5755998,18.9209582 L16.370779,18.9209582 C16.8038777,18.9211373 17.1548175,19.2720771 17.1548175,19.7045391 L17.1548175,19.7045391 L17.1548175,20.5162697 L10.8466029,20.5156916 L10.8466029,19.7039609 C10.8466029,19.2714984 11.1963883,18.9211358 11.6294278,18.9211358 L11.6294278,18.9211358 L13.424607,18.9211358 L13.424607,10.9952026 C13.1100917,10.8541221 12.8580118,10.6014738 12.7157858,10.2863813 L12.7157858,10.2863813 L10.2088399,10.2863813 L11.4090895,13.9280983 L10.600837,13.9280983 L9.61450223,10.9367249 L8.62933675,13.9269143 L7.82108397,13.9269143 L9.02191103,10.2856413 L8.13733123,10.2856413 C7.81935243,10.2856413 7.56091707,10.0272059 7.56091707,9.70922728 C7.56091707,9.39182585 7.81935243,9.13396772 8.13733123,9.13396772 L8.13733123,9.13396772 L12.7163778,9.13396772 C12.8574582,8.81945243 13.1095293,8.56679379 13.425199,8.42514647 L13.425199,8.42514647 L13.425199,7.57525956 C13.425199,7.25785813 13.6824799,7 14.0004586,7 Z M12.2299817,14.6957968 C12.2299817,16.1400214 11.0597777,17.3113652 9.61439862,17.3107881 C8.1695968,17.3107881 7,16.1400214 7,14.6957968 L7,14.6957968 Z M21,14.6957968 C21,16.1400214 19.8309948,17.3107879 18.3856009,17.3107879 C16.9402071,17.3107879 15.7706098,16.1400214 15.7706098,14.6957968 L15.7706098,14.6957968 Z" id="Combined-Shape" fill="#FFFFFF"></path>
    </g>
</svg>