<?xml version="1.0" encoding="UTF-8"?>
<svg width="28px" height="28px" viewBox="0 0 28 28" version="1.1" xmlns="http://www.w3.org/2000/svg" xmlns:xlink="http://www.w3.org/1999/xlink">
    <title>icon-list/icon-list-categorie-loisirs</title>
    <g id="icon-list/icon-list-categorie-loisirs" stroke="none" stroke-width="1" fill="none" fill-rule="evenodd">
        <circle id="Oval" fill="#7A5FDB" cx="14" cy="14" r="14"></circle>
        <path d="M13.9093889,18.214829 C14.3370551,17.6105451 15.1617429,17.4632162 15.7660268,17.8758548 L15.7660268,17.8758548 C16.3702371,18.2884639 16.5175659,19.1131518 16.0899735,19.7174357 C15.6630145,20.3510678 14.7490454,21.0284298 13.2907257,20.9990789 C13.0841147,20.9990789 12.9810995,20.7487378 13.1284283,20.601409 C13.9093889,19.7467541 13.4674024,18.8628401 13.9093889,18.214829 Z M7.48630394,7.00087935 L7.5743467,7.00286353 L7.66297369,7.03221438 C10.6832147,7.40053645 13.7620925,7.40053645 16.797361,7.03221438 L16.797361,7.03221438 L16.915339,7.01725166 C17.0482885,7.00286353 17.1956144,7.04660251 17.2986297,7.13522964 C17.4166047,7.22386266 17.4753064,7.35622288 17.4753064,7.50355171 L17.4753064,7.50355171 L17.4753064,11.8503415 C17.3722941,11.9533538 17.2836611,12.0857169 17.2099967,12.2036949 L17.2099967,12.2036949 L14.3814688,16.8739746 C13.9095598,17.0213034 13.4974958,17.3159611 13.2028382,17.7435535 C13.1441394,17.8465658 13.0848631,17.9495811 13.0261614,18.0675591 C12.7608517,18.1112981 12.5105105,18.1262608 12.2452008,18.1262608 C10.1525421,18.1262608 8.2966114,16.8590855 7.5156509,14.9293725 C7.17667673,14.074718 7,13.175747 7,12.2624261 L7,12.2624261 L7,7.5035576 C7,7.35622878 7.07366147,7.22385677 7.17667673,7.12084151 C7.27968905,7.03221438 7.42701788,6.98790081 7.5743467,7.00286353 Z M17.9616684,12.6456814 C18.3006131,12.0563661 19.0666051,11.8940687 19.6116039,12.2773593 C20.156588,12.6456519 20.2745689,13.411644 19.8763243,13.9422635 L19.8763243,13.9422635 L16.8711109,17.8021315 C16.7094028,17.5517903 16.5027888,17.3451764 16.2524477,17.1684996 C16.0015172,16.9918229 15.7218282,16.873839 15.4271705,16.8295255 L15.4271705,16.8295255 Z M14.1459401,13.425434 C13.9099782,13.2930737 13.6003579,13.3667382 13.4679918,13.6170793 C13.2320299,14.0590658 12.7606955,14.3243755 12.2450446,14.3243755 C11.7293937,14.3243755 11.2580593,14.0446865 10.9927496,13.6027 C10.8598001,13.3673216 10.5507631,13.2936572 10.3148012,13.4260233 C10.0794228,13.5589728 10.0057584,13.8680098 10.1381245,14.1039716 C10.580111,14.8699637 11.3611011,15.3269187 12.2450741,15.3269187 C13.1290323,15.3269187 13.9243723,14.8699489 14.3375854,14.1033823 C14.4699457,13.8674204 14.3819019,13.5578001 14.1459401,13.425434 Z M14.2191331,9.80208769 C13.2321478,9.80208769 12.8931766,10.6123962 12.8638257,11.0543827 C12.848863,11.1430158 12.8787884,11.2316429 12.9374901,11.2903446 C12.9961859,11.364009 13.0698562,11.3933598 13.1584834,11.3933598 L13.1584834,11.3933598 L15.2947514,11.3933598 C15.3833785,11.3933598 15.4570429,11.3490463 15.5157446,11.2903446 C15.5744463,11.2310595 15.6043717,11.1430099 15.589409,11.0543827 C15.5600611,10.6123962 15.2061183,9.80208769 14.2191331,9.80208769 Z M10.2705437,9.78711908 C9.26858978,9.78711908 8.94458127,10.6123962 8.9002677,11.0394141 C8.88530499,11.1280471 8.91523042,11.2166743 8.97393212,11.275376 C9.03320251,11.3490404 9.12126095,11.3783912 9.19492536,11.3783912 L9.19492536,11.3783912 L11.3311934,11.3783912 C11.4198264,11.3783912 11.5084535,11.3340777 11.5671552,11.275376 C11.6258569,11.2160909 11.6557824,11.1280413 11.6408196,11.0394141 C11.5965031,10.5974276 11.2431497,9.78711908 10.2705437,9.78711908 Z" id="Combined-Shape" fill="#FFFFFF"></path>
    </g>
</svg>