<?xml version="1.0" encoding="UTF-8"?>
<svg width="28px" height="28px" viewBox="0 0 28 28" version="1.1" xmlns="http://www.w3.org/2000/svg" xmlns:xlink="http://www.w3.org/1999/xlink">
    <title>icon-list/icon-list-categorie-achats</title>
    <g id="icon-list/icon-list-categorie-achats" stroke="none" stroke-width="1" fill="none" fill-rule="evenodd">
        <circle id="Oval" fill="#2196F3" cx="14" cy="14" r="14"></circle>
        <path d="M20.3656223,12.1209689 L19.3318735,12.1209689 L16.9690191,9.24124004 C16.7324973,8.96088736 16.3338838,8.9164657 16.0535311,9.15240262 C15.7731784,9.38892435 15.7287568,9.7875379 15.9646937,10.0678906 L17.6479321,12.120325 L10.3672392,12.1209024 L12.0504776,10.068468 C12.2869994,9.78811532 12.2425777,9.37449765 11.9616402,9.15298004 C11.6812875,8.93146244 11.2676699,8.96087998 11.0461523,9.24181746 L8.6832978,12.1215463 L7.64954869,12.1215463 C7.29535681,12.1215463 7,12.4169031 7,12.771095 C7,13.1252869 7.29535681,13.4206437 7.64954869,13.4206437 L8.26968013,13.4206437 L9.21573752,19.2983903 C9.26015623,19.6087513 9.54051186,19.8446823 9.86528621,19.8446823 L18.1352768,19.8446823 C18.4600511,19.8446823 18.7259904,19.6081606 18.7848255,19.2983903 L19.729731,13.4357054 L20.3498621,13.4357054 C20.704054,13.4357054 20.9994108,13.1403486 20.9994108,12.7861567 C21.0149864,12.4163848 20.7196341,12.121028 20.3654274,12.121028 L20.3656223,12.1209689 Z M11.9479534,17.1864858 C11.9479534,17.5406777 11.6525966,17.8360345 11.2984047,17.8360345 C10.9442128,17.8360345 10.648856,17.5406777 10.648856,17.1864858 L10.6482786,14.7791802 C10.6482786,14.4249883 10.9436354,14.1296315 11.2978273,14.1296315 C11.6520191,14.1296315 11.947376,14.4249883 11.947376,14.7791802 L11.9479534,17.1864858 Z M14.6500251,17.1864858 C14.6500251,17.5406777 14.3546683,17.8360345 14.0004764,17.8360345 C13.6462845,17.8360345 13.3509277,17.5406777 13.3509277,17.1864858 L13.3509277,14.7791802 C13.3509277,14.4249883 13.6462845,14.1296315 14.0004764,14.1296315 C14.3546683,14.1296315 14.6500251,14.4249883 14.6500251,14.7791802 L14.6500251,17.1864858 Z M17.3676031,17.1864858 C17.3676031,17.5406777 17.0722463,17.8360345 16.7180544,17.8360345 C16.3638625,17.8360345 16.0685057,17.5406777 16.0685057,17.1864858 L16.0679283,14.7791802 C16.0679283,14.4249883 16.3632851,14.1296315 16.717477,14.1296315 C17.0716689,14.1296315 17.3670257,14.4249883 17.3670257,14.7791802 L17.3676031,17.1864858 Z" id="Fill-1" fill="#FFFFFF"></path>
    </g>
</svg>